<?xml version="1.0" encoding="UTF-8"?>
<svg id="Layer_1" data-name="Layer 1" xmlns="http://www.w3.org/2000/svg" viewBox="0 0 237.91 279.02">
  <defs>
    <style>
      .cls-1 {
        fill: #eb7161;
        stroke: #eb7161;
      }

      .cls-1, .cls-2, .cls-3, .cls-4, .cls-5, .cls-6, .cls-7, .cls-8, .cls-9, .cls-10 {
        stroke-miterlimit: 10.43;
        stroke-width: .09px;
      }

      .cls-2 {
        fill: #b0c05d;
        stroke: #b0c05d;
      }

      .cls-3 {
        fill: #a7b658;
        stroke: #a7b658;
      }

      .cls-4 {
        fill: #a2b150;
        stroke: #a2b150;
      }

      .cls-5 {
        fill: #ce756b;
        stroke: #ce756b;
      }

      .cls-6 {
        fill: #f88777;
        stroke: #f88777;
      }

      .cls-7 {
        fill: #ec7161;
        stroke: #ec7161;
      }

      .cls-8 {
        fill: #e97567;
        stroke: #e97567;
      }

      .cls-9 {
        fill: #a6b557;
        stroke: #a6b557;
      }

      .cls-10 {
        fill: #ec7363;
        stroke: #ec7363;
      }
    </style>
  </defs>
  <g>
    <path class="cls-2" d="m10.25,23.09c3-5.99,8.02-12,15.05-12.95,5.4-1.18,11.07,1.19,14.53,5.38-.62,0-1.85.01-2.46.01-2.52,3.3-.47,7.22-.22,10.86.43,11.02-2.38,21.81-2.76,32.78-.49,4.69-1.08,9.38-.98,14.11.07,15.63-.83,31.32.85,46.9.68,6.49-1.07,13.96,3.65,19.33,1.82-1.71,3.7-3.37,5.62-4.97.02-1.28.05-2.55.09-3.81.34.04,1.04.11,1.38.14,4.97-6.91,11.41-12.56,17.32-18.65,5.4-5.67,11.76-10.28,18.17-14.75,9.13-5.58,20.77-10.59,31.21-5.36-1.18.66-2.34,1.32-3.5,1.98,1.05,1.42,2.11,2.84,3.17,4.26-1.43-.66-2.84-1.32-4.25-1.98-2.08,2.53.3,5.51-.18,8.28-.61,2.07-3.18,1.02-4.72,1.16-.06.94-.12,1.88-.17,2.82-.42.06-1.25.16-1.67.22.48,1.09.97,2.19,1.47,3.3-.75.88-1.48,1.76-2.22,2.65-.33-.32-.99-.95-1.32-1.27-3.57,5-8.6,8.7-13.87,11.72-5.66,2.82-8.8,8.57-13.28,12.77-3.57,3.26-6.05,7.55-9.86,10.55.14,1.27.3,2.53.46,3.8.79.42,1.58.85,2.38,1.28-1.04.97-2.08,1.93-3.11,2.91,2.55,4.31,6.62,7.34,10.06,10.9,1.95,1.7,3.81,4.08,6.55,4.4,2.47.1,2.73-3.01,3.55-4.71,7.95,5.99,16.94,10.47,26.08,14.32,6.49,2.89,14.01,2.99,20.03,6.98,3.27,2.08,6.51,4.88,7.41,8.83.46,3.66.61,7.68-1.49,10.9.75-3.22.95-6.53,1.08-9.82-.53.75-1.05,1.5-1.56,2.26-6.29,2.44-12.6,4.86-19.01,6.97-4.83,1.74-9.87.02-14.61-1.1-9.49-2.05-17.9-7.14-26.29-11.8-6.63-3.4-12.01-8.68-18.13-12.83-1.15-.93-2.61-.91-3.98-.64-2.17-2.04-4.44-4.11-7.3-5.11-1.07.71-1.79,1.85-1.88,3.14-.73,5.7-.18,11.46.5,17.13.56,4.59-.13,9.34,1.3,13.82,1.41,4.6,1.47,9.56.34,14.23-.87,3.66-3.91,6.29-6.98,8.2-3.6,2.38-8.05,1.14-12.03.85.06.8.14,1.62.22,2.43-.48.35-1.43,1.04-1.91,1.38-6.23-6.02-9.39-14.45-11.06-22.79-6.13-24.64-8.75-50-10.39-75.27-.86-7.31-.77-14.68-.84-22.02-.77-6.3-.62-12.65-.61-18.98.06-5.69-.3-11.4.44-17.06.22-10.36.89-20.74,2.62-30.96,1.41-9.23,3.06-18.62,7.11-27.12Z"/>
    <path class="cls-4" d="m37.37,15.53c.61,0,1.84-.01,2.46-.01,6.99,10.92,4.2,24.48,3.91,36.67-1.45,13.62-.84,27.33-.97,41-.1,12.52.28,25.05.85,37.54-.04,1.26-.07,2.53-.09,3.81-1.92,1.6-3.8,3.26-5.62,4.97-4.72-5.37-2.97-12.84-3.65-19.33-1.68-15.58-.78-31.27-.85-46.9-.1-4.73.49-9.42.98-14.11.38-10.97,3.19-21.76,2.76-32.78-.25-3.64-2.3-7.56.22-10.86Z"/>
    <path class="cls-9" d="m108.2,94.09c1.16-.66,2.32-1.32,3.5-1.98,6.01,3.15,7.78,11.25,4.88,17.12-2.4,5.69-8.15,8.63-12.82,12.18-13.7,9.69-25.98,21.2-37.03,33.8,4.51,4.33,9.19,8.54,14.46,11.94-.82,1.7-1.08,4.81-3.55,4.71-2.74-.32-4.6-2.7-6.55-4.4-3.44-3.56-7.51-6.59-10.06-10.9,1.03-.98,2.07-1.94,3.11-2.91-.8-.43-1.59-.86-2.38-1.28-.16-1.27-.32-2.53-.46-3.8,3.81-3,6.29-7.29,9.86-10.55,4.48-4.2,7.62-9.95,13.28-12.77,5.27-3.02,10.3-6.72,13.87-11.72.33.32.99.95,1.32,1.27.74-.89,1.47-1.77,2.22-2.65-.5-1.11-.99-2.21-1.47-3.3.42-.06,1.25-.16,1.67-.22.05-.94.11-1.88.17-2.82,1.54-.14,4.11.91,4.72-1.16.48-2.77-1.9-5.75.18-8.28,1.41.66,2.82,1.32,4.25,1.98-1.06-1.42-2.12-2.84-3.17-4.26Z"/>
    <path class="cls-3" d="m41.54,179.25c.09-1.29.81-2.43,1.88-3.14,2.86,1,5.13,3.07,7.3,5.11,1.37-.27,2.83-.29,3.98.64,6.12,4.15,11.5,9.43,18.13,12.83,8.39,4.66,16.8,9.75,26.29,11.8,4.74,1.12,9.78,2.84,14.61,1.1,6.41-2.11,12.72-4.53,19.01-6.97.51-.76,1.03-1.51,1.56-2.26-.13,3.29-.33,6.6-1.08,9.82-3.07,6.04-9.83,9.33-16.26,10.46-13.14,1.64-26.19-3.04-37.28-9.79-7.09-4.03-13.57-8.97-19.98-13.98-4.13-3.48-8.22-7.13-11.18-11.68,1.6,11.38,3.56,22.73,5.75,34.02.77,5.88.73,12.32-2.28,17.61-6.4,9.32-21.15,10.7-29.01,2.47.48-.34,1.43-1.03,1.91-1.38-.08-.81-.16-1.63-.22-2.43,3.98.29,8.43,1.53,12.03-.85,3.07-1.91,6.11-4.54,6.98-8.2,1.13-4.67,1.07-9.63-.34-14.23-1.43-4.48-.74-9.23-1.3-13.82-.68-5.67-1.23-11.43-.5-17.13Z"/>
  </g>
  <g>
    <path class="cls-8" d="m219.33,7.24c.88.31,1.77.64,2.66.98,8.17,5.82,12.82,15.51,14.42,25.23.54,5.85.27,12.19-3.19,17.19-3.03,4.16-7.89,7.47-13.23,7.11-6.33-.2-13.68-4.35-13.9-11.39,1.86,1,3.05,2.84,4.83,3.93,5.64,1.63,12.48-.21,15.58-5.43,2.82-8.78,1.44-18.83-3.17-26.78-2.06-3.39-1.16-7.8-4-10.84Z"/>
    <path class="cls-6" d="m196.17,8.52c4.89-1.14,9.73.86,14.62.34-.11.73-.22,1.46-.31,2.2,6.03,1.69,9.13,7.43,12.65,12.08,1.67,3.4,1.85,7.33,1.85,11.06-4.87.94-8.32-3.09-9.46-7.35-1.58-.87-3.15-1.72-4.72-2.58-1.04,1.32-1.97,2.72-3.02,4.02-1.4.08-2.16-1.57-3.22-2.27-.01-.78-.01-1.55,0-2.31-4.2-2.66-2.39-8.03-2.32-12.13,1.92-.25,3.84-.52,5.76-.83-3.89-.71-7.86-.27-11.76-.75-.02-.37-.05-1.11-.07-1.48Z"/>
    <path class="cls-10" d="m187.85,35.98c2.48-1.31,7.07-2.74,8.14.9-4.94,4.23-7.36,10.43-9.06,16.54-2.99,12.37-3.43,25.17-3.36,37.85-.3,5.74,1.36,11.32,1.64,17.04.19,5.53,1.22,10.99,1.56,16.51-2.82.89-5.63,1.77-8.49,2.51-1.38-7.63-3.47-15.2-3.34-23.01-.05-14.36-1.42-28.86,1.2-43.07,1.42-9.23,4.51-18.91,11.71-25.27Z"/>
    <g>
      <path class="cls-6" d="m186.37,1.9c8.03-2.22,16.78-2.78,24.7.22,3.82,1.56,8.13,2.88,10.92,6.1-.89-.34-1.78-.67-2.66-.98,2.84,3.04,1.94,7.45,4,10.84,4.61,7.95,5.99,18,3.17,26.78-3.1,5.22-9.94,7.06-15.58,5.43-1.78-1.09-2.97-2.93-4.83-3.93-1.07-3.05-1.99-6.39-4.5-8.61-1.6-1.31-3.71-1.11-5.6-.87-1.07-3.64-5.66-2.21-8.14-.9-7.2,6.36-10.29,16.04-11.71,25.27-2.62,14.21-1.25,28.71-1.2,43.07-.13,7.81,1.96,15.38,3.34,23.01,2.86-.74,5.67-1.62,8.49-2.51,11.36-3.58,20.59-5.2,30.2-5.87,0,0,10.46-.46,14.67,2.96.11.09.66.58,1.2,1.07.4.37.62.58.85.89.22.3.37.56.46.75-.45.19-.93.38-1.44.56-.4.14-.78.26-1.15.37.23,2.52.86,5.11.23,7.62-1.05,2.68-3.3,4.67-5.5,6.44-7.36,5.37-15.7,9.43-24.63,11.41-5.24,1.98-11.77,1.8-15.75,6.22-1.39,2.78-.28,6.09-.05,9.05,3.27,18.27,7.93,36.26,13.19,54.05,2.43,8.15,6.43,15.71,9.01,23.81,1.95,5.69,4.78,11.63,3.44,17.78-1.59,2.87-5.08,4.38-8.22,4.7-7.98-.25-13.26-6.98-18.33-12.25-2.91-3.39-8.16-2.76-11.02-6.24-11.53-24.51-18.63-50.85-24.62-77.19-.19-1.73-1.84-2.2-3.31-1.86,1.25-.38,2.48-.79,3.73-1.19-.45-2.77-.89-5.54-1.32-8.31-14.05-.15-28.18,5.1-42.15,1.42-6.17-1.33-11.39-5.03-16.72-8.2.4-8.26,6.94-15.09,14.61-17.41,12.45-3.27,25.34-4.08,38.08-5.52-2.28-25.4-2.95-51.35,2.73-76.37,2.52-9.21,5.3-18.59,10.78-26.53,7.11-11.38,17.82-20.77,30.63-25.08Zm9.8,6.62c.02.37.05,1.11.07,1.48,3.9.48,7.87.04,11.76.75-1.92.31-3.84.58-5.76.83-.07,4.1-1.88,9.47,2.32,12.13-.01.76-.01,1.53,0,2.31,1.06.7,1.82,2.35,3.22,2.27,1.05-1.3,1.98-2.7,3.02-4.02,1.57.86,3.14,1.71,4.72,2.58,1.14,4.26,4.59,8.29,9.46,7.35,0-3.73-.18-7.66-1.85-11.06-3.52-4.65-6.62-10.39-12.65-12.08.09-.74.2-1.47.31-2.2-4.89.52-9.73-1.48-14.62-.34Z"/>
      <path class="cls-1" d="m231.56,125.55c.37-.11.76-.23,1.15-.37.51-.18.99-.37,1.44-.56.96,1.21,2.73,3.76,3.4,7.46,0,0,1.01,4.21-.58,8.23-2.66,6.73-9.32,10.45-15.55,13.33-8.58,3.43-17.43,6.1-26.33,8.54.31,4.8,1.95,9.36,3.04,14.02,4.71,16.83,9.3,33.75,15.9,49.96,3.12,8.03,6.64,15.9,10.18,23.75,3.35,8.01,2.63,18.49-4.17,24.52-8.55,6.74-21.73,5.72-29.8-1.33-7.64-6.63-12.25-15.88-16.31-24.96,2.86,3.48,8.11,2.85,11.02,6.24,5.07,5.27,10.35,12,18.33,12.25,3.14-.32,6.63-1.83,8.22-4.7,1.34-6.15-1.49-12.09-3.44-17.78-2.58-8.1-6.58-15.66-9.01-23.81-5.26-17.79-9.92-35.78-13.19-54.05-.23-2.96-1.34-6.27.05-9.05,3.98-4.42,10.51-4.24,15.75-6.22,8.93-1.98,17.27-6.04,24.63-11.41,2.2-1.77,4.45-3.76,5.5-6.44.63-2.51,0-5.1-.23-7.62Z"/>
    </g>
    <path class="cls-7" d="m89.54,152.81c5.33,3.17,10.55,6.87,16.72,8.2,13.97,3.68,28.1-1.57,42.15-1.42.43,2.77.87,5.54,1.32,8.31-1.25.4-2.48.81-3.73,1.19-6.4,1.21-12.9,2.77-19.44,2.74-3.49-.63-7.03-.81-10.56-.57-4.68.36-9.25-1.12-13.92-.74-7.59-1.86-13.16-9.89-12.54-17.71Z"/>
    <path class="cls-5" d="m102.08,170.52c4.67-.38,9.24,1.1,13.92.74,3.53-.24,7.07-.06,10.56.57-3.71,1.37-7.7.7-11.54.89-4.41.16-9.01.07-12.94-2.2Z"/>
  </g>
</svg>