<?xml version="1.0" encoding="UTF-8"?>
<svg id="Layer_1" data-name="Layer 1" xmlns="http://www.w3.org/2000/svg" viewBox="0 0 543.35 512.91">
  <defs>
    <style>
      .cls-1 {
        fill: #eb7869;
        stroke: #eb7869;
      }

      .cls-1, .cls-2, .cls-3, .cls-4, .cls-5, .cls-6, .cls-7, .cls-8, .cls-9, .cls-10, .cls-11, .cls-12, .cls-13, .cls-14, .cls-15, .cls-16, .cls-17, .cls-18, .cls-19, .cls-20, .cls-21, .cls-22, .cls-23, .cls-24, .cls-25, .cls-26, .cls-27, .cls-28, .cls-29, .cls-30, .cls-31, .cls-32, .cls-33, .cls-34, .cls-35, .cls-36 {
        stroke-miterlimit: 10.43;
        stroke-width: .09px;
      }

      .cls-2 {
        fill: #a8b758;
        stroke: #a8b758;
      }

      .cls-3 {
        fill: #b9c56f;
        stroke: #b9c56f;
      }

      .cls-4 {
        fill: #eb7465;
        stroke: #eb7465;
      }

      .cls-5 {
        fill: #eb7161;
        stroke: #eb7161;
      }

      .cls-6 {
        fill: #b0c05d;
        stroke: #b0c05d;
      }

      .cls-7 {
        fill: #f79283;
        stroke: #f79283;
      }

      .cls-8 {
        fill: #dec19a;
        stroke: #dec19a;
      }

      .cls-9 {
        fill: #b1c15f;
        stroke: #b1c15f;
      }

      .cls-10 {
        fill: #a7b655;
        stroke: #a7b655;
      }

      .cls-11 {
        fill: #b2c160;
        stroke: #b2c160;
      }

      .cls-12 {
        fill: #d3b289;
        stroke: #d3b289;
      }

      .cls-13 {
        fill: #a7b658;
        stroke: #a7b658;
      }

      .cls-14 {
        fill: #a7b659;
        stroke: #a7b659;
      }

      .cls-15 {
        fill: #a2b150;
        stroke: #a2b150;
      }

      .cls-16 {
        fill: #f79082;
        stroke: #f79082;
      }

      .cls-17 {
        fill: #f88777;
        stroke: #f88777;
      }

      .cls-18 {
        fill: #ec7161;
        stroke: #ec7161;
      }

      .cls-19 {
        fill: #e97567;
        stroke: #e97567;
      }

      .cls-20 {
        fill: #ec7362;
        stroke: #ec7362;
      }

      .cls-21 {
        fill: #b2c15f;
        stroke: #b2c15f;
      }

      .cls-22 {
        fill: #f89184;
        stroke: #f89184;
      }

      .cls-23 {
        fill: #a5b556;
        stroke: #a5b556;
      }

      .cls-24 {
        fill: #b0bf60;
        stroke: #b0bf60;
      }

      .cls-25 {
        fill: #a6b557;
        stroke: #a6b557;
      }

      .cls-26 {
        fill: #eb7364;
        stroke: #eb7364;
      }

      .cls-27 {
        fill: #dcc19e;
        stroke: #dcc19e;
      }

      .cls-28 {
        fill: #f78979;
        stroke: #f78979;
      }

      .cls-29 {
        fill: #a4b35a;
        stroke: #a4b35a;
      }

      .cls-30 {
        fill: #ec7363;
        stroke: #ec7363;
      }

      .cls-31 {
        fill: #f88776;
        stroke: #f88776;
      }

      .cls-32 {
        fill: #eb7162;
        stroke: #eb7162;
      }

      .cls-33 {
        fill: #f98576;
        stroke: #f98576;
      }

      .cls-34 {
        fill: #ec7263;
        stroke: #ec7263;
      }

      .cls-35 {
        fill: #a7b657;
        stroke: #a7b657;
      }

      .cls-36 {
        fill: #a4b354;
        stroke: #a4b354;
      }
    </style>
  </defs>
  <g>
    <path class="cls-24" d="m363.18,11.4c7.71-3.49,17.06-2.13,24.03,2.49-1.26.6-2.5,1.21-3.75,1.82,1.92,6.19,3.19,12.85,1.1,19.2-3.11,6.29-10.15,11.24-17.39,9.7-4.59-.18-8.5-2.64-11.84-5.58-.5.5-1.51,1.51-2.02,2.01l-.33.32c-4.56-10.58-.7-24.96,10.2-29.96Z"/>
    <path class="cls-29" d="m383.46,15.71c1.25-.61,2.49-1.22,3.75-1.82,10.35,8.11,10.27,25.52.5,34.07-4.34,3.54-9.76,6.52-15.55,5.96-8.09-.15-15.78-5.39-18.85-12.88.51-.5,1.52-1.51,2.02-2.01,3.34,2.94,7.25,5.4,11.84,5.58,7.24,1.54,14.28-3.41,17.39-9.7,2.09-6.35.82-13.01-1.1-19.2Z"/>
    <path class="cls-10" d="m439.79,102.51c4.68-11.16,1.64-23.51-.11-34.97,6.71,2.59,10.21,9.99,10.23,16.85-.04,6.18.21,12.39-.59,18.54-.11.52-.33,1.58-.45,2.11-3.3.51-6.59-.2-9.08-2.53Z"/>
    <path class="cls-14" d="m524.54,83.02c.48-.13,1.43-.39,1.9-.52,9.28,7.66,14.57,19.17,16.01,30.97,1.19,6.95.94,14,.37,21-.17,8.74-2.11,17.31-4.07,25.79-2.63,11.91-6.47,23.64-12.54,34.26-3.88,6.14-10.41,11.29-18.06,10.68-7.84.75-15.79-5.12-16.92-12.99,2.08,1.89,3.96,3.99,5.72,6.2-.23-1.26-.44-2.51-.64-3.75,5.68,2.03,13.26,1.22,16.96-4.02,3.67-4.93,6.9-10.26,9.03-16.05,7.03-16.03,10.28-33.68,9.77-51.17-.27-6.13,1.16-12.68-1.74-18.4-1.81-4.46-3-9.12-4.34-13.73-1.87-.56-3.74-1.16-5.56-1.82-.27-.52-.81-1.55-1.07-2.06-1.69-1.04-3.36-2.1-4.97-3.22,1.54-.34,3.08-1.05,4.71-.86,1.51.62,2.68,1.83,3.96,2.83.48-1.05.97-2.1,1.48-3.14Z"/>
    <path class="cls-3" d="m510.48,89.37c2.71-3.25,6.74-.95,9.95.1,1.82.66,3.69,1.26,5.56,1.82,1.34,4.61,2.53,9.27,4.34,13.73-.1,2.66-.09,5.36-.71,7.96-.97,1.57-3.21,1.78-4.28.18-3.92-6.12-4.3-14.81-10.78-19.16-.26-1.27-.49-2.54-.72-3.8-1.13-.27-2.26-.55-3.36-.83Z"/>
    <g>
      <g>
        <path class="cls-21" d="m160.42,47.69c4.67-7.47,14.87-9.81,22.84-6.73-.5.27-1.48.82-1.97,1.09.82.93,1.66,1.86,2.5,2.8-1.01.59-2,1.19-2.99,1.8,1.45.22,2.91.44,4.38.67-.91.59-1.79,1.19-2.68,1.79.58.2,1.76.6,2.34.81.49,5.3,1.04,10.59,1.84,15.86.86,5.11-1.12,10.21-.12,15.32,1.01,5.43-.7,10.82-.52,16.26.21,9.03-.53,18.1.82,27.07.23,10.71,1.49,21.34,2.3,32.01.36,5.03,2.2,9.84,2.1,14.93.32,5.36.89,11.77-3.37,15.86-4.09,3.02-9.88,3.9-14.65,2.04-1.66-.56-3.36-1.01-5.09-1.27l-.35-.07c-3.55-6.01-4.76-12.95-6.42-19.62-6.14-32.58-7.68-65.85-6.59-98.95.4-7.49,1.86-15.1,5.63-21.67Z"/>
        <path class="cls-21" d="m425.03,67.04c4.73-1.51,9.89-1.34,14.59.2l.06.3c1.75,11.46,4.79,23.81.11,34.97,2.49,2.33,5.78,3.04,9.08,2.53.12-.53.34-1.59.45-2.11,2.87-5.36,7.97-8.89,12.22-13.06,11.95-10.22,27.56-17.42,43.58-15.85,7.66.85,15.21,3.73,21.32,8.48-.47.13-1.42.39-1.9.52-.51,1.04-1,2.09-1.48,3.14-1.28-1-2.45-2.21-3.96-2.83-1.63-.19-3.17.52-4.71.86,1.61,1.12,3.28,2.18,4.97,3.22.26.51.8,1.54,1.07,2.06-3.21-1.05-7.24-3.35-9.95-.1,1.1.28,2.23.56,3.36.83.23,1.26.46,2.53.72,3.8,6.48,4.35,6.86,13.04,10.78,19.16,1.07,1.6,3.31,1.39,4.28-.18.62-2.6.61-5.3.71-7.96,2.9,5.72,1.47,12.27,1.74,18.4.51,17.49-2.74,35.14-9.77,51.17-2.13,5.79-5.36,11.12-9.03,16.05-3.7,5.24-11.28,6.05-16.96,4.02.2,1.24.41,2.49.64,3.75-1.76-2.21-3.64-4.31-5.72-6.2l-.59-.55c-.65-10.36,3.56-20.01,5.97-29.87,2.86-11.24,5.52-22.72,5.29-34.39.04-4.77.04-9.94-2.65-14.09-2.52-3.49-7-4.9-11.14-4.13.91-.47,1.84-.93,2.77-1.4-1.15-1.39-1.94-3.6-3.95-3.83-10.81,2.08-19.69,9.41-26.39,17.83-7.85,7.06-11.95,16.99-17.06,26-3.01,4.89-4.16,10.69-7.52,15.4-3.55,5.82-6.6,13.47-13.9,15.27-4.85,1.83-9.89-.22-14.29-2.27-1.26.28-2.52.56-3.76.86-1.75-4.67-1.36-9.73-1.11-14.6,2.25-20.04,4.8-40.05,7.36-60.06.75-7.07,1.65-14.14,3.35-21.06,1.65-6,5.43-11.9,11.42-14.28Z"/>
      </g>
      <g>
        <path class="cls-2" d="m181.29,42.05c.49-.27,1.47-.82,1.97-1.09,5.13,2.37,9.22,7.23,10.48,12.78,2.25,9.08,1.58,18.48,1.65,27.75-.02,7.97.03,15.94.23,23.91,1.48,7.62.47,15.42,1.34,23.11,1.55,15.99,2.95,32.01,5.33,47.92,1.43,7.63-1.95,16.39-9.05,20-8.82,4.1-21,.83-25.09-8.43,1.73.26,3.43.71,5.09,1.27,4.77,1.86,10.56.98,14.65-2.04,4.26-4.09,3.69-10.5,3.37-15.86.1-5.09-1.74-9.9-2.1-14.93-.81-10.67-2.07-21.3-2.3-32.01-1.35-8.97-.61-18.04-.82-27.07-.18-5.44,1.53-10.83.52-16.26-1-5.11.98-10.21.12-15.32-.8-5.27-1.35-10.56-1.84-15.86-.58-.21-1.76-.61-2.34-.81.89-.6,1.77-1.2,2.68-1.79-1.47-.23-2.93-.45-4.38-.67.99-.61,1.98-1.21,2.99-1.8-.84-.94-1.68-1.87-2.5-2.8Z"/>
        <path class="cls-2" d="m460.54,121.78c6.7-8.42,15.58-15.75,26.39-17.83,2.01.23,2.8,2.44,3.95,3.83-.93.47-1.86.93-2.77,1.4-11.64,5.38-20.29,15.69-26.56,26.63-8.37,12.69-13.85,26.96-19.89,40.83-2.58,5.6-7.48,10.21-13.5,11.84-5.36,1.28-11.03.17-15.93-2.15-3.85-1.93-6.27-5.61-8.22-9.29,1.24-.3,2.5-.58,3.76-.86,4.4,2.05,9.44,4.1,14.29,2.27,7.3-1.8,10.35-9.45,13.9-15.27,3.36-4.71,4.51-10.51,7.52-15.4,5.11-9.01,9.21-18.94,17.06-26Z"/>
        <path class="cls-2" d="m323.79,143.95c5.08,3.09,4.57,10.2,3.02,15.17-4.69,10.83-14.66,18.32-25.07,23.27-19.75,8.41-43.84,9.31-62.68-1.95-6.27-3.49-11.05-8.93-15.52-14.41,1.01-1.05,1.76-2.95,3.54-2.71,3.13.8,5.4,3.35,8.15,4.92,5.88,3.3,11.95,6.62,18.73,7.58,14.73,3.8,30.21.88,44.19-4.37,4.4-1.53,7.6-5.06,11.44-7.52,2.18-1.49,4.65-2.67,6.36-4.74,3.47-4.58,7.77-9.11,7.84-15.24Z"/>
      </g>
      <path class="cls-9" d="m270.55,57.93c16.85-3.25,35.93,1.07,47.56,14.27-2.95.22-6.05.84-7.11,4.01,1.56.96,3.13,1.91,4.71,2.86,2.57,8.14,1.76,17.17-2.17,24.73-3.56,6.28-9.33,10.86-15.45,14.49-6.76,3.76-13.52,7.78-21.08,9.71-4.71,1.15-9.48,2-14.22,2.99-4.88,1.04-10.16.71-14.57,3.35,1.34,1.68,2.83,3.26,4.36,4.79,1.87,2.85,2.43,6.47,4.64,9.2,4.25,6.57,12.59,8.7,19.99,8.54,9.16-.62,18.04-4.35,24.89-10.49,5.75-5.4,14.69-6.48,21.83-3.34l-.14.91c-.07,6.13-4.37,10.66-7.84,15.24-1.71,2.07-4.18,3.25-6.36,4.74-3.84,2.46-7.04,5.99-11.44,7.52-13.98,5.25-29.46,8.17-44.19,4.37-6.78-.96-12.85-4.28-18.73-7.58-2.75-1.57-5.02-4.12-8.15-4.92-1.78-.24-2.53,1.66-3.54,2.71-4.47-6.81-8.37-14.18-9.8-22.28-2.67-14.09-1.69-29.08,3.93-42.37,5.18-15.31,16.61-28.1,30.72-35.82,6.74-4.15,14.54-5.91,22.16-7.63Zm-5.06,27.04c-3.57,3.72-8.28,6.23-11.51,10.29-3.23,5.26-5.78,11.4-4.61,17.69.6.22,1.81.65,2.41.86-.04.83-.08,1.66-.1,2.5.54-.04,1.63-.12,2.18-.16l.6-1.92c8.85-.29,17.48-2.68,25.69-5.86,6.91-3.18,14.55-7.83,15.72-16.08-1.65-2.03-3.23-4.46-5.88-5.22-3.05-.63-6.19-.53-9.28-.49,2.15-.67,4.34-1.22,6.57-1.67-2.46-.44-4.94-.65-7.41-.85,1.76-.46,3.55-.8,5.37-1.04-2-.61-3.98-1.44-6.09-1.37-4.92-.39-8.71,3.81-13.66,3.32Z"/>
      <path class="cls-11" d="m349.05,82.42c4.57-11.4,20.98-14.07,30.13-6.67-1.27.66-2.55,1.3-3.74,2.08.65,3.17,1.95,6.26,1.75,9.58-.25,8.45.48,17.09-1.96,25.32-1.76,5.18-.58,10.73-1.74,16.02-1.33,5.75-1.55,11.66-2.61,17.46-.87,4.97-.65,10.23-2.96,14.86-2.29,4.77-3.63,10.68-8.56,13.52-4.12,2.08-9.49,3.14-13.49.23-.36.68-.71,1.37-1.05,2.06-.59-.41-1.17-.81-1.75-1.2-.03.46-.09,1.4-.11,1.87-2.4-3.92-3.74-8.54-3.63-13.15-.1-16.75,2.54-33.34,3.76-50.02,1.84-10.67,1.77-21.84,5.96-31.96Z"/>
      <path class="cls-36" d="m311,76.21c1.06-3.17,4.16-3.79,7.11-4.01,4.58,5.38,7.32,12.19,8.03,19.21.76,12.32-6.37,23.85-16.27,30.75-11.76,7.49-25.23,11.73-38.76,14.72-6.12,1.22-12.38,1.29-18.53,2.25-1.53-1.53-3.02-3.11-4.36-4.79,4.41-2.64,9.69-2.31,14.57-3.35,4.74-.99,9.51-1.84,14.22-2.99,7.56-1.93,14.32-5.95,21.08-9.71,6.12-3.63,11.89-8.21,15.45-14.49,3.93-7.56,4.74-16.59,2.17-24.73-1.58-.95-3.15-1.9-4.71-2.86Z"/>
      <path class="cls-35" d="m375.44,77.83c1.19-.78,2.47-1.42,3.74-2.08,3.16,3.1,5.79,6.89,6.23,11.42,1.18,11.1-.37,22.23-1.28,33.29-.94,10.69-2.43,21.32-4,31.93-1.55,8.11-1.89,16.74-6.22,24.02-5.79,11.32-24.19,11.58-30.95,1.14.02-.47.08-1.41.11-1.87.58.39,1.16.79,1.75,1.2.34-.69.69-1.38,1.05-2.06,4,2.91,9.37,1.85,13.49-.23,4.93-2.84,6.27-8.75,8.56-13.52,2.31-4.63,2.09-9.89,2.96-14.86,1.06-5.8,1.28-11.71,2.61-17.46,1.16-5.29-.02-10.84,1.74-16.02,2.44-8.23,1.71-16.87,1.96-25.32.2-3.32-1.1-6.41-1.75-9.58Z"/>
      <path class="cls-23" d="m265.49,84.97c4.95.49,8.74-3.71,13.66-3.32,2.11-.07,4.09.76,6.09,1.37-1.82.24-3.61.58-5.37,1.04,2.47.2,4.95.41,7.41.85-2.23.45-4.42,1-6.57,1.67-13.28,3-23.38,14.58-26.25,27.65l-.6,1.92c-.55.04-1.64.12-2.18.16.02-.84.06-1.67.1-2.5-.6-.21-1.81-.64-2.41-.86-1.17-6.29,1.38-12.43,4.61-17.69,3.23-4.06,7.94-6.57,11.51-10.29Z"/>
      <g>
        <path class="cls-6" d="m25.04,13.3C28.04,7.31,33.06,1.3,40.09.35c5.4-1.18,11.07,1.19,14.53,5.38-.62,0-1.85.01-2.46.01-2.52,3.3-.47,7.22-.22,10.86.43,11.02-2.38,21.81-2.76,32.78-.49,4.69-1.08,9.38-.98,14.11.07,15.63-.83,31.32.85,46.9.68,6.49-1.07,13.96,3.65,19.33,1.82-1.71,3.7-3.37,5.62-4.97.02-1.28.05-2.55.09-3.81.34.04,1.04.11,1.38.14,4.97-6.91,11.41-12.56,17.32-18.65,5.4-5.67,11.76-10.28,18.17-14.75,9.13-5.58,20.77-10.59,31.21-5.36-1.18.66-2.34,1.32-3.5,1.98,1.05,1.42,2.11,2.84,3.17,4.26-1.43-.66-2.84-1.32-4.25-1.98-2.08,2.53.3,5.51-.18,8.28-.61,2.07-3.18,1.02-4.72,1.16-.06.94-.12,1.88-.17,2.82-.42.06-1.25.16-1.67.22.48,1.09.97,2.19,1.47,3.3-.75.88-1.48,1.76-2.22,2.65-.33-.32-.99-.95-1.32-1.27-3.57,5-8.6,8.7-13.87,11.72-5.66,2.82-8.8,8.57-13.28,12.77-3.57,3.26-6.05,7.55-9.86,10.55.14,1.27.3,2.53.46,3.8.79.42,1.58.85,2.38,1.28-1.04.97-2.08,1.93-3.11,2.91,2.55,4.31,6.62,7.34,10.06,10.9,1.95,1.7,3.81,4.08,6.55,4.4,2.47.1,2.73-3.01,3.55-4.71,7.95,5.99,16.94,10.47,26.08,14.32,6.49,2.89,14.01,2.99,20.03,6.98,3.27,2.08,6.51,4.88,7.41,8.83.46,3.66.61,7.68-1.49,10.9.75-3.22.95-6.53,1.08-9.82-.53.75-1.05,1.5-1.56,2.26-6.29,2.44-12.6,4.86-19.01,6.97-4.83,1.74-9.87.02-14.61-1.1-9.49-2.05-17.9-7.14-26.29-11.8-6.63-3.4-12.01-8.68-18.13-12.83-1.15-.93-2.61-.91-3.98-.64-2.17-2.04-4.44-4.11-7.3-5.11-1.07.71-1.79,1.85-1.88,3.14-.73,5.7-.18,11.46.5,17.13.56,4.59-.13,9.34,1.3,13.82,1.41,4.6,1.47,9.56.34,14.23-.87,3.66-3.91,6.29-6.98,8.2-3.6,2.38-8.05,1.14-12.03.85.06.8.14,1.62.22,2.43-.48.35-1.43,1.04-1.91,1.38-6.23-6.02-9.39-14.45-11.06-22.79-6.13-24.64-8.75-50-10.39-75.27-.86-7.31-.77-14.68-.84-22.02-.77-6.3-.62-12.65-.61-18.98.06-5.69-.3-11.4.44-17.06.22-10.36.89-20.74,2.62-30.96,1.41-9.23,3.06-18.62,7.11-27.12Z"/>
        <path class="cls-15" d="m52.16,5.74c.61,0,1.84-.01,2.46-.01,6.99,10.92,4.2,24.48,3.91,36.67-1.45,13.62-.84,27.33-.97,41-.1,12.52.28,25.05.85,37.54-.04,1.26-.07,2.53-.09,3.81-1.92,1.6-3.8,3.26-5.62,4.97-4.72-5.37-2.97-12.84-3.65-19.33-1.68-15.58-.78-31.27-.85-46.9-.1-4.73.49-9.42.98-14.11.38-10.97,3.19-21.76,2.76-32.78-.25-3.64-2.3-7.56.22-10.86Z"/>
        <path class="cls-25" d="m122.99,84.3c1.16-.66,2.32-1.32,3.5-1.98,6.01,3.15,7.78,11.25,4.88,17.12-2.4,5.69-8.15,8.63-12.82,12.18-13.7,9.69-25.98,21.2-37.03,33.8,4.51,4.33,9.19,8.54,14.46,11.94-.82,1.7-1.08,4.81-3.55,4.71-2.74-.32-4.6-2.7-6.55-4.4-3.44-3.56-7.51-6.59-10.06-10.9,1.03-.98,2.07-1.94,3.11-2.91-.8-.43-1.59-.86-2.38-1.28-.16-1.27-.32-2.53-.46-3.8,3.81-3,6.29-7.29,9.86-10.55,4.48-4.2,7.62-9.95,13.28-12.77,5.27-3.02,10.3-6.72,13.87-11.72.33.32.99.95,1.32,1.27.74-.89,1.47-1.77,2.22-2.65-.5-1.11-.99-2.21-1.47-3.3.42-.06,1.25-.16,1.67-.22.05-.94.11-1.88.17-2.82,1.54-.14,4.11.91,4.72-1.16.48-2.77-1.9-5.75.18-8.28,1.41.66,2.82,1.32,4.25,1.98-1.06-1.42-2.12-2.84-3.17-4.26Z"/>
        <path class="cls-13" d="m56.33,169.46c.09-1.29.81-2.43,1.88-3.14,2.86,1,5.13,3.07,7.3,5.11,1.37-.27,2.83-.29,3.98.64,6.12,4.15,11.5,9.43,18.13,12.83,8.39,4.66,16.8,9.75,26.29,11.8,4.74,1.12,9.78,2.84,14.61,1.1,6.41-2.11,12.72-4.53,19.01-6.97.51-.76,1.03-1.51,1.56-2.26-.13,3.29-.33,6.6-1.08,9.82-3.07,6.04-9.83,9.33-16.26,10.46-13.14,1.64-26.19-3.04-37.28-9.79-7.09-4.03-13.57-8.97-19.98-13.98-4.13-3.48-8.22-7.13-11.18-11.68,1.6,11.38,3.56,22.73,5.75,34.02.77,5.88.73,12.32-2.28,17.61-6.4,9.32-21.15,10.7-29.01,2.47.48-.34,1.43-1.03,1.91-1.38-.08-.81-.16-1.63-.22-2.43,3.98.29,8.43,1.53,12.03-.85,3.07-1.91,6.11-4.54,6.98-8.2,1.13-4.67,1.07-9.63-.34-14.23-1.43-4.48-.74-9.23-1.3-13.82-.68-5.67-1.23-11.43-.5-17.13Z"/>
      </g>
    </g>
  </g>
  <path class="cls-8" d="m210.03,212.19c33.53-7.37,67.94-8.95,102.08-11.15,14-.2,28,.03,42,.01,3.67-.09,7.28.58,10.91,1.08,5.86.93,12.21,1.16,17.1,4.97-.4.06-1.21.18-1.61.24-.52,5.92,1.07,11.85.1,17.75-2.97,14.33-3.35,29.08-6.72,43.35-.41,5.75-3.27,11.56-8.52,14.32-2.62,1.31-5.27,3.3-8.37,2.71-9.65-.13-19.22-1.69-28.88-1.33-15.08-.27-30.01,2.45-45.08,2.35-16.99,2.22-34.16,3.33-50.99,6.71-8.82,1.07-17.31,3.82-26.12,4.9-3.92.45-8.16.21-11.62-1.87-2.61-1.85-4.47-4.53-6.29-7.11-.81-1.8-.9-3.83-1.21-5.75-1.55-11.62-2.97-23.26-3.76-34.95-.38-6.02-1.88-12.03-.94-18.06.61-5.73,4.53-11,9.9-13.12,5.76-2.47,12.01-3.4,18.02-5.05Zm136.47,3.55c.13,5.2-.5,10.37-.92,15.55-2.83-.52-5.62-1.42-8.5-1.37-7.67.56-15.39,4.71-18.89,11.76-2.58,5.47-3.11,11.86-1.56,17.7,1.9,6.31,7.81,11.06,14.43,11.38,5.42,1.08,10.61-1.23,15.14-3.97,1.56,2.94,4.25,5.6,7.89,5.14,2.26-.93,5.22-2.55,4.91-5.45-1.23-16.01-.34-32.08-.12-48.11.57-3.47-2.93-5.46-5.71-6.36-2.79-.22-4.79,2.04-6.67,3.73Zm-79.04,15.26c-3.61,2.66-3.12,7.4-2.75,11.33.98,9.15.78,18.51,3.17,27.46,2.35,5.08,11.33,3.02,11.6-2.46.36-4.29-.53-8.7.86-12.87,1.4-5.35,3.95-11.41,9.74-13.15,2.27-1.15,4.44.9,5.14,2.94,2.74,7.31,1.9,15.21,2.39,22.82.88,4.4,6.09,5.18,9.53,3.36,3.1-3.11,2.8-7.97,2.81-12.03.01-8.14.01-17.11-5.19-23.88-4.12-4.45-10.81-4.36-16.33-3.47-4.38,1.7-8.06,4.8-11.25,8.18-.91-2.35-1.23-5.08-3.02-6.96-1.68-1.84-4.48-1.72-6.7-1.27Zm-24.03,4.81c-2.14,4.18-.89,9.1-.74,13.6.51,5.85-.75,12.94-6.09,16.31-2.75,1.94-7.1.71-8.4-2.39-4.05-7.92-1.6-17.11-2.79-25.55-2.14-4.8-10.64-4.46-11.72,1.02-.71,9-1.04,18.36,1.91,27.05.87,3.64,3.9,6.11,6.66,8.38,4.93,3.07,11.34,3.14,16.68,1.05,2.25-.88,3.92-2.81,6.18-3.65,1.87.07,3.42,1.36,5.07,2.14,1.85-1.16,4.21-2.09,4.98-4.35,2.04-5.61,1.99-11.79.97-17.6.32-4.84-.29-9.66-1.11-14.41-.43-2.39-2.77-3.88-4.94-4.47-2.48-.04-4.77,1.38-6.66,2.87Z"/>
  <path class="cls-12" d="m380.51,207.34c.4-.06,1.21-.18,1.61-.24,4.4,2.98,7.15,8.13,7.32,13.43.72,14.65-.65,29.28-1.31,43.9-.9,6.73.06,13.86-2.87,20.19-1.72,4.69-5.37,8.88-10.22,10.38-9.62,1.31-19.32-.19-28.98.03-11.04.11-22.12-.4-33.12.73-27.94.89-55.81,4.62-82.96,11.28-7.34,1.44-14.56,4.58-22.16,3.78-.9-1.83-1.59-3.8-2.89-5.37-2.89-1.04-6.31.13-9.02-1.73-5.67-2.44-7.71-8.89-7.89-14.6,1.82,2.58,3.68,5.26,6.29,7.11,3.46,2.08,7.7,2.32,11.62,1.87,8.81-1.08,17.3-3.83,26.12-4.9,16.83-3.38,34-4.49,50.99-6.71,15.07.1,30-2.62,45.08-2.35,9.66-.36,19.23,1.2,28.88,1.33,3.1.59,5.75-1.4,8.37-2.71,5.25-2.76,8.11-8.57,8.52-14.32,3.37-14.27,3.75-29.02,6.72-43.35.97-5.9-.62-11.83-.1-17.75Z"/>
  <path class="cls-27" d="m328.42,253.46c-.37-6.37,4.68-11.88,10.63-13.48,2.49,1.07,6.85,1.87,6.28,5.47-.32,4.26-.35,8.93-3.02,12.51-2.34,2.8-6.35,3.85-9.81,2.79-2.35-1.64-4.31-4.29-4.08-7.29Z"/>
  <path class="cls-1" d="m180.27,327.26c7.93-.11,14.33,6.35,16.69,13.52,1.21,4.23,2.59,8.42,3.39,12.76,1,2.57.19,5.07-1.58,7.09-1.72-1.47-4-2.59-4.85-4.8-1.75-4.73-2.19-9.8-3.67-14.59-.93-2.86-3.45-5.15-3.26-8.34.37-3.72-4.26-4.21-6.72-5.64Z"/>
  <path class="cls-16" d="m238.23,329.67c5.93.45,12.76-.23,17.27,4.44,1.72,2.51,3.38,5.17,4.23,8.12-.44,2.81-2.45,4.97-4.07,7.19-5.76.11-11.59-.95-17.28.39-4.49,1.17-9.19-.06-13.01-2.51-1.72-1.69-.68-4.39-.56-6.48,2.72-.87,4.14-3.4,6.01-5.34,2.75-2.01,6.17-2.78,9.43-3.58-.68-.75-1.36-1.49-2.02-2.23Z"/>
  <path class="cls-19" d="m129.88,241.13c.88.31,1.77.64,2.66.98,8.17,5.82,12.82,15.51,14.42,25.23.54,5.85.27,12.19-3.19,17.19-3.03,4.16-7.89,7.47-13.23,7.11-6.33-.2-13.68-4.35-13.9-11.39,1.86,1,3.05,2.84,4.83,3.93,5.64,1.63,12.48-.21,15.58-5.43,2.82-8.78,1.44-18.83-3.17-26.78-2.06-3.39-1.16-7.8-4-10.84Z"/>
  <path class="cls-17" d="m106.72,242.41c4.89-1.14,9.73.86,14.62.34-.11.73-.22,1.46-.31,2.2,6.03,1.69,9.13,7.43,12.65,12.08,1.67,3.4,1.85,7.33,1.85,11.06-4.87.94-8.32-3.09-9.46-7.35-1.58-.87-3.15-1.72-4.72-2.58-1.04,1.32-1.97,2.72-3.02,4.02-1.4.08-2.16-1.57-3.22-2.27,0-.78,0-1.55,0-2.31-4.2-2.66-2.39-8.03-2.32-12.13,1.92-.25,3.84-.52,5.76-.83-3.89-.71-7.86-.27-11.76-.75-.02-.37-.05-1.11-.07-1.48Z"/>
  <path class="cls-30" d="m98.4,269.87c2.48-1.31,7.07-2.74,8.14.9-4.94,4.23-7.36,10.43-9.06,16.54-2.99,12.37-3.43,25.17-3.36,37.85-.3,5.74,1.36,11.32,1.64,17.04.19,5.53,1.22,10.99,1.56,16.51-2.82.89-5.63,1.77-8.49,2.51-1.38-7.63-3.47-15.2-3.34-23.01-.05-14.36-1.42-28.86,1.2-43.07,1.42-9.23,4.51-18.91,11.71-25.27Z"/>
  <g>
    <g>
      <path class="cls-17" d="m96.92,235.79c8.03-2.22,16.78-2.78,24.7.22,3.82,1.56,8.13,2.88,10.92,6.1-.89-.34-1.78-.67-2.66-.98,2.84,3.04,1.94,7.45,4,10.84,4.61,7.95,5.99,18,3.17,26.78-3.1,5.22-9.94,7.06-15.58,5.43-1.78-1.09-2.97-2.93-4.83-3.93-1.07-3.05-1.99-6.39-4.5-8.61-1.6-1.31-3.71-1.11-5.6-.87-1.07-3.64-5.66-2.21-8.14-.9-7.2,6.36-10.29,16.04-11.71,25.27-2.62,14.21-1.25,28.71-1.2,43.07-.13,7.81,1.96,15.38,3.34,23.01,2.86-.74,5.67-1.62,8.49-2.51,11.36-3.58,20.59-5.2,30.2-5.87,0,0,10.46-.46,14.67,2.96.11.09.66.58,1.2,1.07.4.37.62.58.85.89.22.3.37.56.46.75-.45.19-.93.38-1.44.56-.4.14-.78.26-1.15.37.23,2.52.86,5.11.23,7.62-1.05,2.68-3.3,4.67-5.5,6.44-7.36,5.37-15.7,9.43-24.63,11.41-5.24,1.98-11.77,1.8-15.75,6.22-1.39,2.78-.28,6.09-.05,9.05,3.27,18.27,7.93,36.26,13.19,54.05,2.43,8.15,6.43,15.71,9.01,23.81,1.95,5.69,4.78,11.63,3.44,17.78-1.59,2.87-5.08,4.38-8.22,4.7-7.98-.25-13.26-6.98-18.33-12.25-2.91-3.39-8.16-2.76-11.02-6.24-11.53-24.51-18.63-50.85-24.62-77.19-.19-1.73-1.84-2.2-3.31-1.86,1.25-.38,2.48-.79,3.73-1.19-.45-2.77-.89-5.54-1.32-8.31-14.05-.15-28.18,5.1-42.15,1.42-6.17-1.33-11.39-5.03-16.72-8.2.4-8.26,6.94-15.09,14.61-17.41,12.45-3.27,25.34-4.08,38.08-5.52-2.28-25.4-2.95-51.35,2.73-76.37,2.52-9.21,5.3-18.59,10.78-26.53,7.11-11.38,17.82-20.77,30.63-25.08Zm9.8,6.62c.02.37.05,1.11.07,1.48,3.9.48,7.87.04,11.76.75-1.92.31-3.84.58-5.76.83-.07,4.1-1.88,9.47,2.32,12.13,0,.76,0,1.53,0,2.31,1.06.7,1.82,2.35,3.22,2.27,1.05-1.3,1.98-2.7,3.02-4.02,1.57.86,3.14,1.71,4.72,2.58,1.14,4.26,4.59,8.29,9.46,7.35,0-3.73-.18-7.66-1.85-11.06-3.52-4.65-6.62-10.39-12.65-12.08.09-.74.2-1.47.31-2.2-4.89.52-9.73-1.48-14.62-.34Z"/>
      <path class="cls-17" d="m301.18,338.09c12.45-8.66,26.97-15.17,42.29-15.87,11.18-1.08,22.6,1.35,32.61,6.36,3.31,1.91,6.82,3.68,9.38,6.6-.41-.02-1.22-.08-1.63-.11,1.55,1.93,2.53,4.2,2.19,6.73.72-.58,1.46-1.15,2.2-1.71-1.28,6.49,2.21,12.63,1.43,19.11-.64,7.64-3.75,15.32-9.64,20.42-16.82,15.3-40.08,21.69-62.46,21.49-2.83.3-6.88-.43-8.4,2.64-1.9,3.7,2.46,6.18,4.33,8.79,2.11,4.06,3.67,8.59,7.24,11.71,4.93,4.17,11.53,5.67,17.81,6.28,7.44-.53,14.83-2.45,21.4-6.01,3.24-1.7,6.26-3.85,9.7-5.16,5.79-1.78,12.28-2.01,17.68,1.12-.78,3.53-.69,7.46-3.01,10.46-6.26,8.86-16.09,14.67-26.36,17.75-14.4,5.06-30.24,6-45.03,2.09-8.13-2.93-15.87-6.91-22.75-12.15-3.4-1.97-6.12-5.52-10.12-6.15-.28.39-.83,1.16-1.11,1.54-3.75-6.96-6.42-14.52-7.62-22.34-2.89-27.43,8.73-55.9,29.87-73.59Zm3.22,8.06c-2.35,1.57-4.2,3.75-6.12,5.79-2.97,3.01-3.23,7.47-4.86,11.19,1.3,1.41,2.63,2.81,3.99,4.19,3.47-2.25,7.9-3.41,10.23-7.09,1.86-2.79,3.62-5.66,5.59-8.38,2.89-2.51,6.86-3.67,9.13-6.87,1.16-1.56,2.63-2.97,3.32-4.81.08-2.74-2.92-3.67-5.14-3.06-6.01,1.74-10.78,6-16.14,9.04Zm72.67.51c-1.19.82-2.49,1.54-3.43,2.65-.77,3.2.23,6.42,1.19,9.47.97,2.62-.04,5.37.05,8.06,1.24,1.63,3.71,1.68,5.54,2.46,1.62-1.8,3.7-3.3,4.76-5.51,1.07-5.03.37-10.27-1.02-15.17-2.42-.49-4.8-1.09-7.09-1.96Zm-37.54,3.47c-6.27,2.33-12.35,5.32-17.73,9.31-3.73,3.35-6.57,7.62-8.86,12.05-1.37,2.5-1.44,4.83-1.09,7.63,3.19-.75,4.8,1.66,5.67,4.34.94-.7,2.08-.43,2.08-1.89,8.45.13,16.82-1.46,25.01-3.44,7.25-1.93,14.64-5.53,18.97-11.88,2.44-4.37-.82-9.42-5.04-11.06-1.27-2.01-3.8-1.52-5.76-2.1-1.78-.81-2.04-3.61-4.26-3.63-3-.45-6.14-.41-8.99.67Z"/>
    </g>
    <path class="cls-31" d="m229.46,326.08c11.14-5.52,25.64-6.16,36.02,1.38-.95,1.59-2.05,3.12-2.66,4.89.1,2.85,1.42,5.54,1.33,8.4-.8,4.09-2.99,8.3-6.93,10.13-7.17,4.46-15.95.56-23.57,3.42-11.85,4.02-19.25,15.17-23.66,26.3-2.1,5.99-2.4,12.4-3.51,18.61-1.91,9.94-1.18,20.15-.27,30.15,1.17,7.65,2.06,15.85-1.16,23.15-2.25,3.94-6.93,5.82-11.1,6.93-3.79-.71-7.74-.92-10.92,1.68-2.84-2.74-4.55-6.41-5.92-10.04-2.11-7.65-3.78-15.42-5.03-23.26-4.93-25.74-9.15-51.64-12.21-77.68-1.04-7.57,1.22-16.04,7.76-20.53,3.86-1.8,8.36-3.77,12.64-2.35,2.46,1.43,7.09,1.92,6.72,5.64-.19,3.19,2.33,5.48,3.26,8.34,1.48,4.79,1.92,9.86,3.67,14.59.85,2.21,3.13,3.33,4.85,4.8,1.77-2.02,2.58-4.52,1.58-7.09.21.02.65.08.87.11,6.54-11.59,15.87-22.14,28.24-27.57Zm8.77,3.59c.66.74,1.34,1.48,2.02,2.23-3.26.8-6.68,1.57-9.43,3.58-1.87,1.94-3.29,4.47-6.01,5.34-.12,2.09-1.16,4.79.56,6.48,3.82,2.45,8.52,3.68,13.01,2.51,5.69-1.34,11.52-.28,17.28-.39,1.62-2.22,3.63-4.38,4.07-7.19-.85-2.95-2.51-5.61-4.23-8.12-4.51-4.67-11.34-3.99-17.27-4.44Z"/>
    <path class="cls-20" d="m262.82,332.35c.61-1.77,1.71-3.3,2.66-4.89,4.88,3.63,8.18,9.62,7.65,15.8-.13,5.56-2.7,10.9-6.75,14.67-5.89,4.59-13.89,4.63-20.85,3.02-5.32-1.6-10.38,1.73-14.45,4.76-10.14,8.97-14.68,22.71-15.34,35.92-1.26,7.18.29,14.36.43,21.55.57,9.33,3.26,18.61,1.91,27.99-.91,6.77-5.54,13.23-12.23,15.26-7.8,3.04-17.06.64-22.82-5.31,3.18-2.6,7.13-2.39,10.92-1.68,4.17-1.11,8.85-2.99,11.1-6.93,3.22-7.3,2.33-15.5,1.16-23.15-.91-10-1.64-20.21.27-30.15,1.11-6.21,1.41-12.62,3.51-18.61,4.41-11.13,11.81-22.28,23.66-26.3,7.62-2.86,16.4,1.04,23.57-3.42,3.94-1.83,6.13-6.04,6.93-10.13.09-2.86-1.23-5.55-1.33-8.4Z"/>
    <g>
      <path class="cls-28" d="m438.97,223.78c8.39-3.62,18.71-1.83,25.38,4.38,3.24,3.75,5.78,8.08,7.33,12.81,7.11-11.68,24.75-14.62,35.57-6.42-1.3,1.01-3.85,1.52-3.66,3.6.24,5.48,1.17,11.38-1.68,16.41-5.3,10.03-15.8,16.23-26.21,19.88-5.9,2.21-12.54,4.54-18.79,2.39-4.09-2.06-7.63-5.08-11.87-6.85.27-.43.56-.85.87-1.26-5.9-4.75-11.44-9.91-17.35-14.64-5.44-10.45-.69-25.58,10.41-30.3Z"/>
      <path class="cls-4" d="m503.59,238.15c-.19-2.08,2.36-2.59,3.66-3.6,5.32,5.04,7.27,12.61,5.96,19.72-1.08,10.06-9.29,17.17-17.01,22.71-7.75,4.87-15.9,9.1-24.34,12.63-3.93,1.69-8.26,4.61-12.64,2.81-3.52-2.37-6.23-5.71-9.33-8.57-8.85-8.44-17.4-17.98-21.33-29.77,5.91,4.73,11.45,9.89,17.35,14.64-.31.41-.6.83-.87,1.26,4.24,1.77,7.78,4.79,11.87,6.85,6.25,2.15,12.89-.18,18.79-2.39,10.41-3.65,20.91-9.85,26.21-19.88,2.85-5.03,1.92-10.93,1.68-16.41Z"/>
      <path class="cls-33" d="m440.45,325.15c6.87-4.42,16.77-4.51,23.01,1.12-.93-.33-1.84-.64-2.75-.93.53,7.28,2.83,14.47,1.82,21.81-1.6,13.2-4.63,26.16-7.51,39.12-1.04,6.42-2.69,12.73-4.71,18.91-1.49,4.33-1.86,8.94-3.36,13.27-2.17,6.81-5.01,13.39-7.08,20.24-1.88,5.65-4.72,11.88-10.6,14.29-3.68,1.8-7.87,1.23-11.77.63-.63.42-1.25.85-1.85,1.28-.35-1.72-.67-3.43-1-5.13-.44-.09-1.34-.27-1.79-.36-.24.71-.74,2.13-.98,2.84-2.78-10.9.18-22.15,1.96-32.98,5.58-24.62,9.32-49.63,15.54-74.12,1.99-7.4,4.79-15.12,11.07-19.99Z"/>
      <path class="cls-34" d="m460.71,325.34c.91.29,1.82.6,2.75.93,4.16,3.08,6.49,8.04,7.45,13.02,1.06,11.77-1.11,23.47-2.94,35.05-5.35,25.03-9.81,50.45-19.07,74.43-1.27,3.58-3.55,6.64-5.75,9.69-.17.02-1.46,1.42-1.62,1.49-2.8,1.19-4.74,1.82-7.9,2.66-3.39.37-5.26.94-10.52.3l-.74-.27c-4.58-2.2-8.13-5.96-10.5-10.4.24-.71.74-2.13.98-2.84.45.09,1.35.27,1.79.36.33,1.7.65,3.41,1,5.13.6-.43,1.22-.86,1.85-1.28,3.9.6,8.09,1.17,11.77-.63,5.88-2.41,8.72-8.64,10.6-14.29,2.07-6.85,4.91-13.43,7.08-20.24,1.5-4.33,1.87-8.94,3.36-13.27,2.02-6.18,3.67-12.49,4.71-18.91,2.88-12.96,5.91-25.92,7.51-39.12,1.01-7.34-1.29-14.53-1.82-21.81Z"/>
      <path class="cls-32" d="m383.83,335.07c.41.03,1.22.09,1.63.11,6.01,5.25,11.43,11.98,12.77,20.07,2.02,9.06.37,19.03-5.24,26.52-3.07,3.81-6.15,7.79-10.43,10.32-10.18,6.92-22.11,10.61-34.02,13.25-11.37,2.47-23.03,3.42-34.64,3.07-.14,1.37-.28,2.75-.42,4.13-1.87-2.61-6.23-5.09-4.33-8.79,1.52-3.07,5.57-2.34,8.4-2.64,22.38.2,45.64-6.19,62.46-21.49,5.89-5.1,9-12.78,9.64-20.42.78-6.48-2.71-12.62-1.43-19.11-.74.56-1.48,1.13-2.2,1.71.34-2.53-.64-4.8-2.19-6.73Z"/>
    </g>
    <path class="cls-7" d="m304.4,346.15c5.36-3.04,10.13-7.3,16.14-9.04,2.22-.61,5.22.32,5.14,3.06-.69,1.84-2.16,3.25-3.32,4.81-2.27,3.2-6.24,4.36-9.13,6.87-1.97,2.72-3.73,5.59-5.59,8.38-2.33,3.68-6.76,4.84-10.23,7.09-1.36-1.38-2.69-2.78-3.99-4.19,1.63-3.72,1.89-8.18,4.86-11.19,1.92-2.04,3.77-4.22,6.12-5.79Z"/>
    <path class="cls-22" d="m377.07,346.66c2.29.87,4.67,1.47,7.09,1.96,1.39,4.9,2.09,10.14,1.02,15.17-1.06,2.21-3.14,3.71-4.76,5.51-1.83-.78-4.3-.83-5.54-2.46-.09-2.69.92-5.44-.05-8.06-.96-3.05-1.96-6.27-1.19-9.47.94-1.11,2.24-1.83,3.43-2.65Z"/>
    <path class="cls-26" d="m339.53,350.13c2.85-1.08,5.99-1.12,8.99-.67,2.18.02,2.25.35,3.95,1.21.06.03,1.74,1.19,1.81,1.21,1.95.54,3.02,1.33,4.27,3.31-9.47-2.47-19.33,1.21-26.79,7.03-6.23,4.67-10.57,11.32-13.78,18.33-.22.47.13,1.02.66,1.02,0,0,.97,0,.98,0,.57,0-.02.66-.36,1.12-.3.4-.75.69-1.21.97-.38.23-.88.07-1.04-.35-.86-2.15-2.29-3.99-4.72-3.77-.39.04-.74-.25-.78-.64-.2-2.56.2-5.13,1.45-7.41,2.28-4.42,5.11-8.67,8.82-12.02.02-.02.05-.04.08-.06,5.37-3.98,11.44-6.96,17.69-9.28Z"/>
    <g>
      <path class="cls-5" d="m142.11,359.44c.37-.11.76-.23,1.15-.37.51-.18.99-.37,1.44-.56.96,1.21,2.73,3.76,3.4,7.46,0,0,1.01,4.21-.58,8.23-2.66,6.73-9.32,10.45-15.55,13.33-8.58,3.43-17.43,6.1-26.33,8.54.31,4.8,1.95,9.36,3.04,14.02,4.71,16.83,9.3,33.75,15.9,49.96,3.12,8.03,6.64,15.9,10.18,23.75,3.35,8.01,2.63,18.49-4.17,24.52-8.55,6.74-21.73,5.72-29.8-1.33-7.64-6.63-12.25-15.88-16.31-24.96,2.86,3.48,8.11,2.85,11.02,6.24,5.07,5.27,10.35,12,18.33,12.25,3.14-.32,6.63-1.83,8.22-4.7,1.34-6.15-1.49-12.09-3.44-17.78-2.58-8.1-6.58-15.66-9.01-23.81-5.26-17.79-9.92-35.78-13.19-54.05-.23-2.96-1.34-6.27.05-9.05,3.98-4.42,10.51-4.24,15.75-6.22,8.93-1.98,17.27-6.04,24.63-11.41,2.2-1.77,4.45-3.76,5.5-6.44.63-2.51,0-5.1-.23-7.62Z"/>
      <path class="cls-5" d="m384.3,430.94c2.32-3,2.23-6.93,3.01-10.46,1.74,1.93,3.77,3.8,4.65,6.34,1.73,6.61-.77,13.65-5.46,18.44-9.77,10.13-23.36,15.51-36.93,18.22-13.33,1.93-27.27,1.41-39.92-3.54-12.98-4.56-23.69-14.22-30.72-25.92.28-.38.83-1.15,1.11-1.54,4,.63,6.72,4.18,10.12,6.15,6.88,5.24,14.62,9.22,22.75,12.15,14.79,3.91,30.63,2.97,45.03-2.09,10.27-3.08,20.1-8.89,26.36-17.75Z"/>
    </g>
  </g>
  <path class="cls-18" d="m.09,386.7c5.33,3.17,10.55,6.87,16.72,8.2,13.97,3.68,28.1-1.57,42.15-1.42.43,2.77.87,5.54,1.32,8.31-1.25.4-2.48.81-3.73,1.19-6.4,1.21-12.9,2.77-19.44,2.74-3.49-.63-7.03-.81-10.56-.57-4.68.36-9.25-1.12-13.92-.74-7.59-1.86-13.16-9.89-12.54-17.71Z"/>
  <path class="cls-18" d="m12.63,404.41c4.67-.38,9.24,1.1,13.92.74,3.53-.24,7.07-.06,10.56.57-3.71,1.37-7.7.7-11.54.89-4.41.16-9.01.07-12.94-2.2Z"/>
</svg>