<?xml version="1.0" encoding="UTF-8"?>
<svg id="Layer_1" data-name="Layer 1" xmlns="http://www.w3.org/2000/svg" viewBox="0 0 854 760.97">
  <defs>
    <style>
      .cls-1 {
        fill: #919b43;
        stroke: #919b43;
      }

      .cls-1, .cls-2, .cls-3, .cls-4, .cls-5, .cls-6, .cls-7, .cls-8, .cls-9, .cls-10, .cls-11, .cls-12, .cls-13, .cls-14, .cls-15, .cls-16, .cls-17, .cls-18, .cls-19, .cls-20, .cls-21, .cls-22, .cls-23, .cls-24, .cls-25, .cls-26, .cls-27, .cls-28, .cls-29, .cls-30, .cls-31, .cls-32, .cls-33, .cls-34, .cls-35, .cls-36, .cls-37, .cls-38, .cls-39, .cls-40, .cls-41, .cls-42, .cls-43, .cls-44, .cls-45, .cls-46, .cls-47, .cls-48, .cls-49, .cls-50, .cls-51, .cls-52, .cls-53, .cls-54, .cls-55, .cls-56, .cls-57, .cls-58, .cls-59, .cls-60, .cls-61, .cls-62, .cls-63, .cls-64, .cls-65, .cls-66, .cls-67, .cls-68, .cls-69, .cls-70, .cls-71, .cls-72, .cls-73, .cls-74, .cls-75, .cls-76, .cls-77, .cls-78, .cls-79, .cls-80, .cls-81, .cls-82, .cls-83, .cls-84, .cls-85, .cls-86, .cls-87, .cls-88, .cls-89, .cls-90, .cls-91, .cls-92, .cls-93, .cls-94, .cls-95, .cls-96, .cls-97, .cls-98, .cls-99, .cls-100, .cls-101, .cls-102, .cls-103, .cls-104, .cls-105, .cls-106, .cls-107, .cls-108, .cls-109, .cls-110, .cls-111, .cls-112, .cls-113, .cls-114, .cls-115, .cls-116, .cls-117, .cls-118, .cls-119, .cls-120, .cls-121, .cls-122, .cls-123, .cls-124, .cls-125, .cls-126, .cls-127, .cls-128, .cls-129, .cls-130, .cls-131, .cls-132, .cls-133, .cls-134, .cls-135, .cls-136, .cls-137, .cls-138, .cls-139, .cls-140, .cls-141, .cls-142, .cls-143, .cls-144, .cls-145, .cls-146, .cls-147, .cls-148, .cls-149, .cls-150 {
        stroke-miterlimit: 10.43;
        stroke-width: .09px;
      }

      .cls-2 {
        fill: #eb7869;
        stroke: #eb7869;
      }

      .cls-3 {
        fill: #fefefc;
        stroke: #fefefc;
      }

      .cls-4 {
        fill: #735721;
        stroke: #735721;
      }

      .cls-5 {
        fill: #f4993e;
        stroke: #f4993e;
      }

      .cls-6 {
        fill: #fef3c0;
        stroke: #fef3c0;
      }

      .cls-7 {
        fill: #6c521f;
        stroke: #6c521f;
      }

      .cls-8 {
        fill: #a8b758;
        stroke: #a8b758;
      }

      .cls-9 {
        fill: #fdba48;
        stroke: #fdba48;
      }

      .cls-10 {
        fill: #f7a74d;
        stroke: #f7a74d;
      }

      .cls-11 {
        fill: #b8c268;
        stroke: #b8c268;
      }

      .cls-12 {
        fill: #b9c56f;
        stroke: #b9c56f;
      }

      .cls-13 {
        fill: #eb7465;
        stroke: #eb7465;
      }

      .cls-14 {
        fill: #8dcdd8;
        stroke: #8dcdd8;
      }

      .cls-15 {
        fill: #dca057;
        stroke: #dca057;
      }

      .cls-16 {
        fill: #f0ba4c;
        stroke: #f0ba4c;
      }

      .cls-17 {
        fill: #eb7161;
        stroke: #eb7161;
      }

      .cls-18 {
        fill: #fff6c9;
        stroke: #fff6c9;
      }

      .cls-19 {
        fill: #fff5c7;
        stroke: #fff5c7;
      }

      .cls-20 {
        fill: #c5d07e;
        stroke: #c5d07e;
      }

      .cls-21 {
        fill: #b0c05d;
        stroke: #b0c05d;
      }

      .cls-22 {
        fill: #f79283;
        stroke: #f79283;
      }

      .cls-23 {
        fill: #a3af61;
        stroke: #a3af61;
      }

      .cls-24 {
        fill: #dec19a;
        stroke: #dec19a;
      }

      .cls-25 {
        fill: #f9b65e;
        stroke: #f9b65e;
      }

      .cls-26 {
        fill: #fdd362;
        stroke: #fdd362;
      }

      .cls-27 {
        fill: #604e43;
        stroke: #604e43;
      }

      .cls-28 {
        fill: #f79a3b;
        stroke: #f79a3b;
      }

      .cls-29 {
        fill: #674e1b;
        stroke: #674e1b;
      }

      .cls-30 {
        fill: #fffad5;
        stroke: #fffad5;
      }

      .cls-31 {
        fill: #fcd56c;
        stroke: #fcd56c;
      }

      .cls-32 {
        fill: #b1c15f;
        stroke: #b1c15f;
      }

      .cls-33 {
        fill: #a9b662;
        stroke: #a9b662;
      }

      .cls-34 {
        fill: #838a40;
        stroke: #838a40;
      }

      .cls-35 {
        fill: #805f44;
        stroke: #805f44;
      }

      .cls-36 {
        fill: #a7b655;
        stroke: #a7b655;
      }

      .cls-37 {
        fill: #b2c160;
        stroke: #b2c160;
      }

      .cls-38 {
        fill: #d3b289;
        stroke: #d3b289;
      }

      .cls-39 {
        fill: #a7b658;
        stroke: #a7b658;
      }

      .cls-40 {
        fill: #a6b152;
        stroke: #a6b152;
      }

      .cls-41 {
        fill: #a7b659;
        stroke: #a7b659;
      }

      .cls-42 {
        fill: #889042;
        stroke: #889042;
      }

      .cls-43 {
        fill: #f7dc86;
        stroke: #f7dc86;
      }

      .cls-44 {
        fill: #a2b150;
        stroke: #a2b150;
      }

      .cls-45 {
        fill: #ce756b;
        stroke: #ce756b;
      }

      .cls-46 {
        fill: #fefefb;
        stroke: #fefefb;
      }

      .cls-47 {
        fill: #9ba852;
        stroke: #9ba852;
      }

      .cls-48 {
        fill: #fcda75;
        stroke: #fcda75;
      }

      .cls-49 {
        fill: #bcc874;
        stroke: #bcc874;
      }

      .cls-50 {
        fill: #9ca951;
        stroke: #9ca951;
      }

      .cls-51 {
        fill: #b4c26c;
        stroke: #b4c26c;
      }

      .cls-52 {
        fill: #f79082;
        stroke: #f79082;
      }

      .cls-53 {
        fill: #f9a34b;
        stroke: #f9a34b;
      }

      .cls-54 {
        fill: #7b6252;
        stroke: #7b6252;
      }

      .cls-55 {
        fill: #b9c770;
        stroke: #b9c770;
      }

      .cls-56 {
        fill: #f88777;
        stroke: #f88777;
      }

      .cls-57 {
        fill: #cb8074;
        stroke: #cb8074;
      }

      .cls-58 {
        fill: #ffe0b6;
        stroke: #ffe0b6;
      }

      .cls-59 {
        fill: #ec7161;
        stroke: #ec7161;
      }

      .cls-60 {
        fill: #b4c269;
        stroke: #b4c269;
      }

      .cls-61 {
        fill: #eaf1b8;
        stroke: #eaf1b8;
      }

      .cls-62 {
        fill: #bbc770;
        stroke: #bbc770;
      }

      .cls-63 {
        fill: #95a149;
        stroke: #95a149;
      }

      .cls-64 {
        fill: #fed97f;
        stroke: #fed97f;
      }

      .cls-65 {
        fill: #b0bd63;
        stroke: #b0bd63;
      }

      .cls-66 {
        fill: #f29a64;
        stroke: #f29a64;
      }

      .cls-67 {
        fill: #bac770;
        stroke: #bac770;
      }

      .cls-68 {
        fill: #b3bf5e;
        stroke: #b3bf5e;
      }

      .cls-69 {
        fill: #82c5d0;
        stroke: #82c5d0;
      }

      .cls-70 {
        fill: #e97567;
        stroke: #e97567;
      }

      .cls-71 {
        fill: #fcce57;
        stroke: #fcce57;
      }

      .cls-72 {
        fill: #b0be5e;
        stroke: #b0be5e;
      }

      .cls-73 {
        fill: #ec7362;
        stroke: #ec7362;
      }

      .cls-74 {
        fill: #feb35d;
        stroke: #feb35d;
      }

      .cls-75 {
        fill: #f79163;
        stroke: #f79163;
      }

      .cls-76 {
        fill: #b2c15f;
        stroke: #b2c15f;
      }

      .cls-77 {
        fill: #f89184;
        stroke: #f89184;
      }

      .cls-78 {
        fill: #bbc872;
        stroke: #bbc872;
      }

      .cls-79 {
        fill: #f5983d;
        stroke: #f5983d;
      }

      .cls-80 {
        fill: #fbeebd;
        stroke: #fbeebd;
      }

      .cls-81 {
        fill: #848e3f;
        stroke: #848e3f;
      }

      .cls-82 {
        fill: #fdfdfc;
        stroke: #fdfdfc;
      }

      .cls-83 {
        fill: #a8b662;
        stroke: #a8b662;
      }

      .cls-84 {
        fill: #fefdfb;
        stroke: #fefdfb;
      }

      .cls-85 {
        fill: #b0be60;
        stroke: #b0be60;
      }

      .cls-86 {
        fill: #a6b45c;
        stroke: #a6b45c;
      }

      .cls-87 {
        fill: #bdca76;
        stroke: #bdca76;
      }

      .cls-88 {
        fill: #bfcc79;
        stroke: #bfcc79;
      }

      .cls-89 {
        fill: #b1bf63;
        stroke: #b1bf63;
      }

      .cls-90 {
        fill: #fcdd7a;
        stroke: #fcdd7a;
      }

      .cls-91 {
        fill: #f9a589;
        stroke: #f9a589;
      }

      .cls-92 {
        fill: #f9a58e;
        stroke: #f9a58e;
      }

      .cls-93 {
        fill: #775b1e;
        stroke: #775b1e;
      }

      .cls-94 {
        fill: #90694b;
        stroke: #90694b;
      }

      .cls-95 {
        fill: #b7c46f;
        stroke: #b7c46f;
      }

      .cls-96 {
        fill: #a5b556;
        stroke: #a5b556;
      }

      .cls-97 {
        fill: #b0bf60;
        stroke: #b0bf60;
      }

      .cls-98 {
        fill: #fff4cf;
        stroke: #fff4cf;
      }

      .cls-99 {
        fill: #a6b557;
        stroke: #a6b557;
      }

      .cls-100 {
        fill: #c0cc78;
        stroke: #c0cc78;
      }

      .cls-101 {
        fill: #8f9b45;
        stroke: #8f9b45;
      }

      .cls-102 {
        fill: #fbbc42;
        stroke: #fbbc42;
      }

      .cls-103 {
        fill: #c0cc7e;
        stroke: #c0cc7e;
      }

      .cls-104 {
        fill: #fed563;
        stroke: #fed563;
      }

      .cls-105 {
        fill: #574842;
        stroke: #574842;
      }

      .cls-106 {
        fill: #a9b563;
        stroke: #a9b563;
      }

      .cls-107 {
        fill: #879041;
        stroke: #879041;
      }

      .cls-108 {
        fill: #84c4cf;
        stroke: #84c4cf;
      }

      .cls-109 {
        fill: #eb7364;
        stroke: #eb7364;
      }

      .cls-110 {
        fill: #becb76;
        stroke: #becb76;
      }

      .cls-111 {
        fill: #a2af5d;
        stroke: #a2af5d;
      }

      .cls-112 {
        fill: #a7b556;
        stroke: #a7b556;
      }

      .cls-113 {
        fill: #a2b058;
        stroke: #a2b058;
      }

      .cls-114 {
        fill: #fbb558;
        stroke: #fbb558;
      }

      .cls-115 {
        fill: #dcc19e;
        stroke: #dcc19e;
      }

      .cls-116 {
        fill: #a9b359;
        stroke: #a9b359;
      }

      .cls-117 {
        fill: #f78979;
        stroke: #f78979;
      }

      .cls-118 {
        fill: #655037;
        stroke: #655037;
      }

      .cls-119 {
        fill: #bbc86f;
        stroke: #bbc86f;
      }

      .cls-120 {
        fill: #a4b35a;
        stroke: #a4b35a;
      }

      .cls-121 {
        fill: #f5965d;
        stroke: #f5965d;
      }

      .cls-122 {
        fill: #f69c63;
        stroke: #f69c63;
      }

      .cls-123 {
        fill: #f69383;
        stroke: #f69383;
      }

      .cls-124 {
        fill: #f9a34c;
        stroke: #f9a34c;
      }

      .cls-125 {
        fill: #a1af59;
        stroke: #a1af59;
      }

      .cls-126 {
        fill: #795849;
        stroke: #795849;
      }

      .cls-127 {
        fill: #fcd86e;
        stroke: #fcd86e;
      }

      .cls-128 {
        fill: #fcd267;
        stroke: #fcd267;
      }

      .cls-129 {
        fill: #faa74a;
        stroke: #faa74a;
      }

      .cls-130 {
        fill: #966031;
        stroke: #966031;
      }

      .cls-131 {
        fill: #a0aa4e;
        stroke: #a0aa4e;
      }

      .cls-132 {
        fill: #fdd66c;
        stroke: #fdd66c;
      }

      .cls-133 {
        fill: #ec7363;
        stroke: #ec7363;
      }

      .cls-134 {
        fill: #c6ce7e;
        stroke: #c6ce7e;
      }

      .cls-135 {
        fill: #f88776;
        stroke: #f88776;
      }

      .cls-136 {
        fill: #f4993c;
        stroke: #f4993c;
      }

      .cls-137 {
        fill: #eb7162;
        stroke: #eb7162;
      }

      .cls-138 {
        fill: #fefefd;
        stroke: #fefefd;
      }

      .cls-139 {
        fill: #9ca64e;
        stroke: #9ca64e;
      }

      .cls-140 {
        fill: #8f9945;
        stroke: #8f9945;
      }

      .cls-141 {
        fill: #9fac51;
        stroke: #9fac51;
      }

      .cls-142 {
        fill: #bbc974;
        stroke: #bbc974;
      }

      .cls-143 {
        fill: #fbd86f;
        stroke: #fbd86f;
      }

      .cls-144 {
        fill: #f98576;
        stroke: #f98576;
      }

      .cls-145 {
        fill: #ec7263;
        stroke: #ec7263;
      }

      .cls-146 {
        fill: #a7b657;
        stroke: #a7b657;
      }

      .cls-147 {
        fill: #fffcd8;
        stroke: #fffcd8;
      }

      .cls-148 {
        fill: #a4b354;
        stroke: #a4b354;
      }

      .cls-149 {
        fill: #bdc76c;
        stroke: #bdc76c;
      }

      .cls-150 {
        fill: #a1ae56;
        stroke: #a1ae56;
      }
    </style>
  </defs>
  <path class="cls-18" d="m356.73.13c3.74-.67,6.76,2.7,8.01,5.86,1.18,3.95-.81,7.79-1.44,11.64-.35,2.12-.99,4.18-1.92,6.12-1.33,2.63-.96,5.67-1.59,8.48-2.04,3.86-7.38,6.31-11.42,4.26-4.63-4.16-1.71-10.69-1.78-15.93.53-5.5-1.31-11.73,2.19-16.54,1.65-2.71,5.08-3.32,7.95-3.89Zm-4,3.14c-2.24,1.74-4.23,4.29-4.01,7.29-.18,7.85-2.05,15.92,0,23.65,1.84.42,3.79,1.5,5.67.56,2.65-.61,2.96-3.6,3.63-5.77,1.52-6.82,4.72-13.33,4.85-20.42.16-2.17-1.09-4.28-2.94-5.36-2.35-.55-4.87-.5-7.2.05Z"/>
  <path class="cls-132" d="m352.73,3.27c2.33-.55,4.85-.6,7.2-.05,1.85,1.08,3.1,3.19,2.94,5.36-.13,7.09-3.33,13.6-4.85,20.42-.67,2.17-.98,5.16-3.63,5.77-1.88.94-3.83-.14-5.67-.56-2.05-7.73-.18-15.8,0-23.65-.22-3,1.77-5.55,4.01-7.29Z"/>
  <path class="cls-127" d="m267.5,15.73c3.31-2.67,8.79-2.1,11.61,1.09,2.65,3.15,4.25,7.01,6.51,10.42,3.88,4.92,8.39,10.11,8.58,16.71-2.19,2.09-5.52,3.03-7.83.54-7.08-6.67-14.01-13.55-20.62-20.7.27-2.71-.74-6.13,1.75-8.06Z"/>
  <path class="cls-31" d="m422.71,37c3.31-2.83,6.69-7.03,11.63-5.85,5.72.5,7.69,8.33,3.2,11.72-7.59,6.08-16.25,10.66-24.1,16.38-2.07-.21-4.77-.21-5.72-2.46-.32-2.24-.55-4.9,1.24-6.62,4.19-4.77,8.82-9.15,13.75-13.17Z"/>
  <path class="cls-14" d="m568.7,46.21c12.05-2.75,26.13-.06,34.51,9.57,4.88,4.71,7.38,11.25,8.63,17.79,8.26-1.61,17.32-3.27,25.11,1.03l-.03.5c-.66,5.47.62,10.93.22,16.39-1.39,4.83-4.38,9.74-9.24,11.7-6.28,3.06-13.02,5.2-19.73,7.05-8.34.24-16.56,1.68-24.87,2.24-8.35,0-16.66,1.77-25.02.83-10.59-1.19-21.34-1.89-31.56-5.15-8.65-2.7-16.04-9.21-20.08-17.27-.19,2.98-.5,5.95-.66,8.93-1.81-7.72.72-15.77,6.13-21.45,4.25-5.64,11.49-7.47,18.17-8.15,4.46-.52,8.76,1.18,13.1,1.94,2.76-7.65,7.11-14.77,13.35-20.06,3.71-2.44,7.72-4.53,11.97-5.89Z"/>
  <path class="cls-104" d="m292.35,65.74c9.15-7.67,20.29-12.87,31.92-15.45,9.31-.92,18.7-.49,28.05-.57,9.53,1.25,19.27,3.26,27.63,8.28,3.38,2.02,6.94,3.79,10.06,6.23l-.18.37c-2.69,3.47.79,7.11,2.6,10.03,2.26,2.45-.16,6.3,2.08,8.7,5.05,5.51,3.96,13.5,3.71,20.34-.51,4.77-.65,9.58-1.4,14.32-1.25,3.85-3.81,7.12-5.56,10.74-2.55,4.86-7.03,8.18-10.94,11.86-2.49,2.48-6.11,3.07-8.97,4.98-5.27,3.72-11.78,4.97-18.03,6-7.98.75-16.05,2.47-24.05.95-4.58-.86-9.13-1.77-13.76-2.27-5.01-.37-8.6-4.53-13.53-5.23-3.35-.46-5.58-3.16-8.38-4.75-5.09-3.02-8.68-7.86-12.4-12.33-.43,1.9-.84,3.8-1.24,5.71-6.23-11.58-7.44-25.35-5.11-38.15,1.34-6.89,4.46-13.23,7.92-19.28,2.29-4.22,6.22-7.16,9.58-10.48Zm30.17-8.57c-2.09-.46-3.24,1.72-4.54,2.92-3.19.59-6.35,1.42-9.27,2.86-3.8,1.59-6.09,5.24-9.36,7.6-2.28,1.48-2.94,4.26-3.48,6.75-.74,2.32,1.93,4.6,4.15,4.05,4.61-.73,6.08-5.96,9.73-8.19,2.61-1.09,5.72-1.2,7.81-3.32,2.15-2.1,5.39-2.3,7.65-4.24,2-1.59,3.78-3.43,5.58-5.24-2.47-1.69-5.38-2.54-8.27-3.19Zm-8.85,27.85c-4.27,1.39-6.15,7.02-3.25,10.55,3.14,4.41,11.68,1.6,11.25-3.91.25-4.05-3.98-8.02-8-6.64Zm53.91,4.02c-2.91,1.65-5.19,5.62-3.53,8.87,1.12,2.86,4.63,3.17,7.24,3.7,3.2-.42,5.72-3.89,5.18-7.05-.22-4.14-4.97-7.56-8.89-5.52Zm-33.6,14.54c2.8,5.13,9.43,4.86,14.15,2.82.06-1.25.08-2.5.08-3.75-3.63-4.33-11.24-4.09-14.23.93Zm-41.28-1.43c-3.46,2.06-6.26,5.93-4.99,10.13,2.46,6.99,12.29,9.07,17.88,4.51,2.85-1.67,3.45-5.3,2.72-8.29-.41-3.12-3.7-4.46-6.14-5.76-2.93-1.13-6.58-2.32-9.47-.59Zm85.86,6.78c-3.57,1.82-6.29,6.21-4.76,10.26,1.09,2.31,2.81,4.86,5.56,5.22,4.46.81,9.89,1.16,13.24-2.52,4.43-4.71.08-13.55-6.21-13.59-2.62-.11-5.28,0-7.83.63Zm-60.56,4.41c-1.13,2.94-.09,6.4,1.69,8.88,3.32,3.98,6.56,8.4,11.46,10.54,5.05,2.63,10.84.86,16.22.71,6.98-1.15,11.55-6.88,15.5-12.23,1.4-2.73.19-5.84-.75-8.52-2.48-.2-5.1-.05-6.9,1.89-4.07,2.68-5.11,8.38-9.88,10.13-2.12,1.07-4.68,2.28-6.92.77-6.42-2.7-9.3-9.4-13.85-14.17-2.19-1.09-5.62-.57-6.57,2Z"/>
  <path class="cls-64" d="m322.52,57.17c2.89.65,5.8,1.5,8.27,3.19-1.8,1.81-3.58,3.65-5.58,5.24-2.26,1.94-5.5,2.14-7.65,4.24-2.09,2.12-5.2,2.23-7.81,3.32-3.65,2.23-5.12,7.46-9.73,8.19-2.22.55-4.89-1.73-4.15-4.05.54-2.49,1.2-5.27,3.48-6.75,3.27-2.36,5.56-6.01,9.36-7.6,2.92-1.44,6.08-2.27,9.27-2.86,1.3-1.2,2.45-3.38,4.54-2.92Z"/>
  <path class="cls-124" d="m711.12,65.04c10.59-5.25,22.82.5,30.52,8.24,10.38,12.97,15.87,29.71,15.18,46.32.34,5.01-.99,9.92-.83,14.91l.02.38c-4.9,5.11-8.25,11.45-12.66,16.97-.03-.55-.1-1.65-.13-2.2.94-2.06,2.24-3.97,3-6.12.31-1.59-1.31-2.36-2.21-3.31-.12,2.11-.38,4.21-.89,6.26-4.99-4.27-11.44-6.12-16.61-10.12-5.33-3.92-11.53-7.09-15.27-12.76-4.15-5.96-8.64-12.24-9.41-19.67-.14-4.12.31-8.22.42-12.33.02-4.48,3.27-7.93,5.25-11.7,1.73-3.55,5.16-5.62,7.87-8.32,1.29-1.1,1.05-3.19.2-4.48-1.39-.9-2.96-1.44-4.45-2.07Zm15.67,12.86c-.36,1.48-.91,2.93-.98,4.47,1.09,3.69,3.83,6.57,5.99,9.68,2.69,3.95,5.84,7.56,8.5,11.54,1.1,1.94,3.46,2.39,5.32,3.35,1.3-1.16,1.77-2.87,1.18-4.52-1.71-5.19-2.88-10.65-5.89-15.28-1.67-3.32-5.29-4.79-7.88-7.24-1.65-1.7-3.99-2.05-6.24-2Zm2.31,38.64c1.28,2.52,4.41,3.13,6.68,4.51,1.56,5.18,4.14,10.08,7.61,14.24,3.63-4.91,1.19-10.95.72-16.4-2.15-3.14-4.33-6.31-4.05-10.35-4.77.08-10.05,3.04-10.96,8Z"/>
  <path class="cls-71" d="m392.43,74.63c-1.81-2.92-5.29-6.56-2.6-10.03,5.15,3.61,9.25,8.42,13.3,13.17,4.28,6.61,7.57,14.04,8.57,21.89.83,7.32.39,14.69-.87,21.93-3.04,16.83-15.58,30.76-30.66,38.2-7.48,2.67-14.84,5.98-22.81,6.87-21.08,2.19-44.13-.28-61.33-13.72-6.36-5.46-12.41-11.65-16.07-19.29.4-1.91.81-3.81,1.24-5.71,3.72,4.47,7.31,9.31,12.4,12.33,2.8,1.59,5.03,4.29,8.38,4.75,4.93.7,8.52,4.86,13.53,5.23,4.63.5,9.18,1.41,13.76,2.27,8,1.52,16.07-.2,24.05-.95,6.25-1.03,12.76-2.28,18.03-6,2.86-1.91,6.48-2.5,8.97-4.98,3.91-3.68,8.39-7,10.94-11.86,1.75-3.62,4.31-6.89,5.56-10.74.75-4.74.89-9.55,1.4-14.32.25-6.84,1.34-14.83-3.71-20.34-2.24-2.4.18-6.25-2.08-8.7Z"/>
  <path class="cls-5" d="m691.55,100.66c-.62-14.18,6.29-28.7,18.73-35.95l.84.33c1.49.63,3.06,1.17,4.45,2.07.85,1.29,1.09,3.38-.2,4.48-2.71,2.7-6.14,4.77-7.87,8.32-1.98,3.77-5.23,7.22-5.25,11.7-.11,4.11-.56,8.21-.42,12.33.77,7.43,5.26,13.71,9.41,19.67,3.74,5.67,9.94,8.84,15.27,12.76,5.17,4,11.62,5.85,16.61,10.12.51-2.05.77-4.15.89-6.26.9.95,2.52,1.72,2.21,3.31-.76,2.15-2.06,4.06-3,6.12-8.72-1.85-17.06-5.15-24.86-9.4-3.57-1.48-6.87-3.49-9.82-5.96-10.05-8.08-17.61-20.41-16.99-33.64Z"/>
  <path class="cls-80" d="m280.11,77.16c.41-1.17,1.69-.94,2.66-.94-3.46,6.05-6.58,12.39-7.92,19.28-2.33,12.8-1.12,26.57,5.11,38.15,3.66,7.64,9.71,13.83,16.07,19.29,17.2,13.44,40.25,15.91,61.33,13.72,7.97-.89,15.33-4.2,22.81-6.87-.5,2.01-2.67,2.49-4.26,3.28-15.14,6.32-32.09,7.11-48.18,4.86-3.2-.83-6.41-1.63-9.66-2.18-3.96-1.18-7.65-3.1-11.6-4.3-3.41-.92-5.69-3.79-8.74-5.38-6-3.04-9.83-8.82-14.14-13.76-3.56-3.89-5.2-8.94-7.35-13.63-5.65-10.61-4.56-23.15-3.19-34.65,1.99-5.76,3.91-11.61,7.06-16.87Z"/>
  <path class="cls-69" d="m637.14,91.49c.4-5.46-.88-10.92-.22-16.39,8.43,4.21,13.44,14.24,11.68,23.51-1.1,5.67-3.67,11.36-8.25,15.06-8.2,7.28-19.55,9.18-30.07,10.37-23.02.67-46.16,1.55-69.04-1.6-8.53-.81-17.1-2.81-24.51-7.25-5.49-3.37-9.34-9.12-10.75-15.37.16-2.98.47-5.95.66-8.93,4.04,8.06,11.43,14.57,20.08,17.27,10.22,3.26,20.97,3.96,31.56,5.15,8.36.94,16.67-.84,25.02-.83,8.31-.56,16.53-2,24.87-2.24,6.71-1.85,13.45-3.99,19.73-7.05,4.86-1.96,7.85-6.87,9.24-11.7Z"/>
  <path class="cls-25" d="m726.79,77.9c2.25-.05,4.59.3,6.24,2,2.59,2.45,6.21,3.92,7.88,7.24,3.01,4.63,4.18,10.09,5.89,15.28.59,1.65.12,3.36-1.18,4.52-1.86-.96-4.22-1.41-5.32-3.35-2.66-3.98-5.81-7.59-8.5-11.54-2.16-3.11-4.9-5.99-5.99-9.68.07-1.54.62-2.99.98-4.47Z"/>
  <path class="cls-143" d="m219.71,81.16c3.54-.13,7.12-.29,10.61.46,8.52,1.54,17.32,2.34,25.38,5.68.49,1.65,1.78,3.45.54,5.1-1.79,3.09-5.85,2.82-8.93,2.77-7.68-.36-15.36,0-23.04-.17-3.62-.35-8.64-1.88-8.5-6.39-.69-3.23,1.82-5.5,3.94-7.45Z"/>
  <path class="cls-7" d="m313.67,85.02c4.02-1.38,8.25,2.59,8,6.64.43,5.51-8.11,8.32-11.25,3.91-2.9-3.53-1.02-9.16,3.25-10.55Zm-.85,3.01c-1.62,1.86-2.08,5.4.29,6.88,1.88,1.32,4.11.15,6-.52-.27-2.48-.71-4.93-1.25-7.36-1.7,0-3.83-.57-5.04,1Z"/>
  <path class="cls-105" d="m312.82,88.03c1.21-1.57,3.34-.99,5.04-1,.54,2.43.98,4.88,1.25,7.36-1.89.67-4.12,1.84-6,.52-2.37-1.48-1.91-5.02-.29-6.88Z"/>
  <path class="cls-4" d="m367.58,89.04c3.92-2.04,8.67,1.38,8.89,5.52.54,3.16-1.98,6.63-5.18,7.05-2.61-.53-6.12-.84-7.24-3.7-1.66-3.25.62-7.22,3.53-8.87Zm1.18,2.11c-1.26.61-2.32,1.61-3.03,2.8-1.22,4.19,5.33,7.76,7.87,3.89,2.78-3.03-1.07-8.96-4.84-6.69Z"/>
  <path class="cls-27" d="m368.76,91.15c3.77-2.27,7.62,3.66,4.84,6.69-2.54,3.87-9.09.3-7.87-3.89.71-1.19,1.77-2.19,3.03-2.8Z"/>
  <path class="cls-16" d="m333.98,103.58c2.99-5.02,10.6-5.26,14.23-.93,0,1.25-.02,2.5-.08,3.75-4.72,2.04-11.35,2.31-14.15-2.82Z"/>
  <path class="cls-54" d="m769.18,100.72c.52-.4,1.54-1.2,2.05-1.6,1.34,0,2.68.11,4.03.33,1.29,1.03,1.19,2.81,1.57,4.27-.98.6-1.95,1.2-2.91,1.8-.21,6.71.11,14.02-3.42,20-.64.67-1.3,1.32-1.96,1.95l-1.92-.28c2.15-7.54,5.46-15.87,2.48-23.59l.08-2.88Z"/>
  <path class="cls-91" d="m292.7,102.15c2.89-1.73,6.54-.54,9.47.59,2.44,1.3,5.73,2.64,6.14,5.76.73,2.99.13,6.62-2.72,8.29-5.59,4.56-15.42,2.48-17.88-4.51-1.27-4.2,1.53-8.07,4.99-10.13Z"/>
  <path class="cls-128" d="m433.15,107.16c7.98-1.53,16.13-.64,24.2-1,3.87.08,8.79-.14,11.35,3.34.28,3.11,1.42,7.95-2.44,9.28-6.25,1.44-12.7.16-18.9-.98-5.6-1.38-12.51-.16-16.75-4.83.02-.91.06-2.74.07-3.65.82-.73,1.64-1.45,2.47-2.16Z"/>
  <path class="cls-92" d="m378.56,108.93c2.55-.63,5.21-.74,7.83-.63,6.29.04,10.64,8.88,6.21,13.59-3.35,3.68-8.78,3.33-13.24,2.52-2.75-.36-4.47-2.91-5.56-5.22-1.53-4.05,1.19-8.44,4.76-10.26Z"/>
  <path class="cls-75" d="m729.1,116.54c.91-4.96,6.19-7.92,10.96-8-.28,4.04,1.9,7.21,4.05,10.35.47,5.45,2.91,11.49-.72,16.4-3.47-4.16-6.05-9.06-7.61-14.24-2.27-1.38-5.4-1.99-6.68-4.51Z"/>
  <path class="cls-43" d="m318,113.34c.95-2.57,4.38-3.09,6.57-2,4.55,4.77,7.43,11.47,13.85,14.17,2.24,1.51,4.8.3,6.92-.77,4.77-1.75,5.81-7.45,9.88-10.13,1.8-1.94,4.42-2.09,6.9-1.89.94,2.68,2.15,5.79.75,8.52-3.95,5.35-8.52,11.08-15.5,12.23-5.38.15-11.17,1.92-16.22-.71-4.9-2.14-8.14-6.56-11.46-10.54-1.78-2.48-2.82-5.94-1.69-8.88Zm1.91,4.47c1.77,3.75,3.84,7.47,7.05,10.2,9.25,8.08,24.96,5.71,31.81-4.37v-.36c1.74-2.47,3.59-5.15,3.38-8.31-1.28-.51-2.6-.77-3.93-.77-1.27.94-1.81,2.47-2.56,3.78l-.07.02c-1.92,2.39-3.81,4.87-6.22,6.79-5.26,4.12-13.57,3.86-18.24-1.05-2.56-2.68-5.41-5.56-5.81-9.44l-1.08.03,1.22-.34c-.54-.49-1.61-1.46-2.15-1.95-3.75-.87-4.43,3.11-3.4,5.77Z"/>
  <path class="cls-93" d="m319.91,117.81c-1.03-2.66-.35-6.64,3.4-5.77.54.49,1.61,1.46,2.15,1.95l-1.22.34c-.62.15-1.87.46-2.49.61-.62.95-1.23,1.91-1.84,2.87Z"/>
  <path class="cls-118" d="m321.75,114.94c.62-.15,1.87-.46,2.49-.61l1.08-.03c.4,3.88,3.25,6.76,5.81,9.44,4.67,4.91,12.98,5.17,18.24,1.05,2.41-1.92,4.3-4.4,6.22-6.79l.07-.02c1.5-.35,2.99-.72,4.49-1.1-.78,2.05-1.49,4.17-1.37,6.4v.36c-6.86,10.08-22.57,12.45-31.82,4.37-3.21-2.73-5.28-6.45-7.05-10.2.61-.96,1.22-1.92,1.84-2.87Z"/>
  <path class="cls-29" d="m355.66,117.98c.75-1.31,1.29-2.84,2.56-3.78,1.33,0,2.65.26,3.93.77.21,3.16-1.64,5.84-3.37,8.31-.12-2.23.59-4.35,1.37-6.4-1.5.38-2.99.75-4.49,1.1Z"/>
  <path class="cls-126" d="m790.38,116.89c1.36-2.47,3.87-3.09,6.37-1.86.25.7.74,2.08.99,2.78-.71,1.05-1.1,2.38-2.14,3.15-2.33.6-4.71-.98-7.01-.02-5.96,1.79-11.45,4.9-16.48,8.53-.25-.62-.75-1.88-1-2.5,4.83-5.69,12.31-8.11,19.27-10.08Z"/>
  <path class="cls-94" d="m768.54,127.47c.66-.63,1.32-1.28,1.96-1.95.15.36.46,1.09.61,1.45.25.62.75,1.88,1,2.5,1.97,4.94-1.45,9.89-4.13,13.82l-.33.11c-.22-.34-.67-1.03-.89-1.37-1.95,1.24-4.52,2.18-5.26,4.59-.96,2.61-1.96,5.27-3.84,7.38-4.14,4.85-7.62,10.24-12.1,14.8-.49-1.12-.96-2.22-1.43-3.33-1.02,1.22-2.03,2.44-3.02,3.68-2.39-.73-4.71-1.7-6.93-2.82.61-.7,1.25-1.39,1.91-2.06-.01-.64-.02-1.93-.02-2.58.36-.32,1.09-.96,1.45-1.29,2.33-2.55,3.97-5.63,5.83-8.54,4.41-5.52,7.76-11.86,12.66-16.97l-.02-.38c3.34-2.5,5.88-7.86,10.63-7.32l1.92.28Z"/>
  <path class="cls-53" d="m780.07,137.51c5.54-2.23,11.25-4.56,17.33-4.64,4.64-.17,9.3-.16,13.95-.16,10.18-.45,20.87,4.19,27.01,12.41-.4.67-1.2,2-1.6,2.67-.84-1.44-1.69-2.89-2.51-4.32-3.5,3.72-1.02,8.69-1.01,13.09-1.33,5.23-3.55,10.59-7.91,14.03-7.36,6.89-17.94,10.68-27.97,8.79-7.31-1.14-14.55-3.58-20.37-8.28-6.08-3.53-11.19-8.35-16.66-12.7,1.22-1.7,1.99-3.95,3.87-5.04,1.52-.95,3.09.2,4.53.75,3.39,1.76,7.32,1.4,10.96,2.26-3.04.19-6.1.26-9.09.8-1.65.33-1.62,2.7-.83,3.79,4.02,2.88,9.31,4.47,14.21,3.28,2.18-.5,1.77-3.05,1.91-4.72,1.66.86,3.81,2.81,5.67,1.33,1.69-1.64,3.32-3.75,3.57-6.16-.56-2.27-2-4.6-4.17-5.59-4.14-.77-8.38-.86-12.57-.93-3.17-.06-6.23,1.16-9.37.95-1.27-.61-2.11-1.82-3.13-2.72.59-.99,1.18-1.99,1.76-3l.33-.11c4.39-1.07,7.93-4.09,12.09-5.78Zm6.6,5.54c-.09.57-.28,1.71-.38,2.28,4.33.49,8.64,1.15,13.01,1.3,7.39.63,14.8,1.89,22.25,1.49-.36-1.93-.3-4.4-2.25-5.49-3.66-2.17-7.65-4.23-12.01-4.27-7.13-.08-14.11,1.92-20.62,4.69Z"/>
  <path class="cls-98" d="m708.54,134.3c2.95,2.47,6.25,4.48,9.82,5.96-6.7-.26-13.44-1.52-20.12-.45,2.17-3.36,6.37-2.65,9.59-1.52.22-1.34.46-2.67.71-3.99Z"/>
  <path class="cls-147" d="m260.57,136.13c5.42-.11,9.53,6.64,6.66,11.33-.82,1.66-2.73,2.02-4.26,2.68-4.08,1.29-6.89,5.8-11.61,4.95-3.2.44-5.32-2.72-5.75-5.5.83-2.96,2.39-6.06,5.4-7.28,3.76-1.41,4.94-6.68,9.56-6.18Zm-1.94,3.77c-4.21,1.98-9.43,4.93-10.04,10-.66,2.9,3.1,5.3,5.49,3.48,4.41-2.43,8.92-5.4,11.58-9.8-.07-3.57-4.04-5.66-7.03-3.68Z"/>
  <path class="cls-114" d="m786.67,143.05c6.51-2.77,13.49-4.77,20.62-4.69,4.36.04,8.35,2.1,12.01,4.27,1.95,1.09,1.89,3.56,2.25,5.49-7.45.4-14.86-.86-22.25-1.49-4.37-.15-8.68-.81-13.01-1.3.1-.57.29-1.71.38-2.28Z"/>
  <path class="cls-48" d="m258.63,139.9c2.99-1.98,6.96.11,7.03,3.68-2.66,4.4-7.17,7.37-11.58,9.8-2.39,1.82-6.15-.58-5.49-3.48.61-5.07,5.83-8.02,10.04-10Z"/>
  <path class="cls-10" d="m698.24,139.81c6.68-1.07,13.42.19,20.12.45,7.8,4.25,16.14,7.55,24.86,9.4.03.55.1,1.65.13,2.2-1.86,2.91-3.5,5.99-5.83,8.54-2.21-1.59-4.82-2.36-7.51-2.54.68-.72,1.37-1.43,2.07-2.14-.63-.1-1.87-.3-2.49-.4.33-1.37-.09-2.9-1.61-3.3-3.28-.69-6.67-.23-9.96.12.64-1.37,2.33-2.9,1.31-4.47-1.6-1.39-3.85-1.99-5.75-.87-4.44,2.08-10.03,2.63-13.06,6.91-1.62,1.88-2.96,4.8-1.31,7.08,1.72,1.9,4.2,3.85,6.93,3.46,2-1.04,3.58-2.75,5-4.48,1.58,1.45,3.65,2.27,5.76,1.37,4.09-1.1,7.97-2.86,11.92-4.39-.64,1.12-.98,2.43-1.82,3.42-9.45,7.11-22.86,9.84-33.77,4.48-2.86-1.02-4.27-3.88-5.98-6.15.81-4.42,3.57-7.96,5.78-11.74-2.5-2.51-6.39.45-9.38.59,3.47-4.51,8.84-7.47,14.59-7.54Z"/>
  <path class="cls-130" d="m766.76,142.03c.22.34.67,1.03.89,1.37-.58,1.01-1.17,2.01-1.76,3-4.78,6.75-9.99,13.19-14.61,20.03-1.77,1.76-3.42,3.61-5.01,5.5-.48.52-1.45,1.54-1.93,2.06.33-1.75.64-3.51,1.22-5.19,4.48-4.56,7.96-9.95,12.1-14.8,1.88-2.11,2.88-4.77,3.84-7.38.74-2.41,3.31-3.35,5.26-4.59Z"/>
  <path class="cls-79" d="m833.24,156.56c-.01-4.4-2.49-9.37,1.01-13.09.82,1.43,1.67,2.88,2.51,4.32.4-.67,1.2-2,1.6-2.67,3.72,5.58,5.46,12.92,3.1,19.38-4.87,15.34-20.18,26.2-36.09,26.71-8.83-.08-17.93-2.82-24.86-8.4-3.32-3.2-8.4-4.36-10.59-8.7-2.91-5.32-8.61-8.75-10.11-14.88l.52-.83c5.47,4.35,10.58,9.17,16.66,12.7,5.82,4.7,13.06,7.14,20.37,8.28,10.03,1.89,20.61-1.9,27.97-8.79,4.36-3.44,6.58-8.8,7.91-14.03Z"/>
  <path class="cls-136" d="m683.65,147.35c2.99-.14,6.88-3.1,9.38-.59-2.21,3.78-4.97,7.32-5.78,11.74,1.71,2.27,3.12,5.13,5.98,6.15,10.91,5.36,24.32,2.63,33.77-4.48.84-.99,1.18-2.3,1.82-3.42.19-.35.58-1.07.77-1.43.62.1,1.86.3,2.49.4-.7.71-1.39,1.42-2.07,2.14,2.69.18,5.3.95,7.51,2.54-.36.33-1.09.97-1.45,1.29-1.08.86-1.05,2.56-2.26,3.29-6.92,4.66-14.57,8.35-22.65,10.43l-.8.53c-5.03.34-10.12.77-15.12-.09-7.18-2.41-14.22-8.17-14.81-16.21-.9-4.28,1.04-8.38,2.75-12.17l.47-.12Z"/>
  <path class="cls-66" d="m713.58,146.8c1.9-1.12,4.15-.52,5.75.87,1.02,1.57-.67,3.1-1.31,4.47-3.05,1.77-5.3,4.51-6.88,7.63-1.42,1.73-3,3.44-5,4.48-2.73.39-5.21-1.56-6.93-3.46-1.65-2.28-.31-5.2,1.31-7.08,3.03-4.28,8.62-4.83,13.06-6.91Z"/>
  <path class="cls-121" d="m751.28,166.43c4.62-6.84,9.83-13.28,14.61-20.03,1.02.9,1.86,2.11,3.13,2.72,3.14.21,6.2-1.01,9.37-.95,4.19.07,8.43.16,12.57.93,2.17.99,3.61,3.32,4.17,5.59-.25,2.41-1.88,4.52-3.57,6.16-1.86,1.48-4.01-.47-5.67-1.33-1.98-1.2-3.91-2.62-6.2-3.15-3.64-.86-7.57-.5-10.96-2.26-1.44-.55-3.01-1.7-4.53-.75-1.88,1.09-2.65,3.34-3.87,5.04l-.52.83c-2.64,2.63-4.93,5.84-8.53,7.2Z"/>
  <path class="cls-102" d="m718.02,152.14c3.29-.35,6.68-.81,9.96-.12,1.52.4,1.94,1.93,1.61,3.3-.19.36-.58,1.08-.77,1.43-3.95,1.53-7.83,3.29-11.92,4.39-2.11.9-4.18.08-5.76-1.37,1.58-3.12,3.83-5.86,6.88-7.63Z"/>
  <path class="cls-21" d="m186.22,168.5c3-5.99,8.02-12,15.05-12.95,5.4-1.18,11.07,1.19,14.53,5.38-.62,0-1.85.01-2.46.01-2.52,3.3-.47,7.22-.22,10.86.43,11.02-2.38,21.81-2.76,32.78-.49,4.69-1.08,9.38-.98,14.11.07,15.63-.83,31.32.85,46.9.68,6.49-1.07,13.96,3.65,19.33,1.82-1.71,3.7-3.37,5.62-4.97.02-1.28.05-2.55.09-3.81.34.04,1.04.11,1.38.14,4.97-6.91,11.41-12.56,17.32-18.65,5.4-5.67,11.76-10.28,18.17-14.75,9.13-5.58,20.77-10.59,31.21-5.36-1.18.66-2.34,1.32-3.5,1.98,1.05,1.42,2.11,2.84,3.17,4.26-1.43-.66-2.84-1.32-4.25-1.98-2.08,2.53.3,5.51-.18,8.28-.61,2.07-3.18,1.02-4.72,1.16-.06.94-.12,1.88-.17,2.82-.42.06-1.25.16-1.67.22.48,1.09.97,2.19,1.47,3.3-.75.88-1.48,1.76-2.22,2.65-.33-.32-.99-.95-1.32-1.27-3.57,5-8.6,8.7-13.87,11.72-5.66,2.82-8.8,8.57-13.28,12.77-3.57,3.26-6.05,7.55-9.86,10.55.14,1.27.3,2.53.46,3.8.79.42,1.58.85,2.38,1.28-1.04.97-2.08,1.93-3.11,2.91,2.55,4.31,6.62,7.34,10.06,10.9,1.95,1.7,3.81,4.08,6.55,4.4,2.47.1,2.73-3.01,3.55-4.71,7.95,5.99,16.94,10.47,26.08,14.32,6.49,2.89,14.01,2.99,20.03,6.98,3.27,2.08,6.51,4.88,7.41,8.83.46,3.66.61,7.68-1.49,10.9.75-3.22.95-6.53,1.08-9.82-.53.75-1.05,1.5-1.56,2.26-6.29,2.44-12.6,4.86-19.01,6.97-4.83,1.74-9.87.02-14.61-1.1-9.49-2.05-17.9-7.14-26.29-11.8-6.63-3.4-12.01-8.68-18.13-12.83-1.15-.93-2.61-.91-3.98-.64-2.17-2.04-4.44-4.11-7.3-5.11-1.07.71-1.79,1.85-1.88,3.14-.73,5.7-.18,11.46.5,17.13.56,4.59-.13,9.34,1.3,13.82,1.41,4.6,1.47,9.56.34,14.23-.87,3.66-3.91,6.29-6.98,8.2-3.6,2.38-8.05,1.14-12.03.85.06.8.14,1.62.22,2.43-.48.35-1.43,1.04-1.91,1.38-6.23-6.02-9.39-14.45-11.06-22.79-6.13-24.64-8.75-50-10.39-75.27-.86-7.31-.77-14.68-.84-22.02-.77-6.3-.62-12.65-.61-18.98.06-5.69-.3-11.4.44-17.06.22-10.36.89-20.74,2.62-30.96,1.41-9.23,3.06-18.62,7.11-27.12Z"/>
  <path class="cls-90" d="m407.88,158.37c1.7-1.44,3.9-1.82,6.08-1.51,3.03,2.03,6.87,3.91,7.76,7.79.19,2.09-1.01,3.97-1.65,5.89-6.72-.19-9.78-6.9-12.19-12.17Z"/>
  <path class="cls-6" d="m413.96,156.86c3.36.41,6.37,2.17,9.08,4.11,3.11,2.9,1.86,8.75-2.04,10.26-4.08,1.15-7.76-1.29-11.08-3.27-.91-3.12-2.99-6.24-2.04-9.59,2.41,5.27,5.47,11.98,12.19,12.17.64-1.92,1.84-3.8,1.65-5.89-.89-3.88-4.73-5.76-7.76-7.79Z"/>
  <path class="cls-9" d="m770.6,157.17c2.99-.54,6.05-.61,9.09-.8,2.29.53,4.22,1.95,6.2,3.15-.14,1.67.27,4.22-1.91,4.72-4.9,1.19-10.19-.4-14.21-3.28-.79-1.09-.82-3.46.83-3.79Z"/>
  <path class="cls-129" d="m751.28,166.43c3.6-1.36,5.89-4.57,8.53-7.2,1.5,6.13,7.2,9.56,10.11,14.88,2.19,4.34,7.27,5.5,10.59,8.7-.51.09-1.54.28-2.06.37,3.63,4.74,4.99,10.66,6.04,16.42.69,3.45-.37,6.86-1.36,10.14-.66-1.45-1.29-2.89-1.9-4.35,1.93-3.15.03-6.53-2.28-8.83-.91,4.88-3.45,9.18-5.36,13.7-3.39-2.37-7.51-.57-11.23-1.5-5.36-.9-7.98-6.19-11.17-9.97-2.05-4.97-2.52-10.76-.75-15.9.91-2.81.27-5.77.52-8.65.85-.86,1.84-1.58,2.81-2.33-.22-1.03-.43-2.06-.61-3.07-2.36,1.74-4.78,3.42-7.29,4.93l.4-1.84c1.59-1.89,3.24-3.74,5.01-5.5Zm9.06,30.11c.35,1.76,2.21,2.3,3.77,2.54,1.08.46,2.19.94,3.29,1.43,1.59,2.42,4.74,3.81,7.49,2.61,4.45-3.99,1.39-10.8-2.57-13.92-.92,1.14-2.17,2.14-2.5,3.65-.65-3.53-2.06-6.93-4.35-9.7-3.8,3.14-7.19,8.36-5.13,13.39Z"/>
  <path class="cls-44" d="m213.34,160.94c.61,0,1.84-.01,2.46-.01,6.99,10.92,4.2,24.48,3.91,36.67-1.45,13.62-.84,27.33-.97,41-.1,12.52.28,25.05.85,37.54-.04,1.26-.07,2.53-.09,3.81-1.92,1.6-3.8,3.26-5.62,4.97-4.72-5.37-2.97-12.84-3.65-19.33-1.68-15.58-.78-31.27-.85-46.9-.1-4.73.49-9.42.98-14.11.38-10.97,3.19-21.76,2.76-32.78-.25-3.64-2.3-7.56.22-10.86Z"/>
  <path class="cls-97" d="m524.36,166.6c7.71-3.49,17.06-2.13,24.03,2.49-1.26.6-2.5,1.21-3.75,1.82,1.92,6.19,3.19,12.85,1.1,19.2-3.11,6.29-10.15,11.24-17.39,9.7-4.59-.18-8.5-2.64-11.84-5.58-.5.5-1.51,1.51-2.02,2.01l-.33.32c-4.56-10.58-.7-24.96,10.2-29.96Z"/>
  <path class="cls-35" d="m741.11,169.15c.99-1.24,2-2.46,3.02-3.68.47,1.11.94,2.21,1.43,3.33-.58,1.68-.89,3.44-1.22,5.19-.61.7-1.19,1.42-1.79,2.11-4.31,3.7-8.24,9.22-14.5,9.1-3.55-6.89,3.28-13.05,6.13-18.87,2.22,1.12,4.54,2.09,6.93,2.82Z"/>
  <path class="cls-14" d="m106.49,172.31c5.09-6.71,16.18-8.17,23.01-3.01-.43.04-1.29.13-1.72.18,1.69,3.99,2.43,8.52,1.17,12.74-2.14,4.85-6.22,9.36-11.74,10.04-4.96.05-10.62-2.4-11.96-7.6-1.83-4.09.29-8.34,1.24-12.35Z"/>
  <path class="cls-28" d="m745.87,173.77c2.51-1.51,4.93-3.19,7.29-4.93.18,1.01.39,2.04.61,3.07-.97.75-1.96,1.47-2.81,2.33-.25,2.88.39,5.84-.52,8.65-1.77,5.14-1.3,10.93.75,15.9,3.19,3.78,5.81,9.07,11.17,9.97,3.72.93,7.84-.87,11.23,1.5,1.91-4.52,4.45-8.82,5.36-13.7,2.31,2.3,4.21,5.68,2.28,8.83.61,1.46,1.24,2.9,1.9,4.35-3.28,4.49-8.08,8.53-13.92,8.56-4.8.13-10.13.56-14.23-2.41-2.21-1.58-4.45-3.23-6.08-5.42-7.44-10.74-6.24-24.7-3.03-36.7Z"/>
  <path class="cls-69" d="m127.78,169.48c.43-.05,1.29-.14,1.72-.18,3.13,1.63,4.77,5.12,6.04,8.27,4.03,10.33-5.05,23.38-16.24,22.66-6.35.28-12.9-2.92-15.98-8.58-2.81-4.39-2.47-10.05-.55-14.71.78-1.85,1.67-3.9,3.72-4.63-.95,4.01-3.07,8.26-1.24,12.35,1.34,5.2,7,7.65,11.96,7.6,5.52-.68,9.6-5.19,11.74-10.04,1.26-4.22.52-8.75-1.17-12.74Z"/>
  <path class="cls-120" d="m544.64,170.91c1.25-.61,2.49-1.22,3.75-1.82,10.35,8.11,10.27,25.52.5,34.07-4.34,3.54-9.76,6.52-15.55,5.96-8.09-.15-15.78-5.39-18.85-12.88.51-.5,1.52-1.51,2.02-2.01,3.34,2.94,7.25,5.4,11.84,5.58,7.24,1.54,14.28-3.41,17.39-9.7,2.09-6.35.82-13.01-1.1-19.2Z"/>
  <path class="cls-58" d="m744.34,173.99c.48-.52,1.45-1.54,1.93-2.06l-.4,1.84c-3.21,12-4.41,25.96,3.03,36.7-2.36-.91-4.15-2.91-4.96-5.27-1.74-6.01-2.85-12.34-1.83-18.58.34-3.49,1.97-7.1.44-10.52.6-.69,1.18-1.41,1.79-2.11Z"/>
  <path class="cls-122" d="m760.34,196.54c-2.06-5.03,1.33-10.25,5.13-13.39,2.29,2.77,3.7,6.17,4.35,9.7-.18,3.39-2.6,5.42-5.71,6.23-1.56-.24-3.42-.78-3.77-2.54Z"/>
  <path class="cls-74" d="m769.82,192.85c.33-1.51,1.58-2.51,2.5-3.65,3.96,3.12,7.02,9.93,2.57,13.92-2.75,1.2-5.9-.19-7.49-2.61-1.1-.49-2.21-.97-3.29-1.43,3.11-.81,5.53-2.84,5.71-6.23Z"/>
  <g>
    <path class="cls-76" d="m321.6,202.89c4.67-7.47,14.87-9.81,22.84-6.73-.5.27-1.48.82-1.97,1.09.82.93,1.66,1.86,2.5,2.8-1.01.59-2,1.19-2.99,1.8,1.45.22,2.91.44,4.38.67-.91.59-1.79,1.19-2.68,1.79.58.2,1.76.6,2.34.81.49,5.3,1.04,10.59,1.84,15.86.86,5.11-1.12,10.21-.12,15.32,1.01,5.43-.7,10.82-.52,16.26.21,9.03-.53,18.1.82,27.07.23,10.71,1.49,21.34,2.3,32.01.36,5.03,2.2,9.84,2.1,14.93.32,5.36.89,11.77-3.37,15.86-4.09,3.02-9.88,3.9-14.65,2.04-1.66-.56-3.36-1.01-5.09-1.27l-.35-.07c-3.55-6.01-4.76-12.95-6.42-19.62-6.14-32.58-7.68-65.85-6.59-98.95.4-7.49,1.86-15.1,5.63-21.67Z"/>
    <path class="cls-76" d="m586.21,222.24c4.73-1.51,9.89-1.34,14.59.2l.06.3c1.75,11.46,4.79,23.81.11,34.97,2.49,2.33,5.78,3.04,9.08,2.53.12-.53.34-1.59.45-2.11,2.87-5.36,7.97-8.89,12.22-13.06,11.95-10.22,27.56-17.42,43.58-15.85,7.66.85,15.21,3.73,21.32,8.48-.47.13-1.42.39-1.9.52-.51,1.04-1,2.09-1.48,3.14-1.28-1-2.45-2.21-3.96-2.83-1.63-.19-3.17.52-4.71.86,1.61,1.12,3.28,2.18,4.97,3.22.26.51.8,1.54,1.07,2.06-3.21-1.05-7.24-3.35-9.95-.1,1.1.28,2.23.56,3.36.83.23,1.26.46,2.53.72,3.8,6.48,4.35,6.86,13.04,10.78,19.16,1.07,1.6,3.31,1.39,4.28-.18.62-2.6.61-5.3.71-7.96,2.9,5.72,1.47,12.27,1.74,18.4.51,17.49-2.74,35.14-9.77,51.17-2.13,5.79-5.36,11.12-9.03,16.05-3.7,5.24-11.28,6.05-16.96,4.02.2,1.24.41,2.49.64,3.75-1.76-2.21-3.64-4.31-5.72-6.2l-.59-.55c-.65-10.36,3.56-20.01,5.97-29.87,2.86-11.24,5.52-22.72,5.29-34.39.04-4.77.04-9.94-2.65-14.09-2.52-3.49-7-4.9-11.14-4.13.91-.47,1.84-.93,2.77-1.4-1.15-1.39-1.94-3.6-3.95-3.83-10.81,2.08-19.69,9.41-26.39,17.83-7.85,7.06-11.95,16.99-17.06,26-3.01,4.89-4.16,10.69-7.52,15.4-3.55,5.82-6.6,13.47-13.9,15.27-4.85,1.83-9.89-.22-14.29-2.27-1.26.28-2.52.56-3.76.86-1.75-4.67-1.36-9.73-1.11-14.6,2.25-20.04,4.8-40.05,7.36-60.06.75-7.07,1.65-14.14,3.35-21.06,1.65-6,5.43-11.9,11.42-14.28Z"/>
  </g>
  <g>
    <path class="cls-8" d="m342.47,197.25c.49-.27,1.47-.82,1.97-1.09,5.13,2.37,9.22,7.23,10.48,12.78,2.25,9.08,1.58,18.48,1.65,27.75-.02,7.97.03,15.94.23,23.91,1.48,7.62.47,15.42,1.34,23.11,1.55,15.99,2.95,32.01,5.33,47.92,1.43,7.63-1.95,16.39-9.05,20-8.82,4.1-21,.83-25.09-8.43,1.73.26,3.43.71,5.09,1.27,4.77,1.86,10.56.98,14.65-2.04,4.26-4.09,3.69-10.5,3.37-15.86.1-5.09-1.74-9.9-2.1-14.93-.81-10.67-2.07-21.3-2.3-32.01-1.35-8.97-.61-18.04-.82-27.07-.18-5.44,1.53-10.83.52-16.26-1-5.11.98-10.21.12-15.32-.8-5.27-1.35-10.56-1.84-15.86-.58-.21-1.76-.61-2.34-.81.89-.6,1.77-1.2,2.68-1.79-1.47-.23-2.93-.45-4.38-.67.99-.61,1.98-1.21,2.99-1.8-.84-.94-1.68-1.87-2.5-2.8Z"/>
    <path class="cls-8" d="m621.72,276.98c6.7-8.42,15.58-15.75,26.39-17.83,2.01.23,2.8,2.44,3.95,3.83-.93.47-1.86.93-2.77,1.4-11.64,5.38-20.29,15.69-26.56,26.63-8.37,12.69-13.85,26.96-19.89,40.83-2.58,5.6-7.48,10.21-13.5,11.84-5.36,1.28-11.03.17-15.93-2.15-3.85-1.93-6.27-5.61-8.22-9.29,1.24-.3,2.5-.58,3.76-.86,4.4,2.05,9.44,4.1,14.29,2.27,7.3-1.8,10.35-9.45,13.9-15.27,3.36-4.71,4.51-10.51,7.52-15.4,5.11-9.01,9.21-18.94,17.06-26Z"/>
    <path class="cls-8" d="m484.97,299.15c5.08,3.09,4.57,10.2,3.02,15.17-4.69,10.83-14.66,18.32-25.07,23.27-19.75,8.41-43.84,9.31-62.68-1.95-6.27-3.49-11.05-8.93-15.52-14.41,1.01-1.05,1.76-2.95,3.54-2.71,3.13.8,5.4,3.35,8.15,4.92,5.88,3.3,11.95,6.62,18.73,7.58,14.73,3.8,30.21.88,44.19-4.37,4.4-1.53,7.6-5.06,11.44-7.52,2.18-1.49,4.65-2.67,6.36-4.74,3.47-4.58,7.77-9.11,7.84-15.24Z"/>
  </g>
  <path class="cls-32" d="m431.73,213.13c16.85-3.25,35.93,1.07,47.56,14.27-2.95.22-6.05.84-7.11,4.01,1.56.96,3.13,1.91,4.71,2.86,2.57,8.14,1.76,17.17-2.17,24.73-3.56,6.28-9.33,10.86-15.45,14.49-6.76,3.76-13.52,7.78-21.08,9.71-4.71,1.15-9.48,2-14.22,2.99-4.88,1.04-10.16.71-14.57,3.35,1.34,1.68,2.83,3.26,4.36,4.79,1.87,2.85,2.43,6.47,4.64,9.2,4.25,6.57,12.59,8.7,19.99,8.54,9.16-.62,18.04-4.35,24.89-10.49,5.75-5.4,14.69-6.48,21.83-3.34l-.14.91c-.07,6.13-4.37,10.66-7.84,15.24-1.71,2.07-4.18,3.25-6.36,4.74-3.84,2.46-7.04,5.99-11.44,7.52-13.98,5.25-29.46,8.17-44.19,4.37-6.78-.96-12.85-4.28-18.73-7.58-2.75-1.57-5.02-4.12-8.15-4.92-1.78-.24-2.53,1.66-3.54,2.71-4.47-6.81-8.37-14.18-9.8-22.28-2.67-14.09-1.69-29.08,3.93-42.37,5.18-15.31,16.61-28.1,30.72-35.82,6.74-4.15,14.54-5.91,22.16-7.63Zm-5.06,27.04c-3.57,3.72-8.28,6.23-11.51,10.29-3.23,5.26-5.78,11.4-4.61,17.69.6.22,1.81.65,2.41.86-.04.83-.08,1.66-.1,2.5.54-.04,1.63-.12,2.18-.16l.6-1.92c8.85-.29,17.48-2.68,25.69-5.86,6.91-3.18,14.55-7.83,15.72-16.08-1.65-2.03-3.23-4.46-5.88-5.22-3.05-.63-6.19-.53-9.28-.49,2.15-.67,4.34-1.22,6.57-1.67-2.46-.44-4.94-.65-7.41-.85,1.76-.46,3.55-.8,5.37-1.04-2-.61-3.98-1.44-6.09-1.37-4.92-.39-8.71,3.81-13.66,3.32Z"/>
  <path class="cls-103" d="m57.79,219.33c4.42-.89,9.72-.83,13.07,2.68,5.54,4.82,7.41,12.26,8.62,19.2-.59,1.15-1.18,2.31-1.75,3.47-.66-4.93-1.2-10.22-4.12-14.41-.99-1.47-2.74-1.56-4.19-.8.46,2.23.57,4.52.13,6.76-.67-1.48-1.3-2.96-1.91-4.45-3.63,4.17-8.83,7.97-9.14,13.97-.65,3.38.85,6.57,2.05,9.64-2.43,1.04-4.97,1.97-7.1,3.57.04,1.96,1.6,3.38,2.5,5.01,2.18,3.2,2.26,7.21,3.43,10.8-5.19-4.74-7.76-11.49-10.35-17.85-3.65-8.85-4.14-19.13-.49-28.06,1.92-4.04,4.64-8.28,9.25-9.53Z"/>
  <path class="cls-36" d="m600.97,257.71c4.68-11.16,1.64-23.51-.11-34.97,6.71,2.59,10.21,9.99,10.23,16.85-.04,6.18.21,12.39-.59,18.54-.11.52-.33,1.58-.45,2.11-3.3.51-6.59-.2-9.08-2.53Z"/>
  <path class="cls-37" d="m510.23,237.62c4.57-11.4,20.98-14.07,30.13-6.67-1.27.66-2.55,1.3-3.74,2.08.65,3.17,1.95,6.26,1.75,9.58-.25,8.45.48,17.09-1.96,25.32-1.76,5.18-.58,10.73-1.74,16.02-1.33,5.75-1.55,11.66-2.61,17.46-.87,4.97-.65,10.23-2.96,14.86-2.29,4.77-3.63,10.68-8.56,13.52-4.12,2.08-9.49,3.14-13.49.23-.36.68-.71,1.37-1.05,2.06-.59-.41-1.17-.81-1.75-1.2-.03.46-.09,1.4-.11,1.87-2.4-3.92-3.74-8.54-3.63-13.15-.1-16.75,2.54-33.34,3.76-50.02,1.84-10.67,1.77-21.84,5.96-31.96Z"/>
  <path class="cls-148" d="m472.18,231.41c1.06-3.17,4.16-3.79,7.11-4.01,4.58,5.38,7.32,12.19,8.03,19.21.76,12.32-6.37,23.85-16.27,30.75-11.76,7.49-25.23,11.73-38.76,14.72-6.12,1.22-12.38,1.29-18.53,2.25-1.53-1.53-3.02-3.11-4.36-4.79,4.41-2.64,9.69-2.31,14.57-3.35,4.74-.99,9.51-1.84,14.22-2.99,7.56-1.93,14.32-5.95,21.08-9.71,6.12-3.63,11.89-8.21,15.45-14.49,3.93-7.56,4.74-16.59,2.17-24.73-1.58-.95-3.15-1.9-4.71-2.86Z"/>
  <path class="cls-55" d="m69.42,229.47c1.45-.76,3.2-.67,4.19.8,2.92,4.19,3.46,9.48,4.12,14.41.57-1.16,1.16-2.32,1.75-3.47.36,4.81.29,9.64.23,14.46-.64,9.55-3.55,18.72-5.54,28.04-1.43-4.86-2.04-9.97-4.28-14.57-3.87-8.29-4.28-17.59-7.17-26.2-.55-.04-1.65-.14-2.2-.18.91,8.43.6,17.13,3.61,25.2,1.23,5.68,1.97,11.51,5.06,16.58-3.26-3.26-7.3-5.82-9.81-9.77-1.17-3.59-1.25-7.6-3.43-10.8-.9-1.63-2.46-3.05-2.5-5.01,2.13-1.6,4.67-2.53,7.1-3.57-1.2-3.07-2.7-6.26-2.05-9.64.31-6,5.51-9.8,9.14-13.97.61,1.49,1.24,2.97,1.91,4.45.44-2.24.33-4.53-.13-6.76Z"/>
  <path class="cls-146" d="m536.62,233.03c1.19-.78,2.47-1.42,3.74-2.08,3.16,3.1,5.79,6.89,6.23,11.42,1.18,11.1-.37,22.23-1.28,33.29-.94,10.69-2.43,21.32-4,31.93-1.55,8.11-1.89,16.74-6.22,24.02-5.79,11.32-24.19,11.58-30.95,1.14.02-.47.08-1.41.11-1.87.58.39,1.16.79,1.75,1.2.34-.69.69-1.38,1.05-2.06,4,2.91,9.37,1.85,13.49-.23,4.93-2.84,6.27-8.75,8.56-13.52,2.31-4.63,2.09-9.89,2.96-14.86,1.06-5.8,1.28-11.71,2.61-17.46,1.16-5.29-.02-10.84,1.74-16.02,2.44-8.23,1.71-16.87,1.96-25.32.2-3.32-1.1-6.41-1.75-9.58Z"/>
  <path class="cls-96" d="m426.67,240.17c4.95.49,8.74-3.71,13.66-3.32,2.11-.07,4.09.76,6.09,1.37-1.82.24-3.61.58-5.37,1.04,2.47.2,4.95.41,7.41.85-2.23.45-4.42,1-6.57,1.67-13.28,3-23.38,14.58-26.25,27.65l-.6,1.92c-.55.04-1.64.12-2.18.16.02-.84.06-1.67.1-2.5-.6-.21-1.81-.64-2.41-.86-1.17-6.29,1.38-12.43,4.61-17.69,3.23-4.06,7.94-6.57,11.51-10.29Z"/>
  <path class="cls-41" d="m685.72,238.22c.48-.13,1.43-.39,1.9-.52,9.28,7.66,14.57,19.17,16.01,30.97,1.19,6.95.94,14,.37,21-.17,8.74-2.11,17.31-4.07,25.79-2.63,11.91-6.47,23.64-12.54,34.26-3.88,6.14-10.41,11.29-18.06,10.68-7.84.75-15.79-5.12-16.92-12.99,2.08,1.89,3.96,3.99,5.72,6.2-.23-1.26-.44-2.51-.64-3.75,5.68,2.03,13.26,1.22,16.96-4.02,3.67-4.93,6.9-10.26,9.03-16.05,7.03-16.03,10.28-33.68,9.77-51.17-.27-6.13,1.16-12.68-1.74-18.4-1.81-4.46-3-9.12-4.34-13.73-1.87-.56-3.74-1.16-5.56-1.82-.27-.52-.81-1.55-1.07-2.06-1.69-1.04-3.36-2.1-4.97-3.22,1.54-.34,3.08-1.05,4.71-.86,1.51.62,2.68,1.83,3.96,2.83.48-1.05.97-2.1,1.48-3.14Z"/>
  <path class="cls-99" d="m284.17,239.5c1.16-.66,2.32-1.32,3.5-1.98,6.01,3.15,7.78,11.25,4.88,17.12-2.4,5.69-8.15,8.63-12.82,12.18-13.7,9.69-25.98,21.2-37.03,33.8,4.51,4.33,9.19,8.54,14.46,11.94-.82,1.7-1.08,4.81-3.55,4.71-2.74-.32-4.6-2.7-6.55-4.4-3.44-3.56-7.51-6.59-10.06-10.9,1.03-.98,2.07-1.94,3.11-2.91-.8-.43-1.59-.86-2.38-1.28-.16-1.27-.32-2.53-.46-3.8,3.81-3,6.29-7.29,9.86-10.55,4.48-4.2,7.62-9.95,13.28-12.77,5.27-3.02,10.3-6.72,13.87-11.72.33.32.99.95,1.32,1.27.74-.89,1.47-1.77,2.22-2.65-.5-1.11-.99-2.21-1.47-3.3.42-.06,1.25-.16,1.67-.22.05-.94.11-1.88.17-2.82,1.54-.14,4.11.91,4.72-1.16.48-2.77-1.9-5.75.18-8.28,1.41.66,2.82,1.32,4.25,1.98-1.06-1.42-2.12-2.84-3.17-4.26Z"/>
  <g>
    <path class="cls-46" d="m415.64,269.43c2.87-13.07,12.97-24.65,26.25-27.65,3.09-.04,6.23-.14,9.28.49,2.65.76,4.23,3.19,5.88,5.22-1.17,8.25-8.81,12.9-15.72,16.08-8.21,3.18-16.84,5.57-25.69,5.86Z"/>
    <path class="cls-46" d="m503.75,384.93c1.88-1.69,3.88-3.95,6.67-3.73,2.78.9,6.28,2.89,5.71,6.36-.22,16.03-1.11,32.1.12,48.11.31,2.9-2.65,4.52-4.91,5.45-3.64.46-6.33-2.2-7.89-5.14-4.53,2.74-9.72,5.05-15.14,3.97-6.62-.32-12.53-5.07-14.43-11.38-1.55-5.84-1.02-12.23,1.56-17.7,3.5-7.05,11.22-11.2,18.89-11.76,2.88-.05,5.67.85,8.5,1.37.42-5.18,1.05-10.35.92-15.55Zm-18.08,37.72c-.23,3,1.73,5.65,4.08,7.29,3.46,1.06,7.47.01,9.81-2.79,2.67-3.58,2.7-8.25,3.02-12.51.57-3.6-3.79-4.4-6.28-5.47-5.95,1.6-11,7.11-10.63,13.48Z"/>
  </g>
  <path class="cls-86" d="m60.52,242.76c.55.04,1.65.14,2.2.18,2.89,8.61,3.3,17.91,7.17,26.2,2.24,4.6,2.85,9.71,4.28,14.57,3.06,7.56,5.92,15.21,9.47,22.56,5.34,9.58,11.02,18.99,17.64,27.75,1.48,2.13,3.13,4.16,4.82,6.14-1.74,1.51-3.21,3.29-4.39,5.26-4.79-6.62-9.69-13.17-14.09-20.07-.84-1.11-1.48-2.5-2.72-3.2-4.34-2.12-8.96-3.63-13.23-5.88-4.91-3.37-10.26-6.5-16.44-6.2,1.64-.23,3.29-.47,4.94-.7-6.45-3.3-12.86-6.73-19.7-9.19-3.05-1.08-5.33-3.46-7.43-5.81,3.48-.38,6.91.53,10.16,1.71,8.32,2.8,16.1,6.92,23.92,10.84,1.67.91,3.6,1.04,5.47,1.01,2.57,2.27,5.25,4.46,8.35,5.98-4.53-9.51-9.08-19.15-11.75-29.37-3.09-5.07-3.83-10.9-5.06-16.58-3.01-8.07-2.7-16.77-3.61-25.2Z"/>
  <path class="cls-12" d="m671.66,244.57c2.71-3.25,6.74-.95,9.95.1,1.82.66,3.69,1.26,5.56,1.82,1.34,4.61,2.53,9.27,4.34,13.73-.1,2.66-.09,5.36-.71,7.96-.97,1.57-3.21,1.78-4.28.18-3.92-6.12-4.3-14.81-10.78-19.16-.26-1.27-.49-2.54-.72-3.8-1.13-.27-2.26-.55-3.36-.83Z"/>
  <path class="cls-110" d="m817.72,271.96c6.64-6.57,15.94-12.03,25.61-10.69,5.06.85,9.8,4.37,10.52,9.73-6.96,1.7-10.31,8.47-14.45,13.6-3.4,4.98-8.83,7.9-13.19,11.91-2.01,1.97-7.01,3.93-8.22.36,3.99-4.94,9.72-8.5,12.57-14.3-1.36.35-2.77.51-3.98,1.21-6.75,4.47-12.11,10.6-18.14,15.94-4.21,3.69-7.35,8.36-11.07,12.5,2.57-14.99,9.01-29.83,20.35-40.26Z"/>
  <path class="cls-51" d="m839.4,284.6c4.14-5.13,7.49-11.9,14.45-13.6.94,9.44-4.8,17.73-11.53,23.71-7.13,7.03-16.03,11.96-25.16,15.9-4.61,1.54-9.24,4.02-14.23,3.38,2.03-2.63,4.85-4.41,8.1-5.12-.6-.73-1.21-1.47-1.78-2.19,2.85-3.33,5.76-6.59,8.74-9.81,1.21,3.57,6.21,1.61,8.22-.36,4.36-4.01,9.79-6.93,13.19-11.91Z"/>
  <path class="cls-142" d="m106.38,274.56c3.63-2.63,8.4-1.58,12.55-1.35,4.99,3.94,7.77,10.13,8.56,16.33,1.25,17.01-4.31,33.71-11.36,48.95-1.51-5.83-2.17-11.82-3.31-17.72-1.63-8.76-.28-17.68-.84-26.51-1.13.9-2.52,1.73-2.63,3.35-1.37,6.58-2.01,13.37-1.24,20.08.67,5.06-1.5,10.43.88,15.23,1.09,2.51,1.23,5.25,1.47,7.94-2.88-3.58-5.51-7.38-7.65-11.45-5.52-11.18-7.94-23.89-6.71-36.3,1.74-6.85,4.13-14.39,10.28-18.55Z"/>
  <path class="cls-78" d="m17.62,279.96c3.95-1.76,8.45-2.15,12.71-1.52,10.69,1.19,19.2,8.5,27.51,14.69,4.84,5,10.74,9.02,14.75,14.8-1.87.03-3.8-.1-5.47-1.01-7.82-3.92-15.6-8.04-23.92-10.84-3.25-1.18-6.68-2.09-10.16-1.71,2.1,2.35,4.38,4.73,7.43,5.81,6.84,2.46,13.25,5.89,19.7,9.19-1.65.23-3.3.47-4.94.7,6.18-.3,11.53,2.83,16.44,6.2-7.39.71-14.82.01-22.22-.21-10.05-1.34-19.96-4.63-28.54-10.08-4.6-3.14-8.67-7.69-9.84-13.27-.47-4.99,1.92-10.47,6.55-12.75Z"/>
  <path class="cls-47" d="m826.58,283.78c1.21-.7,2.62-.86,3.98-1.21-2.85,5.8-8.58,9.36-12.57,14.3-2.98,3.22-5.89,6.48-8.74,9.81.57.72,1.18,1.46,1.78,2.19-3.25.71-6.07,2.49-8.1,5.12-1.5,1.6-3.15,3.06-4.82,4.46-.09-1.21-.17-2.41-.26-3.62-.47-.33-1.39-.98-1.85-1.31.34-.33,1.03-.97,1.37-1.3,3.72-4.14,6.86-8.81,11.07-12.5,6.03-5.34,11.39-11.47,18.14-15.94Z"/>
  <path class="cls-88" d="m761.12,288.41c4.17-4.01,10.89-5.02,16.07-2.46,3.4,1.95,5.21,5.85,5.31,9.69,1.09,9.38-3.33,18.09-7.13,26.35-3.11,4.71-5.37,10.15-9.78,13.85-3.52,3.15-5.94,7.85-10.62,9.46.57-1.86,1.12-3.73,1.68-5.59.4.5,1.21,1.49,1.61,1.99-.36-2.7-.96-5.54,0-8.18,3.14-8.19,5.64-16.67,7.13-25.31-1.26.88-2.65,1.74-3.31,3.19-3.34,6.29-4.76,13.4-8.24,19.64-3.67,6.52-5.5,13.83-8.33,20.72-.35-13.35-1.64-26.97,1.72-40.08,3.1-8.48,6.53-17.51,13.88-23.27Z"/>
  <path class="cls-113" d="m109.35,297.61c.11-1.62,1.5-2.45,2.63-3.35.56,8.83-.79,17.75.84,26.51,1.14,5.9,1.8,11.89,3.31,17.72,1.52,5.29,1.84,11.01,4.34,15.97,6.05,6.98,13.61,12.41,20.8,18.13.96,1.81,1.52,3.8,1.97,5.8-1.2-.63-2.39-1.26-3.57-1.87-.02.82-.03,1.66,0,2.5-8.53-5.13-16.08-11.7-23.46-18.32-3.26-2.77-7.8-2.8-11.61-4.43-5.98-2.36-12.55-2.21-18.63-4.17-2.52-.79-5.1-1.39-7.71-1.76-8.06-1.73-16.55-2.1-24.19-5.4,3.24-1.43,6.85-1.03,10.29-.98,10.83.57,21.61,2.09,32.18,4.5.71-.53,1.42-1.05,2.13-1.56,2.62,2.01,5.45,3.79,8.6,4.84-2.01-1.96-3.9-4.05-5.55-6.32,1.18-1.97,2.65-3.75,4.39-5.26,1.98,2.31,4.08,4.52,6.3,6.61-.61-1.99-1.27-3.95-1.94-5.91-.24-2.69-.38-5.43-1.47-7.94-2.38-4.8-.21-10.17-.88-15.23-.77-6.71-.13-13.5,1.24-20.08Z"/>
  <path class="cls-125" d="m762.09,311.4c.66-1.45,2.05-2.31,3.31-3.19-1.49,8.64-3.99,17.12-7.13,25.31-.97,2.64-.37,5.48,0,8.18-.4-.5-1.21-1.49-1.61-1.99-.56,1.86-1.11,3.73-1.68,5.59-1.5,2.56-3.89,4.48-5.43,7.03.4-.39,1.19-1.19,1.59-1.59l.52.34c1.5.99,3.03,1.99,4.54,3-.66.19-1.98.56-2.64.74.19.56.58,1.68.77,2.24-.95.58-1.89,1.16-2.8,1.76-.39-.41-1.16-1.21-1.54-1.61-1.07.31-2.13.63-3.18.95-.81-.38-1.6-.73-2.39-1.08.32-1.78.55-3.59,1.11-5.32,2.83-6.89,4.66-14.2,8.33-20.72,3.48-6.24,4.9-13.35,8.24-19.64Z"/>
  <path class="cls-106" d="m784.77,324.03c3.81-3.43,7.26-7.26,11.23-10.51.46.33,1.38.98,1.85,1.31.09,1.21.17,2.41.26,3.62-6.86,8.23-15.38,14.9-23.13,22.26.61,0,1.83.03,2.45.04-1.61.44-3.2.93-4.78,1.42.07.94.13,1.87.22,2.82,2.14.43,4.29.9,6.43,1.47-4.22,1.47-9-1.74-12.79,1.21-4.18,2.97-8,6.42-12.19,9.39-.19-.56-.58-1.68-.77-2.24.66-.18,1.98-.55,2.64-.74-1.51-1.01-3.04-2.01-4.54-3,7.34-6.02,15.27-11.33,22.21-17.83,3.47-3.27,7.42-5.96,10.91-9.22Z"/>
  <path class="cls-39" d="m217.51,324.66c.09-1.29.81-2.43,1.88-3.14,2.86,1,5.13,3.07,7.3,5.11,1.37-.27,2.83-.29,3.98.64,6.12,4.15,11.5,9.43,18.13,12.83,8.39,4.66,16.8,9.75,26.29,11.8,4.74,1.12,9.78,2.84,14.61,1.1,6.41-2.11,12.72-4.53,19.01-6.97.51-.76,1.03-1.51,1.56-2.26-.13,3.29-.33,6.6-1.08,9.82-3.07,6.04-9.83,9.33-16.26,10.46-13.14,1.64-26.19-3.04-37.28-9.79-7.09-4.03-13.57-8.97-19.98-13.98-4.13-3.48-8.22-7.13-11.18-11.68,1.6,11.38,3.56,22.73,5.75,34.02.77,5.88.73,12.32-2.28,17.61-6.4,9.32-21.15,10.7-29.01,2.47.48-.34,1.43-1.03,1.91-1.38-.08-.81-.16-1.63-.22-2.43,3.98.29,8.43,1.53,12.03-.85,3.07-1.91,6.11-4.54,6.98-8.2,1.13-4.67,1.07-9.63-.34-14.23-1.43-4.48-.74-9.23-1.3-13.82-.68-5.67-1.23-11.43-.5-17.13Z"/>
  <path class="cls-100" d="m809.4,325.87c9.18-2.66,19.27-3.64,28.47-.51,3.54,1.63,7.39,4.1,8.27,8.2.98,3.2.6,6.81-1.41,9.55-.35-.6-1.05-1.78-1.4-2.37.76-.48,1.52-.96,2.31-1.43-.86-1.51-1.59-4.76-3.9-3.25-5.42,4.99-11.85,9.79-19.51,10.16-6.21.35-12.45,2.77-18.63,1.06-1.76-.53-1.97-2.69-2.77-4.05,7.57-1.43,15.24-2.3,22.67-4.42-11.21-3.69-22.86.27-34.28.07-3.79-.13-7.47.9-11.13,1.7,10.06-5.59,20-11.93,31.31-14.71Z"/>
  <path class="cls-61" d="m102.81,329.41c2.14,4.07,4.77,7.87,7.65,11.45.67,1.96,1.33,3.92,1.94,5.91-2.22-2.09-4.32-4.3-6.3-6.61-1.69-1.98-3.34-4.01-4.82-6.14.39-.41,1.17-1.21,1.56-1.61-.02-1.01-.03-2.01-.03-3Z"/>
  <path class="cls-87" d="m31.52,337.82c3.2-4.92,9.43-5.97,14.78-6.86,8.57-1.9,17.11,1.12,25.29,3.41,8.68,2.38,16.45,6.98,24.57,10.71.89.51,1.73,1.12,2.5,1.82-.71.51-1.42,1.03-2.13,1.56-10.57-2.41-21.35-3.93-32.18-4.5-3.44-.05-7.05-.45-10.29.98,7.64,3.3,16.13,3.67,24.19,5.4.57.67,1.15,1.34,1.73,2.01-8.62,2.94-18.1,3.06-26.77.35-5.98-2.58-12.14-4.71-18.34-6.66-.89,1.3-1.78,2.61-2.68,3.92-3.06-3.18-3.62-8.72-.67-12.14Z"/>
  <path class="cls-95" d="m841.74,336.06c2.31-1.51,3.04,1.74,3.9,3.25-.79.47-1.55.95-2.31,1.43.35.59,1.05,1.77,1.4,2.37-4.03,6.06-11.09,8.92-17.86,10.68-12.03,2.42-24.39.38-36.13-2.55-3.79-1.59-8.38-1.85-11.44-4.78,6.92-2.49,14.43-1.56,21.53-3.23.8,1.36,1.01,3.52,2.77,4.05,6.18,1.71,12.42-.71,18.63-1.06,7.66-.37,14.09-5.17,19.51-10.16Z"/>
  <path class="cls-150" d="m789.22,338.88c11.42.2,23.07-3.76,34.28-.07-7.43,2.12-15.1,2.99-22.67,4.42-7.1,1.67-14.61.74-21.53,3.23-2.14-.57-4.29-1.04-6.43-1.47-.09-.95-.15-1.88-.22-2.82,1.58-.49,3.17-.98,4.78-1.42l.66-.17c3.66-.8,7.34-1.83,11.13-1.7Z"/>
  <path class="cls-60" d="m34.87,346.04c6.2,1.95,12.36,4.08,18.34,6.66,8.67,2.71,18.15,2.59,26.77-.35-.58-.67-1.16-1.34-1.73-2.01,2.61.37,5.19.97,7.71,1.76,6.08,1.96,12.65,1.81,18.63,4.17-1.75-.08-3.54-.54-5.26-.03-9.68,3.18-19.81,5.49-30.06,5.07-5.36-.25-10.82.33-16.05-1.14-7.56-1.9-15.58-4.31-21.03-10.21.9-1.31,1.79-2.62,2.68-3.92Z"/>
  <path class="cls-33" d="m743.56,356.75l.85.33c.79.35,1.58.7,2.39,1.08,1.05-.32,2.11-.64,3.18-.95.38.4,1.15,1.2,1.54,1.61-5.06,4.56-10.59,8.52-16.19,12.37.53.01,1.61.01,2.15.01,6.53-.18,12.84-2.83,19.43-2,8.92,1.09,18.48-.97,26.81,3.27-1.35.39-2.69.77-4.03,1.12-13.24.88-26.52,1.41-39.67,3.31-4.5.16-9.54-.87-13.5,1.85-4.58,3.08-8.92,6.52-12.83,10.41-1.48,1.65-3.92.73-5.84.91-.08-1.64-.14-3.28-.15-4.91,12.07-9.31,24.23-18.55,35.86-28.41Z"/>
  <path class="cls-20" d="m756.45,363.68c11.71-4.7,24.93-5.91,37.11-2.42,4.01,1.9,9.38,3.34,10.8,8.12-.07.81-.22,2.43-.29,3.24-1.39-.75-2.78-1.5-4.14-2.24-1.79.9-3.57,1.8-5.33,2.71,1.12.57,2.25,1.16,3.4,1.76-3.81,2.33-8.25,3.28-12.62,3.87-2.17.48-4.11-.66-6.03-1.41-2.03,1.16-4.26,1.42-6.49.77,1.32-2.72,4.02-3.91,6.83-4.49,1.34-.35,2.68-.73,4.03-1.12-8.33-4.24-17.89-2.18-26.81-3.27-6.59-.83-12.9,1.82-19.43,2v-.64c6.38-2.11,12.4-5.25,18.97-6.88Z"/>
  <path class="cls-24" d="m367.28,381.38c33.53-7.37,67.94-8.95,102.08-11.15,14-.2,28,.03,42,.01,3.67-.09,7.28.58,10.91,1.08,5.86.93,12.21,1.16,17.1,4.97-.4.06-1.21.18-1.61.24-.52,5.92,1.07,11.85.1,17.75-2.97,14.33-3.35,29.08-6.72,43.35-.41,5.75-3.27,11.56-8.52,14.32-2.62,1.31-5.27,3.3-8.37,2.71-9.65-.13-19.22-1.69-28.88-1.33-15.08-.27-30.01,2.45-45.08,2.35-16.99,2.22-34.16,3.33-50.99,6.71-8.82,1.07-17.31,3.82-26.12,4.9-3.92.45-8.16.21-11.62-1.87-2.61-1.85-4.47-4.53-6.29-7.11-.81-1.8-.9-3.83-1.21-5.75-1.55-11.62-2.97-23.26-3.76-34.95-.38-6.02-1.88-12.03-.94-18.06.61-5.73,4.53-11,9.9-13.12,5.76-2.47,12.01-3.4,18.02-5.05Zm136.47,3.55c.13,5.2-.5,10.37-.92,15.55-2.83-.52-5.62-1.42-8.5-1.37-7.67.56-15.39,4.71-18.89,11.76-2.58,5.47-3.11,11.86-1.56,17.7,1.9,6.31,7.81,11.06,14.43,11.38,5.42,1.08,10.61-1.23,15.14-3.97,1.56,2.94,4.25,5.6,7.89,5.14,2.26-.93,5.22-2.55,4.91-5.45-1.23-16.01-.34-32.08-.12-48.11.57-3.47-2.93-5.46-5.71-6.36-2.79-.22-4.79,2.04-6.67,3.73Zm-79.04,15.26c-3.61,2.66-3.12,7.4-2.75,11.33.98,9.15.78,18.51,3.17,27.46,2.35,5.08,11.33,3.02,11.6-2.46.36-4.29-.53-8.7.86-12.87,1.4-5.35,3.95-11.41,9.74-13.15,2.27-1.15,4.44.9,5.14,2.94,2.74,7.31,1.9,15.21,2.39,22.82.88,4.4,6.09,5.18,9.53,3.36,3.1-3.11,2.8-7.97,2.81-12.03.01-8.14.01-17.11-5.19-23.88-4.12-4.45-10.81-4.36-16.33-3.47-4.38,1.7-8.06,4.8-11.25,8.18-.91-2.35-1.23-5.08-3.02-6.96-1.68-1.84-4.48-1.72-6.7-1.27Zm-24.03,4.81c-2.14,4.18-.89,9.1-.74,13.6.51,5.85-.75,12.94-6.09,16.31-2.75,1.94-7.1.71-8.4-2.39-4.05-7.92-1.6-17.11-2.79-25.55-2.14-4.8-10.64-4.46-11.72,1.02-.71,9-1.04,18.36,1.91,27.05.87,3.64,3.9,6.11,6.66,8.38,4.93,3.07,11.34,3.14,16.68,1.05,2.25-.88,3.92-2.81,6.18-3.65,1.87.07,3.42,1.36,5.07,2.14,1.85-1.16,4.21-2.09,4.98-4.35,2.04-5.61,1.99-11.79.97-17.6.32-4.84-.29-9.66-1.11-14.41-.43-2.39-2.77-3.88-4.94-4.47-2.48-.04-4.77,1.38-6.66,2.87Z"/>
  <path class="cls-49" d="m794.6,373.09c1.76-.91,3.54-1.81,5.33-2.71,1.36.74,2.75,1.49,4.14,2.24.07-.81.22-2.43.29-3.24,1.06,3.31.98,7.27-1.14,10.15-5.63,5.26-13.47,7.16-20.91,8.09-10.02,1.21-19.75-2.06-29.15-5.06-4.53-1.55-8.54-4.28-13.14-5.66,13.15-1.9,26.43-2.43,39.67-3.31-2.81.58-5.51,1.77-6.83,4.49,2.23.65,4.46.39,6.49-.77,1.92.75,3.86,1.89,6.03,1.41,4.37-.59,8.81-1.54,12.62-3.87-1.15-.6-2.28-1.19-3.4-1.76Z"/>
  <path class="cls-83" d="m141.27,372.59c4.22,2.47,8.27,5.24,12.67,7.4,2.43,1.45,5.55,2.22,7.03,4.86,1.23,1.24-.13,2.73-.4,4.06-4.8,1.8-8.25-2.48-12.24-4.29-2.92-1.73-6.38-3.19-8.67-5.6-.02-.84-.01-1.68,0-2.5,1.18.61,2.37,1.24,3.57,1.87-.45-2-1.01-3.99-1.97-5.8Z"/>
  <path class="cls-38" d="m537.76,376.53c.4-.06,1.21-.18,1.61-.24,4.4,2.98,7.15,8.13,7.32,13.43.72,14.65-.65,29.28-1.31,43.9-.9,6.73.06,13.86-2.87,20.19-1.72,4.69-5.37,8.88-10.22,10.38-9.62,1.31-19.32-.19-28.98.03-11.04.11-22.12-.4-33.12.73-27.94.89-55.81,4.62-82.96,11.28-7.34,1.44-14.56,4.58-22.16,3.78-.9-1.83-1.59-3.8-2.89-5.37-2.89-1.04-6.31.13-9.02-1.73-5.67-2.44-7.71-8.89-7.89-14.6,1.82,2.58,3.68,5.26,6.29,7.11,3.46,2.08,7.7,2.32,11.62,1.87,8.81-1.08,17.3-3.83,26.12-4.9,16.83-3.38,34-4.49,50.99-6.71,15.07.1,30-2.62,45.08-2.35,9.66-.36,19.23,1.2,28.88,1.33,3.1.59,5.75-1.4,8.37-2.71,5.25-2.76,8.11-8.57,8.52-14.32,3.37-14.27,3.75-29.02,6.72-43.35.97-5.9-.62-11.83-.1-17.75Z"/>
  <path class="cls-140" d="m16.23,400.46c8.81-2.34,18.06-2.11,27.12-2.09,4.08.44,8.37.71,12.19,2.34-.24,4.34-.73,8.75-2.42,12.8-2.25,4.93-2.31,10.47-4.05,15.58l-.32-.78c-.18-.43-.54-1.31-.73-1.75-1.07,1.49-2.11,2.99-3.16,4.51-.56-.5-1.12-.98-1.68-1.46-2.89,4.71-8.87,5.85-13.96,4.85-.3-.46-.89-1.37-1.19-1.83,4.14.84,9.97,1.5,12.39-2.85,1.76-2.36,2.62-5.24,2.12-8.17-.56-3.04,2.15-5.1,3.82-7.22-.2-3.43-.46-8.31-4.56-9.3-6.07-1.36-12.57-1.36-18.55.47-1.95.68-4.02.42-6.01.16-.64-1.13-1.28-2.24-1.92-3.35,1.98-.5,3.96-.97,5.96-1.42-1.69-.17-3.37-.37-5.05-.49Z"/>
  <path class="cls-84" d="m424.71,400.19c2.22-.45,5.02-.57,6.7,1.27,1.79,1.88,2.11,4.61,3.02,6.96,3.19-3.38,6.87-6.48,11.25-8.18,5.52-.89,12.21-.98,16.33,3.47,5.2,6.77,5.2,15.74,5.19,23.88-.01,4.06.29,8.92-2.81,12.03-3.44,1.82-8.65,1.04-9.53-3.36-.49-7.61.35-15.51-2.39-22.82-.7-2.04-2.87-4.09-5.14-2.94-5.79,1.74-8.34,7.8-9.74,13.15-1.39,4.17-.5,8.58-.86,12.87-.27,5.48-9.25,7.54-11.6,2.46-2.39-8.95-2.19-18.31-3.17-27.46-.37-3.93-.86-8.67,2.75-11.33Z"/>
  <path class="cls-107" d="m6.02,402.27c3.32-.93,6.74-1.74,10.21-1.81,1.68.12,3.36.32,5.05.49-2,.45-3.98.92-5.96,1.42.64,1.11,1.28,2.22,1.92,3.35-1.79,3.15-3.92,6.21-4.86,9.75,3.51,7.06,10.07,11.83,15.65,17.16.3.46.89,1.37,1.19,1.83,5.09,1,11.07-.14,13.96-4.85.56.48,1.12.96,1.68,1.46,1.05-1.52,2.09-3.02,3.16-4.51.19.44.55,1.32.73,1.75-2.17,4.61-5.26,8.7-7.8,13.1-2.07,3.25-4.08,6.55-6.31,9.7-.69,1.12-2,1.5-3.1,2.06-4.07-1.96-6.94-5.56-9.97-8.77-6.51-7.04-12.01-14.96-16.66-23.33-2.14-3.9-5.63-7.75-4.71-12.54.3-3.12,2.92-5.47,5.82-6.26Z"/>
  <path class="cls-149" d="m55.54,400.71c6.83.82,13.17,3.65,19.78,5.39,8.76,2.65,17.61,5.03,26.15,8.36,20.98,6.5,41.53,14.29,62.2,21.7-1.78,2.87-2.66,6.15-3.52,9.39-.56,1.85-1.19,3.68-1.8,5.53-.71,2.09-1.4,4.19-2.09,6.29-1.23,1.66-2.29,4.85-4.93,3.72-5.04-1.47-10.42-1.44-15.36-3.27-10.27-4.29-21.34-6.02-32.05-8.84-9.64-3.57-19.43-6.75-28.82-10.96-7.81-3.17-16.59-4.68-23.28-10.1-.74.86-1.47,1.73-2.2,2.6-.14-.36-.41-1.07-.55-1.43,1.74-5.11,1.8-10.65,4.05-15.58,1.69-4.05,2.18-8.46,2.42-12.8Zm6.82,16.95c5.27,3.54,11.14,6.09,17.29,7.68,6.28,2.79,12.62,5.47,19.09,7.79,6.67,1.05,13.18,2.86,19.57,5.04,5.72.5,11.03,2.79,16.62,3.93,4.01,2.3,8.51,3.44,13.14,3.46-.78-2.29-1.15-4.98-3.17-6.56-3.48-3.2-8.14-4.47-12.25-6.6-6.09-3.2-12.86-4.64-19.37-6.7-5.7-1.66-11.15-4.15-17.01-5.24-3.01-.5-5.64-2.07-8.39-3.24-6.6-2.27-13.48-3.68-20.04-6.04-3.58-1.89-8.77,3.06-5.48,6.48Z"/>
  <path class="cls-3" d="m400.68,405c1.89-1.49,4.18-2.91,6.66-2.87,2.17.59,4.51,2.08,4.94,4.47.82,4.75,1.43,9.57,1.11,14.41,1.02,5.81,1.07,11.99-.97,17.6-.77,2.26-3.13,3.19-4.98,4.35-1.65-.78-3.2-2.07-5.07-2.14-2.26.84-3.93,2.77-6.18,3.65-5.34,2.09-11.75,2.02-16.68-1.05-2.76-2.27-5.79-4.74-6.66-8.38-2.95-8.69-2.62-18.05-1.91-27.05,1.08-5.48,9.58-5.82,11.72-1.02,1.19,8.44-1.26,17.63,2.79,25.55,1.3,3.1,5.65,4.33,8.4,2.39,5.34-3.37,6.6-10.46,6.09-16.31-.15-4.5-1.4-9.42.74-13.6Z"/>
  <path class="cls-131" d="m23.25,405.56c5.98-1.83,12.48-1.83,18.55-.47,4.1.99,4.36,5.87,4.56,9.3-1.67,2.12-4.38,4.18-3.82,7.22.5,2.93-.36,5.81-2.12,8.17-2.42,4.35-8.25,3.69-12.39,2.85-5.58-5.33-12.14-10.1-15.65-17.16.94-3.54,3.07-6.6,4.86-9.75,1.99.26,4.06.52,6.01-.16Z"/>
  <path class="cls-117" d="m618.75,408.21c8.39-3.62,18.71-1.83,25.38,4.38,3.24,3.75,5.78,8.08,7.33,12.81,7.11-11.68,24.75-14.62,35.57-6.42-1.3,1.01-3.85,1.52-3.66,3.6.24,5.48,1.17,11.38-1.68,16.41-5.3,10.03-15.8,16.23-26.21,19.88-5.9,2.21-12.54,4.54-18.79,2.39-4.09-2.06-7.63-5.08-11.87-6.85.27-.43.56-.85.87-1.26-5.9-4.75-11.44-9.91-17.35-14.64-5.44-10.45-.69-25.58,10.41-30.3Z"/>
  <path class="cls-115" d="m485.67,422.65c-.37-6.37,4.68-11.88,10.63-13.48,2.49,1.07,6.85,1.87,6.28,5.47-.32,4.26-.35,8.93-3.02,12.51-2.34,2.8-6.35,3.85-9.81,2.79-2.35-1.64-4.31-4.29-4.08-7.29Z"/>
  <path class="cls-134" d="m62.36,417.66c-3.29-3.42,1.9-8.37,5.48-6.48,6.56,2.36,13.44,3.77,20.04,6.04,2.75,1.17,5.38,2.74,8.39,3.24,5.86,1.09,11.31,3.58,17.01,5.24,6.51,2.06,13.28,3.5,19.37,6.7,4.11,2.13,8.77,3.4,12.25,6.6,2.02,1.58,2.39,4.27,3.17,6.56-4.63-.02-9.13-1.16-13.14-3.46-5.59-1.14-10.9-3.43-16.62-3.93-6.39-2.18-12.9-3.99-19.57-5.04-6.47-2.32-12.81-5-19.09-7.79-6.15-1.59-12.02-4.14-17.29-7.68Z"/>
  <g>
    <path class="cls-56" d="m276.7,420.22c8.03-2.22,16.78-2.78,24.7.22,3.82,1.56,8.13,2.88,10.92,6.1-.89-.34-1.78-.67-2.66-.98,2.84,3.04,1.94,7.45,4,10.84,4.61,7.95,5.99,18,3.17,26.78-3.1,5.22-9.94,7.06-15.58,5.43-1.78-1.09-2.97-2.93-4.83-3.93-1.07-3.05-1.99-6.39-4.5-8.61-1.6-1.31-3.71-1.11-5.6-.87-1.07-3.64-5.66-2.21-8.14-.9-7.2,6.36-10.29,16.04-11.71,25.27-2.62,14.21-1.25,28.71-1.2,43.07-.13,7.81,1.96,15.38,3.34,23.01,2.86-.74,5.67-1.62,8.49-2.51,10.02-2.11,19.93-5.12,30.2-5.87,5.75-.43,11.27,1.51,16.26,4.21.16.41.47,1.24.63,1.65-.57.18-1.72.55-2.3.74.23,2.52.86,5.11.23,7.62-1.05,2.68-3.3,4.67-5.5,6.44-7.36,5.37-15.7,9.43-24.63,11.41-5.24,1.98-11.77,1.8-15.75,6.22-1.39,2.78-.28,6.09-.05,9.05,3.27,18.27,7.93,36.26,13.19,54.05,2.43,8.15,6.43,15.71,9.01,23.81,1.95,5.69,4.78,11.63,3.44,17.78-1.59,2.87-5.08,4.38-8.22,4.7-7.98-.25-13.26-6.98-18.33-12.25-2.91-3.39-8.16-2.76-11.02-6.24-11.53-24.51-18.63-50.85-24.62-77.19-.19-1.73-1.84-2.2-3.31-1.86,1.25-.38,2.48-.79,3.73-1.19-.45-2.77-.89-5.54-1.32-8.31-14.05-.15-28.18,5.1-42.15,1.42-6.17-1.33-11.39-5.03-16.72-8.2.4-8.26,6.94-15.09,14.61-17.41,12.45-3.27,25.34-4.08,38.08-5.52-2.28-25.4-2.95-51.35,2.73-76.37,2.52-9.21,5.3-18.59,10.78-26.53,7.11-11.38,17.82-20.77,30.63-25.08Zm9.8,6.62c.02.37.05,1.11.07,1.48,3.9.48,7.87.04,11.76.75-1.92.31-3.84.58-5.76.83-.07,4.1-1.88,9.47,2.32,12.13,0,.76,0,1.53,0,2.31,1.06.7,1.82,2.35,3.22,2.27,1.05-1.3,1.98-2.7,3.02-4.02,1.57.86,3.14,1.71,4.72,2.58,1.14,4.26,4.59,8.29,9.46,7.35,0-3.73-.18-7.66-1.85-11.06-3.52-4.65-6.62-10.39-12.65-12.08.09-.74.2-1.47.31-2.2-4.89.52-9.73-1.48-14.62-.34Z"/>
    <path class="cls-56" d="m480.96,522.52c12.45-8.66,26.97-15.17,42.29-15.87,11.18-1.08,22.6,1.35,32.61,6.36,3.31,1.91,6.82,3.68,9.38,6.6-.41-.02-1.22-.08-1.63-.11,1.55,1.93,2.53,4.2,2.19,6.73.72-.58,1.46-1.15,2.2-1.71-1.28,6.49,2.21,12.63,1.43,19.11-.64,7.64-3.75,15.32-9.64,20.42-16.82,15.3-40.08,21.69-62.46,21.49-2.83.3-6.88-.43-8.4,2.64-1.9,3.7,2.46,6.18,4.33,8.79,2.11,4.06,3.67,8.59,7.24,11.71,4.93,4.17,11.53,5.67,17.81,6.28,7.44-.53,14.83-2.45,21.4-6.01,3.24-1.7,6.26-3.85,9.7-5.16,5.79-1.78,12.28-2.01,17.68,1.12-.78,3.53-.69,7.46-3.01,10.46-6.26,8.86-16.09,14.67-26.36,17.75-14.4,5.06-30.24,6-45.03,2.09-8.13-2.93-15.87-6.91-22.75-12.15-3.4-1.97-6.12-5.52-10.12-6.15-.28.39-.83,1.16-1.11,1.54-3.75-6.96-6.42-14.52-7.62-22.34-2.89-27.43,8.73-55.9,29.87-73.59Zm3.22,8.06c-2.35,1.57-4.2,3.75-6.12,5.79-2.97,3.01-3.23,7.47-4.86,11.19,1.3,1.41,2.63,2.81,3.99,4.19,3.47-2.25,7.9-3.41,10.23-7.09,1.86-2.79,3.62-5.66,5.59-8.38,2.89-2.51,6.86-3.67,9.13-6.87,1.16-1.56,2.63-2.97,3.32-4.81.08-2.74-2.92-3.67-5.14-3.06-6.01,1.74-10.78,6-16.14,9.04Zm72.67.51c-1.19.82-2.49,1.54-3.43,2.65-.77,3.2.23,6.42,1.19,9.47.97,2.62-.04,5.37.05,8.06,1.24,1.63,3.71,1.68,5.54,2.46,1.62-1.8,3.7-3.3,4.76-5.51,1.07-5.03.37-10.27-1.02-15.17-2.42-.49-4.8-1.09-7.09-1.96Zm-37.54,3.47c-6.27,2.33-12.35,5.32-17.73,9.31-3.73,3.35-6.57,7.62-8.86,12.05-1.37,2.5-1.72,5.36-1.37,8.16,3.19-.75,4.85,1.81,5.72,4.49.94-.7,2.31-1.11,2.31-2.57,8.45.13,16.82-1.46,25.01-3.44,7.25-1.93,14.64-5.53,18.97-11.88,2.44-4.37-.82-9.42-5.04-11.06-1.27-2.01-3.8-1.52-5.76-2.1-1.78-.81-2.04-3.61-4.26-3.63-3-.45-6.14-.41-8.99.67Z"/>
  </g>
  <path class="cls-13" d="m683.37,422.58c-.19-2.08,2.36-2.59,3.66-3.6,5.32,5.04,7.27,12.61,5.96,19.72-1.08,10.06-9.29,17.17-17.01,22.71-7.75,4.87-15.9,9.1-24.34,12.63-3.93,1.69-8.26,4.61-12.64,2.81-3.52-2.37-6.23-5.71-9.33-8.57-8.85-8.44-17.4-17.98-21.33-29.77,5.91,4.73,11.45,9.89,17.35,14.64-.31.41-.6.83-.87,1.26,4.24,1.77,7.78,4.79,11.87,6.85,6.25,2.15,12.89-.18,18.79-2.39,10.41-3.65,20.91-9.85,26.21-19.88,2.85-5.03,1.92-10.93,1.68-16.41Z"/>
  <path class="cls-70" d="m309.66,425.56c.88.31,1.77.64,2.66.98,8.17,5.82,12.82,15.51,14.42,25.23.54,5.85.27,12.19-3.19,17.19-3.03,4.16-7.89,7.47-13.23,7.11-6.33-.2-13.68-4.35-13.9-11.39,1.86,1,3.05,2.84,4.83,3.93,5.64,1.63,12.48-.21,15.58-5.43,2.82-8.78,1.44-18.83-3.17-26.78-2.06-3.39-1.16-7.8-4-10.84Z"/>
  <path class="cls-123" d="m286.5,426.84c4.89-1.14,9.73.86,14.62.34-.11.73-.22,1.46-.31,2.2,6.03,1.69,9.13,7.43,12.65,12.08,1.67,3.4,1.85,7.33,1.85,11.06-4.87.94-8.32-3.09-9.46-7.35-1.58-.87-3.15-1.72-4.72-2.58-1.04,1.32-1.97,2.72-3.02,4.02-1.4.08-2.16-1.57-3.22-2.27,0-.78,0-1.55,0-2.31-4.2-2.66-2.39-8.03-2.32-12.13,1.92-.25,3.84-.52,5.76-.83-3.89-.71-7.86-.27-11.76-.75-.02-.37-.05-1.11-.07-1.48Z"/>
  <path class="cls-68" d="m51.82,427.92c6.69,5.42,15.47,6.93,23.28,10.1,9.39,4.21,19.18,7.39,28.82,10.96,10.71,2.82,21.78,4.55,32.05,8.84,4.94,1.83,10.32,1.8,15.36,3.27,2.64,1.13,3.7-2.06,4.93-3.72-.64,2.08-1.2,4.18-1.85,6.26-1.77,5.45-4.31,10.59-6.94,15.66-11.67-2.78-23.43-5.24-34.87-8.9-7.49-2.43-15.34-3.56-22.74-6.27-12.14-4.57-24.35-8.94-36.45-13.62-4.23-1.45-7.1-5.89-11.89-5.71-.2-1.14-.39-2.26-.57-3.38,2.54-4.4,5.63-8.49,7.8-13.1l.32.78c.14.36.41,1.07.55,1.43.73-.87,1.46-1.74,2.2-2.6Z"/>
  <path class="cls-53" d="m740.46,444.83c2.61-5.89,8.04-9.94,13.9-12.27,7.44-1.7,16.58-1.08,21.66,5.39-1.81,1.45-3.35,3.2-4.45,5.25,3.36,4.23,2.92,9.81,4.18,14.79,1.08,4.02.8,8.55,3.26,12.09,2.43-3.12,4.5-6.54,5.72-10.33-.54.16-1.61.48-2.15.64l.36-1.36c3.79-7.2,9.41-13.99,17.35-16.69,3.63-.72,7.37-.6,11.05-.39,7.23,1.02,13.33,7.39,14.1,14.64.73,7.26-2.24,14.63-7.55,19.6-2.83,2.96-6.6,4.68-9.84,7.11,3.82,1,7.84.99,11.65,2.11,3.93,1.55,7.68,3.78,10.54,6.94-.39.08-1.17.24-1.56.31-1.37-.2-2.71-.49-4.03-.76,1.42,5.62,2.5,11.58,1.22,17.32-4.64,6.25-12.25,11.65-20.39,10.04-6.45-2.3-12.54-5.65-17.84-9.99.58-.75,1.16-1.5,1.76-2.25-1.77.02-3.68-.45-5.33.28-1.49,1.18-2.55,2.93-2.93,4.78-.53,4.63-.36,9.3-.61,13.95-2.1,2.5-4.11,5.07-6.04,7.69-3.41,1.27-6.87,2.41-10.31,3.54-5-.97-12.07-2.83-12.51-8.98-.04-5.48,1.13-11.15,4.21-15.76-.56-.77-1.11-1.53-1.65-2.28-.89,2.18-1.78,4.35-2.72,6.51-1.11-2.22-1.33-4.7-1.31-7.14l-.27.36c-9.16,2.67-20.53,4.97-28.46-1.89-3.49-3.58-6.33-8.24-5.92-13.43-.81-7.37,3.63-14.35,9.6-18.32,7.06-3.96,15.39-2.09,23.08-2.62-3.23-5.16-7.72-9.96-8.51-16.23-.41-4.2-.54-8.58.74-12.65Zm30.26,28.37c-8.41,2.84-12.58,13.12-10.44,21.4,1.55,4.62,5.42,8.51,10.02,10.13,5.79,1.21,12.33.84,17.23-2.82,4.46-4,7.41-10.33,5.85-16.35-1.12-3.99-2.89-8.16-6.52-10.46-4.74-3.07-10.8-3.47-16.14-1.9Z"/>
  <path class="cls-81" d="m160.15,445.55c.86-3.24,1.74-6.52,3.52-9.39,3.86,1.91,7.93,3.32,11.84,5.12-2.04,1.75-2.98,4.23-2.99,6.88l-.11,1.38c-1.97-1.08-3.89-2.33-6.06-2.94-1.95-.09-3.88.25-5.82.4-.09-.36-.28-1.09-.38-1.45Z"/>
  <path class="cls-121" d="m771.57,443.2c1.1-2.05,2.64-3.8,4.45-5.25,5.22,5.68,7.55,13.44,6.92,21.08l-.36,1.36c.54-.16,1.61-.48,2.15-.64-1.22,3.79-3.29,7.21-5.72,10.33-2.46-3.54-2.18-8.07-3.26-12.09-1.26-4.98-.82-10.56-4.18-14.79Z"/>
  <path class="cls-40" d="m34.64,451.11c2.23-3.15,4.24-6.45,6.31-9.7.18,1.12.37,2.24.57,3.38,4.79-.18,7.66,4.26,11.89,5.71,12.1,4.68,24.31,9.05,36.45,13.62,7.4,2.71,15.25,3.84,22.74,6.27,11.44,3.66,23.2,6.12,34.87,8.9-2.06,3.94-4.5,7.75-5.53,12.13-31.42-8.04-62.4-17.85-92.49-29.95-6.07-2.54-11.99-5.44-17.91-8.3,1.1-.56,2.41-.94,3.1-2.06Z"/>
  <path class="cls-63" d="m175.51,441.28c6.73,3.13,13.91,6.74,17.85,13.36,3.46,5.25,4.67,11.88,3.48,18.04-2.03-.61-4.9-4.04-6.53-1.21-5.44,6.77-15.08,6.65-22.96,6.1,3.47-6,6.57-12.21,8.92-18.73,1.49-3.23,1.91-6.8.97-10.24-1.58-.16-3.15-.3-4.72-.44.01-2.65.95-5.13,2.99-6.88Z"/>
  <path class="cls-116" d="m158.35,451.08c.61-1.85,1.24-3.68,1.8-5.53.1.36.29,1.09.38,1.45,1.94-.15,3.87-.49,5.82-.4,2.17.61,4.09,1.86,6.06,2.94.05,3.09-1.44,6.27-.52,9.28,1.46.13,2.91.03,4.38.02-2.35,6.52-5.45,12.73-8.92,18.73-1.92-.45-3.84-.88-5.76-1.31.73-1.38,1.46-2.75,2.22-4.1,2.95-4.91,5.68-10.07,6.41-15.83-4.34-.97-7.39-4.74-11.87-5.25Z"/>
  <path class="cls-11" d="m172.52,448.16c1.57.14,3.14.28,4.72.44.94,3.44.52,7.01-.97,10.24-1.47.01-2.92.11-4.38-.02-.92-3.01.57-6.19.52-9.28l.11-1.38Z"/>
  <path class="cls-1" d="m158.35,451.08c4.48.51,7.53,4.28,11.87,5.25-.73,5.76-3.46,10.92-6.41,15.83-.49-1.51-.96-3.02-1.43-4.52-1.66.24-3.33.48-4.98.73-1-1.59-2-3.17-2.99-4.74.65-2.08,1.21-4.18,1.85-6.26.69-2.1,1.38-4.2,2.09-6.29Z"/>
  <path class="cls-133" d="m278.18,454.3c2.48-1.31,7.07-2.74,8.14.9-4.94,4.23-7.36,10.43-9.06,16.54-2.99,12.37-3.43,25.17-3.36,37.85-.3,5.74,1.36,11.32,1.64,17.04.19,5.53,1.22,10.99,1.56,16.51-2.82.89-5.63,1.77-8.49,2.51-1.38-7.63-3.47-15.2-3.34-23.01-.05-14.36-1.42-28.86,1.2-43.07,1.42-9.23,4.51-18.91,11.71-25.27Z"/>
  <path class="cls-34" d="m154.41,463.63c.99,1.57,1.99,3.15,2.99,4.74-.71,1.42-1.41,2.86-2.1,4.3,1.58,1.05,3.22,2.04,4.64,3.34-.83,4.41-2.9,8.47-4.44,12.66-.99,1.96-1.5,4.71-3.96,5.32-3.2-.86-6.4-1.72-9.6-2.57,1.03-4.38,3.47-8.19,5.53-12.13,2.63-5.07,5.17-10.21,6.94-15.66Z"/>
  <path class="cls-139" d="m157.4,468.37c1.65-.25,3.32-.49,4.98-.73.47,1.5.94,3.01,1.43,4.52-.76,1.35-1.49,2.72-2.22,4.1,1.92.43,3.84.86,5.76,1.31-2.17,6.24-5.71,11.92-7.55,18.29-2.76-.6-5.51-1.22-8.26-1.87,2.46-.61,2.97-3.36,3.96-5.32,1.54-4.19,3.61-8.25,4.44-12.66-1.42-1.3-3.06-2.29-4.64-3.34.69-1.44,1.39-2.88,2.1-4.3Z"/>
  <path class="cls-42" d="m190.31,471.47c1.63-2.83,4.5.6,6.53,1.21-1.91,8.51-6.95,16.58-14.83,20.71-6.69,3.92-14.8,4.01-22.21,2.47,1.84-6.37,5.38-12.05,7.55-18.29,7.88.55,17.52.67,22.96-6.1Z"/>
  <path class="cls-138" d="m770.72,473.2c5.34-1.57,11.4-1.17,16.14,1.9,3.63,2.3,5.4,6.47,6.52,10.46,1.56,6.02-1.39,12.35-5.85,16.35-4.9,3.66-11.44,4.03-17.23,2.82-4.6-1.62-8.47-5.51-10.02-10.13-2.14-8.28,2.03-18.56,10.44-21.4Z"/>
  <path class="cls-121" d="m824.65,491.9c1.32.27,2.66.56,4.03.76.39-.07,1.17-.23,1.56-.31l.39-.07c3.61,4.96,6.33,11.18,4.71,17.41-1.49,8.98-8.7,16.76-17.67,18.57-5.78,1.15-12.15,1.4-17.44-1.59-5.03-2.26-9.37-5.87-12.6-10.32-.31-.29-.91-.86-1.21-1.14-2.86,4.03-1.26,9.02-1.87,13.54-.95,3.83-3.09,7.22-4.54,10.87.56-.23,1.68-.68,2.24-.91-7.14,10.7-23.78,10.69-32.77,2.35-1.27-1.81-2.26-3.8-3.05-5.84-3.14-8.5-.14-17.46,3.5-25.25l.27-.36c-.02,2.44.2,4.92,1.31,7.14.94-2.16,1.83-4.33,2.72-6.51.54.75,1.09,1.51,1.65,2.28-3.08,4.61-4.25,10.28-4.21,15.76.44,6.15,7.51,8.01,12.51,8.98,3.44-1.13,6.9-2.27,10.31-3.54,1.93-2.62,3.94-5.19,6.04-7.69.25-4.65.08-9.32.61-13.95.38-1.85,1.44-3.6,2.93-4.78,1.65-.73,3.56-.26,5.33-.28-.6.75-1.18,1.5-1.76,2.25,5.3,4.34,11.39,7.69,17.84,9.99,8.14,1.61,15.75-3.79,20.39-10.04,1.28-5.74.2-11.7-1.22-17.32Z"/>
  <path class="cls-135" d="m409.24,510.51c11.14-5.52,25.64-6.16,36.02,1.38-.95,1.59-2.05,3.12-2.66,4.89.1,2.85,1.42,5.54,1.33,8.4-.8,4.09-2.99,8.3-6.93,10.13-7.17,4.46-15.95.56-23.57,3.42-11.85,4.02-19.25,15.17-23.66,26.3-2.1,5.99-2.4,12.4-3.51,18.61-1.91,9.94-1.18,20.15-.27,30.15,1.17,7.65,2.06,15.85-1.16,23.15-2.25,3.94-6.93,5.82-11.1,6.93-3.79-.71-7.74-.92-10.92,1.68-2.84-2.74-4.55-6.41-5.92-10.04-2.11-7.65-3.78-15.42-5.03-23.26-4.93-25.74-9.15-51.64-12.21-77.68-1.04-7.57,1.22-16.04,7.76-20.53,3.86-1.8,8.36-3.77,12.64-2.35,2.46,1.43,7.09,1.92,6.72,5.64-.19,3.19,2.33,5.48,3.26,8.34,1.48,4.79,1.92,9.86,3.67,14.59.85,2.21,3.13,3.33,4.85,4.8,1.77-2.02,2.58-4.52,1.58-7.09.21.02.65.08.87.11,6.54-11.59,15.87-22.14,28.24-27.57Zm8.77,3.59c.66.74,1.34,1.48,2.02,2.23-3.26.8-6.68,1.57-9.43,3.58-1.87,1.94-3.29,4.47-6.01,5.34-.12,2.09-1.16,4.79.56,6.48,3.82,2.45,8.52,3.68,13.01,2.51,5.69-1.34,11.52-.28,17.28-.39,1.62-2.22,3.63-4.38,4.07-7.19-.85-2.95-2.51-5.61-4.23-8.12-4.51-4.67-11.34-3.99-17.27-4.44Z"/>
  <path class="cls-144" d="m620.23,509.58c6.87-4.42,16.77-4.51,23.01,1.12-.93-.33-1.84-.64-2.75-.93.53,7.28,2.83,14.47,1.82,21.81-1.6,13.2-4.63,26.16-7.51,39.12-1.04,6.42-2.69,12.73-4.71,18.91-1.49,4.33-1.86,8.94-3.36,13.27-2.17,6.81-5.01,13.39-7.08,20.24-1.88,5.65-4.72,11.88-10.6,14.29-3.68,1.8-7.87,1.23-11.77.63-.63.42-1.25.85-1.85,1.28-.35-1.72-.67-3.43-1-5.13-.44-.09-1.34-.27-1.79-.36-.24.71-.74,2.13-.98,2.84-2.78-10.9.18-22.15,1.96-32.98,5.58-24.62,9.32-49.63,15.54-74.12,1.99-7.4,4.79-15.12,11.07-19.99Z"/>
  <path class="cls-19" d="m721.47,508.08c7.93,6.86,19.3,4.56,28.46,1.89-3.64,7.79-6.64,16.75-3.5,25.25-1.29,1.87-2.57,3.74-3.82,5.63,2.47-8.34-1.54-17.82,3.4-25.49-.65-.76-1.29-1.51-1.91-2.25-6.41,1.04-13.24,1.61-19.36-.95-1.78-.67-2.66-2.43-3.27-4.08Z"/>
  <path class="cls-145" d="m640.49,509.77c.91.29,1.82.6,2.75.93,4.16,3.08,6.49,8.04,7.45,13.02,1.06,11.77-1.11,23.47-2.94,35.05-5.35,25.03-9.81,50.45-19.07,74.43-1.27,3.58-3.55,6.64-5.75,9.69-.17.02-.52.04-.69.05-3.47-.29-6.07,2.36-9.23,3.2-3.39.37-6.83.21-10.19.83l-.66.1c-4.58-2.2-8.13-5.96-10.5-10.4.24-.71.74-2.13.98-2.84.45.09,1.35.27,1.79.36.33,1.7.65,3.41,1,5.13.6-.43,1.22-.86,1.85-1.28,3.9.6,8.09,1.17,11.77-.63,5.88-2.41,8.72-8.64,10.6-14.29,2.07-6.85,4.91-13.43,7.08-20.24,1.5-4.33,1.87-8.94,3.36-13.27,2.02-6.18,3.67-12.49,4.71-18.91,2.88-12.96,5.91-25.92,7.51-39.12,1.01-7.34-1.29-14.53-1.82-21.81Z"/>
  <path class="cls-2" d="m360.05,511.69c7.93-.11,14.33,6.35,16.69,13.52,1.21,4.23,2.59,8.42,3.39,12.76,1,2.57.19,5.07-1.58,7.09-1.72-1.47-4-2.59-4.85-4.8-1.75-4.73-2.19-9.8-3.67-14.59-.93-2.86-3.45-5.15-3.26-8.34.37-3.72-4.26-4.21-6.72-5.64Z"/>
  <path class="cls-73" d="m442.6,516.78c.61-1.77,1.71-3.3,2.66-4.89,4.88,3.63,8.18,9.62,7.65,15.8-.13,5.56-2.7,10.9-6.75,14.67-5.89,4.59-13.89,4.63-20.85,3.02-5.32-1.6-10.38,1.73-14.45,4.76-10.14,8.97-14.68,22.71-15.34,35.92-1.26,7.18.29,14.36.43,21.55.57,9.33,3.26,18.61,1.91,27.99-.91,6.77-5.54,13.23-12.23,15.26-7.8,3.04-17.06.64-22.82-5.31,3.18-2.6,7.13-2.39,10.92-1.68,4.17-1.11,8.85-2.99,11.1-6.93,3.22-7.3,2.33-15.5,1.16-23.15-.91-10-1.64-20.21.27-30.15,1.11-6.21,1.41-12.62,3.51-18.61,4.41-11.13,11.81-22.28,23.66-26.3,7.62-2.86,16.4,1.04,23.57-3.42,3.94-1.83,6.13-6.04,6.93-10.13.09-2.86-1.23-5.55-1.33-8.4Z"/>
  <path class="cls-52" d="m418.01,514.1c5.93.45,12.76-.23,17.27,4.44,1.72,2.51,3.38,5.17,4.23,8.12-.44,2.81-2.45,4.97-4.07,7.19-5.76.11-11.59-.95-17.28.39-4.49,1.17-9.19-.06-13.01-2.51-1.72-1.69-.68-4.39-.56-6.48,2.72-.87,4.14-3.4,6.01-5.34,2.75-2.01,6.17-2.78,9.43-3.58-.68-.75-1.36-1.49-2.02-2.23Z"/>
  <path class="cls-30" d="m88.65,515.79c3.05-.45,6.61-.89,9.12,1.35,3.2,2.07,3.13,6.65,6.38,8.65,2.81,2.34,6.37-.7,9.54.26,3.92.44,7.13,4.71,5.84,8.59-1.72,2.71-5.42,4.38-5.29,8.01.09,2.79,2.53,4.96,2.62,7.82.23,2.47.93,6.7-2.54,7.13-4.63,1.77-9.32-.15-13.67-1.65-3.34.96-4.4,4.88-7.12,6.78-2.28,2.2-5.6,1.8-8.48,1.56-1.12-2.25-2.8-4.11-4.3-6.09-.88-2.88.72-6.34-1.11-8.9-3.3-1.56-7.7-1.85-9.28-5.71-2.34-3.32-.59-7.36,1.77-10.11,3.64-1.72,7.94-2.27,10.99-5.11.63-2.18.56-4.51,1.36-6.63,1.11-2.17,2.74-4,4.17-5.95Zm-1.16,4.79c-2.25,2.86-2.35,6.59-3.16,9.98-3.51,2.86-8.71,2.86-12.12,6.02-1.08,1.99-.62,4.5-.18,6.63,2.87,2.8,7.78,2.11,10.54,5.11,1.63,3.51.41,7.66,1.87,11.21,1.12,2.54,4.36,3.42,6.79,2.26,3.23-2.27,5.18-5.84,8.11-8.43,3.23-.18,5.64,3.02,8.91,3.06,2.13.08,4.25-.24,6.37-.47.6-2.25,1.93-4.77.35-6.92-1.1-2.72-3.7-5.36-2.98-8.44,1.89-2.69,4.63-4.74,5.86-7.89-.61-1.54-.97-3.19-1.89-4.56-3.92-.5-7.86.31-11.78-.07-3.95-2.43-4.71-7.97-9-10.1-2.75-1.8-6.24.03-7.69,2.61Z"/>
  <path class="cls-15" d="m784.55,528.75c.61-4.52-.99-9.51,1.87-13.54.3.28.9.85,1.21,1.14.93,4.41-.75,8.78-1.47,13.1-.59,3.33-2.01,6.48-3.91,9.26-.56.23-1.68.68-2.24.91,1.45-3.65,3.59-7.04,4.54-10.87Z"/>
  <path class="cls-26" d="m87.49,520.58c1.45-2.58,4.94-4.41,7.69-2.61,4.29,2.13,5.05,7.67,9,10.1,3.92.38,7.86-.43,11.78.07.92,1.37,1.28,3.02,1.89,4.56-1.23,3.15-3.97,5.2-5.86,7.89-.72,3.08,1.88,5.72,2.98,8.44,1.58,2.15.25,4.67-.35,6.92-2.12.23-4.24.55-6.37.47-3.27-.04-5.68-3.24-8.91-3.06-2.93,2.59-4.88,6.16-8.11,8.43-2.43,1.16-5.67.28-6.79-2.26-1.46-3.55-.24-7.7-1.87-11.21-2.76-3-7.67-2.31-10.54-5.11-.44-2.13-.9-4.64.18-6.63,3.41-3.16,8.61-3.16,12.12-6.02.81-3.39.91-7.12,3.16-9.98Z"/>
  <path class="cls-137" d="m563.61,519.5c.41.03,1.22.09,1.63.11,6.01,5.25,11.43,11.98,12.77,20.07,2.02,9.06.37,19.03-5.24,26.52-3.07,3.81-6.15,7.79-10.43,10.32-10.18,6.92-22.11,10.61-34.02,13.25-11.37,2.47-23.03,3.42-34.64,3.07-.14,1.37-.28,2.75-.42,4.13-1.87-2.61-6.23-5.09-4.33-8.79,1.52-3.07,5.57-2.34,8.4-2.64,22.38.2,45.64-6.19,62.46-21.49,5.89-5.1,9-12.78,9.64-20.42.78-6.48-2.71-12.62-1.43-19.11-.74.56-1.48,1.13-2.2,1.71.34-2.53-.64-4.8-2.19-6.73Z"/>
  <path class="cls-22" d="m484.18,530.58c5.36-3.04,10.13-7.3,16.14-9.04,2.22-.61,5.22.32,5.14,3.06-.69,1.84-2.16,3.25-3.32,4.81-2.27,3.2-6.24,4.36-9.13,6.87-1.97,2.72-3.73,5.59-5.59,8.38-2.33,3.68-6.76,4.84-10.23,7.09-1.36-1.38-2.69-2.78-3.99-4.19,1.63-3.72,1.89-8.18,4.86-11.19,1.92-2.04,3.77-4.22,6.12-5.79Z"/>
  <path class="cls-62" d="m693.91,536.8c2.79-4.1,7.05-8.28,12.45-7.73,3.61-.51,6.86,1.96,8.61,4.93,2.58,4.71,4.44,10.12,3.6,15.56-.54,3.26-.71,6.56-1.15,9.83-3.53,11.76-7.86,23.64-15.68,33.29.55-5.4,2.61-10.56,2.62-16.02-.19-8.69,3.05-17.29.73-25.92-.56.11-1.7.35-2.26.46-1.93,7.79-.59,16.22-3.89,23.68-1.62-3.36-3.09-6.84-5.54-9.68-.65,2.75.04,5.46,1.19,7.97,1.26,2.76,1.28,6.11,3.29,8.51-.77,5.16-1.33,10.37-2.43,15.47,1.21-8.37-3.96-15.69-5.6-23.61-3.43-12.13-2.38-25.77,4.06-36.74Z"/>
  <path class="cls-77" d="m556.85,531.09c2.29.87,4.67,1.47,7.09,1.96,1.39,4.9,2.09,10.14,1.02,15.17-1.06,2.21-3.14,3.71-4.76,5.51-1.83-.78-4.3-.83-5.54-2.46-.09-2.69.92-5.44-.05-8.06-.96-3.05-1.96-6.27-1.19-9.47.94-1.11,2.24-1.83,3.43-2.65Z"/>
  <path class="cls-109" d="m519.31,534.56c2.85-1.08,5.99-1.12,8.99-.67,2.22.02,2.48,2.82,4.26,3.63,1.96.58,4.49.09,5.76,2.1-9.47-2.47-19.33,1.21-26.79,7.03-6.53,4.9-10.98,11.97-14.24,19.34.52,0,1.57.01,2.09.01,0,1.46-1.37,1.87-2.31,2.57-.87-2.68-2.53-5.24-5.72-4.49-.35-2.8,0-5.66,1.37-8.16,2.29-4.43,5.13-8.7,8.86-12.05,5.38-3.99,11.46-6.98,17.73-9.31Z"/>
  <path class="cls-111" d="m746.43,535.22c.79,2.04,1.78,4.03,3.05,5.84-6.56,14.44-17.1,26.58-26.37,39.33l-.39-.23c-2.3-2.18-5.34-1.4-7.73.15,4.54-6.44,9.99-12.16,14.27-18.78,4.81-6.65,8.89-13.79,13.35-20.68,1.25-1.89,2.53-3.76,3.82-5.63Z"/>
  <path class="cls-82" d="m511.53,546.65c7.46-5.82,17.32-9.5,26.79-7.03,4.22,1.64,7.48,6.69,5.04,11.06-4.33,6.35-11.72,9.95-18.97,11.88-8.19,1.98-16.56,3.57-25.01,3.44-.52,0-1.57-.01-2.09-.01,3.26-7.37,7.71-14.44,14.24-19.34Z"/>
  <g>
    <path class="cls-17" d="m321.89,543.87c.58-.19,1.73-.56,2.3-.74,4.13,3.97,4.67,10.25,3.11,15.5-2.66,6.73-9.32,10.45-15.55,13.33-8.58,3.43-17.43,6.1-26.33,8.54.31,4.8,1.95,9.36,3.04,14.02,4.71,16.83,9.3,33.75,15.9,49.96,3.12,8.03,6.64,15.9,10.18,23.75,3.35,8.01,2.63,18.49-4.17,24.52-8.55,6.74-21.73,5.72-29.8-1.33-7.64-6.63-12.25-15.88-16.31-24.96,2.86,3.48,8.11,2.85,11.02,6.24,5.07,5.27,10.35,12,18.33,12.25,3.14-.32,6.63-1.83,8.22-4.7,1.34-6.15-1.49-12.09-3.44-17.78-2.58-8.1-6.58-15.66-9.01-23.81-5.26-17.79-9.92-35.78-13.19-54.05-.23-2.96-1.34-6.27.05-9.05,3.98-4.42,10.51-4.24,15.75-6.22,8.93-1.98,17.27-6.04,24.63-11.41,2.2-1.77,4.45-3.76,5.5-6.44.63-2.51,0-5.1-.23-7.62Z"/>
    <path class="cls-17" d="m564.08,615.37c2.32-3,2.23-6.93,3.01-10.46,1.74,1.93,3.77,3.8,4.65,6.34,1.73,6.61-.77,13.65-5.46,18.44-9.77,10.13-23.36,15.51-36.93,18.22-13.33,1.93-27.27,1.41-39.92-3.54-12.98-4.56-23.69-14.22-30.72-25.92.28-.38.83-1.15,1.11-1.54,4,.63,6.72,4.18,10.12,6.15,6.88,5.24,14.62,9.22,22.75,12.15,14.79,3.91,30.63,2.97,45.03-2.09,10.27-3.08,20.1-8.89,26.36-17.75Z"/>
  </g>
  <path class="cls-50" d="m702.83,551.2c.56-.11,1.7-.35,2.26-.46,2.32,8.63-.92,17.23-.73,25.92-.01,5.46-2.07,10.62-2.62,16.02l-.14.99c-.73,1.33-1.46,2.66-2.13,4.02,5.37-5.61,10.29-11.64,15.52-17.38,2.39-1.55,5.43-2.33,7.73-.15-4.37,6.98-10.3,12.82-15.43,19.23,1.67-.85,3.31-1.76,4.97-2.63,4.01.88,7.4-1.95,11.09-2.97,4.64-1.37,9.32-2.68,13.82-4.5,6.42-1.81,12.79-4.46,19.54-4.62-10.2,6.48-21.47,11.18-32.89,15.1-5.43,1.04-10.63,3.04-15.84,4.82-2.6,1.16-5.62,1.19-8.05,2.69-10.31,8.59-19.42,18.52-30.09,26.68-1.53.78-3.38.1-5.02.19-.05-1.63-.07-3.24-.07-4.85,9.46-6.37,17.89-14.27,25.64-22.62,2.73-2.52,3.48-6.31,5.06-9.53,1.1-5.1,1.66-10.31,2.43-15.47-2.01-2.4-2.03-5.75-3.29-8.51-1.15-2.51-1.84-5.22-1.19-7.97,2.45,2.84,3.92,6.32,5.54,9.68,3.3-7.46,1.96-15.89,3.89-23.68Z"/>
  <path class="cls-26" d="m126.91,571.2c5.3-3.55,12.93-1.89,16.63,3.16,2.61,4.2,1.46,9.55-.85,13.62-4.64,2.01-10.41,5.18-15.05,1.42-7.39-2.99-7.75-14.66-.73-18.2Z"/>
  <path class="cls-119" d="m749.97,572.08c7.16-1.76,15.03-3.14,22.09-.26,4.96,1.8,6.27,7.96,5.09,12.59-1.56-1.01-3.01-2.24-4.8-2.76-5.59,5.3-11.96,9.69-18.67,13.44-9.26,4.1-19.74,7.92-29.86,4.68,11.42-3.92,22.69-8.62,32.89-15.1-6.75.16-13.12,2.81-19.54,4.62-.43-1.92.36-4.76-1.82-5.74-2.2-1.28-4.82-.67-7.16-.26,6.21-5.49,13.97-8.74,21.78-11.21Z"/>
  <path class="cls-59" d="m179.87,571.13c5.33,3.17,10.55,6.87,16.72,8.2,13.97,3.68,28.1-1.57,42.15-1.42.43,2.77.87,5.54,1.32,8.31-1.25.4-2.48.81-3.73,1.19-6.4,1.21-12.9,2.77-19.44,2.74-3.49-.63-7.03-.81-10.56-.57-4.68.36-9.25-1.12-13.92-.74-7.59-1.86-13.16-9.89-12.54-17.71Z"/>
  <path class="cls-65" d="m753.68,595.09c6.71-3.75,13.08-8.14,18.67-13.44,1.79.52,3.24,1.75,4.8,2.76-4.81,11.44-17.03,17.19-28.25,20.54-7.54,2.78-15.68,2.45-23.56,2.28-5.8-.8-11.56-1.93-17.36-2.64,5.21-1.78,10.41-3.78,15.84-4.82,10.12,3.24,20.6-.58,29.86-4.68Z"/>
  <path class="cls-89" d="m728.19,583.29c2.34-.41,4.96-1.02,7.16.26,2.18.98,1.39,3.82,1.82,5.74-4.5,1.82-9.18,3.13-13.82,4.5-3.69,1.02-7.08,3.85-11.09,2.97,5.09-4.72,10.46-9.19,15.93-13.47Z"/>
  <path class="cls-45" d="m192.41,588.84c4.67-.38,9.24,1.1,13.92.74,3.53-.24,7.07-.06,10.56.57-3.71,1.37-7.7.7-11.54.89-4.41.16-9.01.07-12.94-2.2Z"/>
  <path class="cls-57" d="m613.01,646.14c3.16-.84,5.76-3.49,9.23-3.2-4.91,5.05-12.93,6.55-19.42,4.03,3.36-.62,6.8-.46,10.19-.83Z"/>
  <path class="cls-67" d="m404.69,678.39c11.85-6.19,25.65-7.76,38.78-5.87,8.08,1.98,15.98,4.83,23.27,8.88-3.78.41-7.25-1.06-10.73-2.22-1.65-.71-3.05.84-4.47,1.39,2.69,1.27,5.58,2.04,8.52,2.5-.78.21-1.55.43-2.3.66.94,1.21,1.88,2.42,2.83,3.64-7.32,1.29-14.28-1.71-21.4-2.76-5.74-.93-11.62-1.38-17.06-3.58,1.34-2.51,3.71-4.05,6.15-5.34-4.75-.38-9.63-.14-13.98,1.98-3.07.92-6.86,3.79-9.61.72Z"/>
  <path class="cls-14" d="m620.71,672.01c3.93-.67,8.26.13,11.15,3.04,2.94,2.37,2.37,6.57,1.94,9.89-2.43,8.08-14.62,10.52-20.35,4.57-5.01-6.24-1.01-16.98,7.26-17.5Z"/>
  <path class="cls-85" d="m414.3,677.67c4.35-2.12,9.23-2.36,13.98-1.98-2.44,1.29-4.81,2.83-6.15,5.34,5.44,2.2,11.32,2.65,17.06,3.58,7.12,1.05,14.08,4.05,21.4,2.76-.95-1.22-1.89-2.43-2.83-3.64.75-.23,1.52-.45,2.3-.66-2.94-.46-5.83-1.23-8.52-2.5,1.42-.55,2.82-2.1,4.47-1.39,3.48,1.16,6.95,2.63,10.73,2.22,12.21,5.57,23.71,12.89,36.73,16.53,1.31-1.41,3.27-1.06,5-1.08-1.07.48-2.12.97-3.16,1.49-9.28,1.84-18.53,4.57-28.06,4.55-8.43-1.69-16.26-5.48-24.01-9.1-4.74-2.37-10.18-2.2-15.13-3.9-2.87-.97-5.94-.38-8.85.03-1.22-.03-2,.53-2.33,1.69,3.18,1.76,6.85,2.18,10.28,3.27,5.97,1.9,12.05,3.55,17.84,6,3.55,1.53,7.47,2.17,10.77,4.27-17.18,2.37-34.46,4.78-51.05,9.98-9.57,2.65-18.68,6.64-28.04,9.91-7.7,3.41-16.09,5.77-22.73,11.14,10.81-2.37,20.95-7.13,31.83-9.24-1.91,2.77-3.75,5.59-5.58,8.42-2.41,2.62-3.8,7.09-7.91,7.29-8.59.84-16.62-2.95-24.77-4.96-.84.66-1.67,1.33-2.5,2.01-1.32-1.47-2.17-4.5-4.63-3.91-3.57.74-2.44,5.18-3.32,7.78-2.17-1.31-4.16-3.34-3.31-6.1,1.49-2.24,3.76-3.78,5.51-5.79,10.34-14.29,23.7-27.12,40.32-33.72,3.76-1.53,7.79-2.59,11.07-5.1.53.38,1.08.76,1.65,1.16,5.85-1.66,11.94-2.08,17.98-2.42,1.43-.29,3.64.11,3.96-1.82-4.5-2.79-9.87-3.36-14.99-4.1-3.14-.39-6.35-1.6-9.49-.45,0-1.04,0-2.07.01-3.09,0-.25.01-.75.01-1.01,1.6-.93,3.21-1.86,4.85-2.74,2.75,3.07,6.54.2,9.61-.72Z"/>
  <path class="cls-23" d="m534.02,682.25c1.46-1.73,3.83-1.18,5.82-1.22.09,1.43.19,2.86.31,4.31-9.51,8.66-21.61,13.93-33.56,18.15.82-1.2,1.66-2.37,2.49-3.55-1.27-.56-2.51-1.13-3.77-1.6,1.04-.52,2.09-1.01,3.16-1.49,9.11-3.68,18.44-7.59,25.55-14.6Z"/>
  <path class="cls-141" d="m397.76,683.98c.52-.46,1.56-1.38,2.07-1.84-.01,1.02-.01,2.05-.01,3.09,3.14-1.15,6.35.06,9.49.45,5.12.74,10.49,1.31,14.99,4.1-.32,1.93-2.53,1.53-3.96,1.82-6.04.34-12.13.76-17.98,2.42-.57-.4-1.12-.78-1.65-1.16-2.96-1.85-3.41-5.73-2.95-8.88Z"/>
  <path class="cls-101" d="m429.26,689.92c2.91-.41,5.98-1,8.85-.03,4.95,1.7,10.39,1.53,15.13,3.9,7.75,3.62,15.58,7.41,24.01,9.1,9.53.02,18.78-2.71,28.06-4.55,1.26.47,2.5,1.04,3.77,1.6-.83,1.18-1.67,2.35-2.49,3.55-4.89.63-9.75,1.45-14.49,2.83-5.55,1.29-11.12,2.56-16.76,3.38-4.58.44-7.68,4.12-10.99,6.89-6.26,5.09-9.77,12.78-15.98,17.91-.49-.26-1.45-.77-1.93-1.03,4.67-7.82,10.3-15.06,16.08-22.08-7.77.71-15.51,1.81-23.17,3.28-2.43.56-5.21.97-6.85,3.05-6.42,8.17-12.19,17.55-21.42,22.85.78-2.12,1.9-4.1,3.45-5.74,4.94-5.5,8.98-11.73,13.85-17.28-6.39.74-12.65,2.25-18.73,4.33-3.2,1.16-6.72,1.62-9.64,3.44-2.75,3.86-4.85,8.17-7.5,12.1-1.33,1.46-2.72,2.86-4.11,4.26.57-2.13,1.15-4.25,1.85-6.32,1.83-2.83,3.67-5.65,5.58-8.42-10.88,2.11-21.02,6.87-31.83,9.24,6.64-5.37,15.03-7.73,22.73-11.14,9.36-3.27,18.47-7.26,28.04-9.91,16.59-5.2,33.87-7.61,51.05-9.98-3.3-2.1-7.22-2.74-10.77-4.27-5.79-2.45-11.87-4.1-17.84-6-3.43-1.09-7.1-1.51-10.28-3.27.33-1.16,1.11-1.72,2.33-1.69Z"/>
  <path class="cls-14" d="m561.9,704.85c.96-12.15,17.16-18.58,26.93-12.09v.43c-.34,4.72,1.36,9.78-.67,14.24-2.61,2.75-5.77,5-9,6.98-3.71.71-7.68-.07-11.1-1.6-1.88-4.12-2.61-8.73-2.08-13.24-1.45,1.69-2.87,3.41-4.08,5.28Z"/>
  <path class="cls-108" d="m588.16,707.43c2.03-4.46.33-9.52.67-14.24,5.18,3.44,8.32,9.86,7.05,16.07-1.31,8.94-10.86,15.07-19.58,13.49-8.71-.49-15.93-9.26-14.4-17.9,1.21-1.87,2.63-3.59,4.08-5.28-.53,4.51.2,9.12,2.08,13.24,3.42,1.53,7.39,2.31,11.1,1.6,3.23-1.98,6.39-4.23,9-6.98Z"/>
  <path class="cls-112" d="m492.1,706.32c4.74-1.38,9.6-2.2,14.49-2.83-.36,3.95-3.16,7.04-4.93,10.45-3.83,6.89-9.21,12.69-14.42,18.53-18.28,17.25-42.98,26.96-67.94,28.4-23.89.67-48.02-4.78-69.14-16.01-1-.48-2.03-.9-3.04-1.29.88-2.6-.25-7.04,3.32-7.78,2.46-.59,3.31,2.44,4.63,3.91.83-.68,1.66-1.35,2.5-2.01,8.15,2.01,16.18,5.8,24.77,4.96,4.11-.2,5.5-4.67,7.91-7.29-.7,2.07-1.28,4.19-1.85,6.32,1.39-1.4,2.78-2.8,4.11-4.26-.34,2.83-1.86,5.11-4.3,6.56,3.56,5.27,10.61,4.26,16.12,4.62,5.51.47,10.9-.72,16.32-1.4,13.15-.43,25.62-5.04,37.91-9.3,4.68-1.56,8.27-5.06,12.2-7.87,3.63-2.62,6.92-5.68,9.93-8.98,4.41-4.85,9.45-9.11,13.46-14.31-.51-.1-1.53-.31-2.05-.42Z"/>
  <path class="cls-72" d="m475.34,709.7c5.64-.82,11.21-2.09,16.76-3.38.52.11,1.54.32,2.05.42-4.01,5.2-9.05,9.46-13.46,14.31-3.01,3.3-6.3,6.36-9.93,8.98-3.93,2.81-7.52,6.31-12.2,7.87-12.29,4.26-24.76,8.87-37.91,9.3-5.42.68-10.81,1.87-16.32,1.4-5.51-.36-12.56.65-16.12-4.62,2.44-1.45,3.96-3.73,4.3-6.56,2.65-3.93,4.75-8.24,7.5-12.1,2.92-1.82,6.44-2.28,9.64-3.44,6.08-2.08,12.34-3.59,18.73-4.33-4.87,5.55-8.91,11.78-13.85,17.28-1.55,1.64-2.67,3.62-3.45,5.74,9.23-5.3,15-14.68,21.42-22.85,1.64-2.08,4.42-2.49,6.85-3.05,7.66-1.47,15.4-2.57,23.17-3.28-5.78,7.02-11.41,14.26-16.08,22.08.48.26,1.44.77,1.93,1.03,6.21-5.13,9.72-12.82,15.98-17.91,3.31-2.77,6.41-6.45,10.99-6.89Z"/>
</svg>